G04 Layer_Color=255*
%FSLAX44Y44*%
%MOMM*%
G71*
G01*
G75*
%ADD10C,1.0000*%
%ADD29C,4.0000*%
%ADD30C,2.0000*%
%ADD31R,2.0000X2.0000*%
%ADD32O,2.0000X1.5240*%
%ADD33O,4.0000X2.0000*%
D10*
X93020Y110997D02*
D03*
Y158697D02*
D03*
Y405997D02*
D03*
Y453697D02*
D03*
Y700997D02*
D03*
Y748697D02*
D03*
D29*
X34000Y30500D02*
D03*
X696000Y824500D02*
D03*
X34000D02*
D03*
X696000Y30500D02*
D03*
X100000Y236700D02*
D03*
Y30000D02*
D03*
Y531700D02*
D03*
Y325000D02*
D03*
Y826700D02*
D03*
Y620000D02*
D03*
D30*
X402232Y61976D02*
D03*
Y87376D02*
D03*
X437030Y246380D02*
D03*
X462430D02*
D03*
X487830D02*
D03*
X513230D02*
D03*
X538630D02*
D03*
X564030D02*
D03*
X589430D02*
D03*
X614830D02*
D03*
X640230D02*
D03*
X437030Y17780D02*
D03*
X462430D02*
D03*
X487830D02*
D03*
X513230D02*
D03*
X538630D02*
D03*
X564030D02*
D03*
X589430D02*
D03*
X614830D02*
D03*
X640230D02*
D03*
X638960Y193040D02*
D03*
Y167640D02*
D03*
Y66040D02*
D03*
Y91440D02*
D03*
Y116840D02*
D03*
Y142240D02*
D03*
X402232Y356976D02*
D03*
Y382376D02*
D03*
X437030Y541380D02*
D03*
X462430D02*
D03*
X487830D02*
D03*
X513230D02*
D03*
X538630D02*
D03*
X564030D02*
D03*
X589430D02*
D03*
X614830D02*
D03*
X640230D02*
D03*
X437030Y312780D02*
D03*
X462430D02*
D03*
X487830D02*
D03*
X513230D02*
D03*
X538630D02*
D03*
X564030D02*
D03*
X589430D02*
D03*
X614830D02*
D03*
X640230D02*
D03*
X638960Y488040D02*
D03*
Y462640D02*
D03*
Y361040D02*
D03*
Y386440D02*
D03*
Y411840D02*
D03*
Y437240D02*
D03*
X402232Y651976D02*
D03*
Y677376D02*
D03*
X437030Y836380D02*
D03*
X462430D02*
D03*
X487830D02*
D03*
X513230D02*
D03*
X538630D02*
D03*
X564030D02*
D03*
X589430D02*
D03*
X614830D02*
D03*
X640230D02*
D03*
X437030Y607780D02*
D03*
X462430D02*
D03*
X487830D02*
D03*
X513230D02*
D03*
X538630D02*
D03*
X564030D02*
D03*
X589430D02*
D03*
X614830D02*
D03*
X640230D02*
D03*
X638960Y783040D02*
D03*
Y757640D02*
D03*
Y656040D02*
D03*
Y681440D02*
D03*
Y706840D02*
D03*
Y732240D02*
D03*
D31*
X411630Y246380D02*
D03*
Y17780D02*
D03*
Y541380D02*
D03*
Y312780D02*
D03*
Y836380D02*
D03*
Y607780D02*
D03*
D32*
X113020Y165997D02*
D03*
Y100997D02*
D03*
Y143497D02*
D03*
Y123497D02*
D03*
Y460997D02*
D03*
Y395997D02*
D03*
Y438497D02*
D03*
Y418497D02*
D03*
Y755997D02*
D03*
Y690997D02*
D03*
Y733497D02*
D03*
Y713497D02*
D03*
D33*
X93020Y75350D02*
D03*
Y191350D02*
D03*
Y370350D02*
D03*
Y486350D02*
D03*
Y665350D02*
D03*
Y781350D02*
D03*
M02*
