G04 Layer_Color=32896*
%FSLAX44Y44*%
%MOMM*%
G71*
G01*
G75*
%ADD27C,0.2540*%
D27*
X305780Y166633D02*
X308112Y168966D01*
X312777D01*
X315110Y166633D01*
Y164301D01*
X312777Y161968D01*
X308112D01*
X305780Y159636D01*
Y157303D01*
X308112Y154971D01*
X312777D01*
X315110Y157303D01*
X301115Y168966D02*
X291784D01*
X296449D01*
Y154971D01*
X287119D02*
Y168966D01*
X282454Y164301D01*
X277789Y168966D01*
Y154971D01*
X273124Y166633D02*
X270791Y168966D01*
X266126D01*
X263793Y166633D01*
Y164301D01*
X266126Y161968D01*
X268458D01*
X266126D01*
X263793Y159636D01*
Y157303D01*
X266126Y154971D01*
X270791D01*
X273124Y157303D01*
X249798Y154971D02*
X259128D01*
X249798Y164301D01*
Y166633D01*
X252130Y168966D01*
X256796D01*
X259128Y166633D01*
X235802Y168966D02*
X245133D01*
Y161968D01*
X240467D01*
X245133D01*
Y154971D01*
X231137Y166633D02*
X228805Y168966D01*
X224139D01*
X221807Y166633D01*
Y157303D01*
X224139Y154971D01*
X228805D01*
X231137Y157303D01*
Y166633D01*
X217142D02*
X214809Y168966D01*
X210144D01*
X207811Y166633D01*
Y164301D01*
X210144Y161968D01*
X212477D01*
X210144D01*
X207811Y159636D01*
Y157303D01*
X210144Y154971D01*
X214809D01*
X217142Y157303D01*
X203146Y166633D02*
X200814Y168966D01*
X196148D01*
X193816Y166633D01*
Y157303D01*
X196148Y154971D01*
X200814D01*
X203146Y157303D01*
Y166633D01*
X179820Y168966D02*
X189151D01*
Y161968D01*
X184486D01*
X189151D01*
Y154971D01*
X168158D02*
Y168966D01*
X175155Y161968D01*
X165825D01*
X161160Y154971D02*
Y168966D01*
X154162D01*
X151830Y166633D01*
Y161968D01*
X154162Y159636D01*
X161160D01*
X137834Y168966D02*
X142499Y166633D01*
X147164Y161968D01*
Y157303D01*
X144832Y154971D01*
X140167D01*
X137834Y157303D01*
Y159636D01*
X140167Y161968D01*
X147164D01*
X305780Y132080D02*
X315110D01*
X305780Y141410D01*
Y143743D01*
X308112Y146075D01*
X312777D01*
X315110Y143743D01*
X301115D02*
X298782Y146075D01*
X294117D01*
X291784Y143743D01*
Y134413D01*
X294117Y132080D01*
X298782D01*
X301115Y134413D01*
Y143743D01*
X287119Y132080D02*
X282454D01*
X284786D01*
Y146075D01*
X287119Y143743D01*
X275456Y134413D02*
X273124Y132080D01*
X268458D01*
X266126Y134413D01*
Y143743D01*
X268458Y146075D01*
X273124D01*
X275456Y143743D01*
Y141410D01*
X273124Y139078D01*
X266126D01*
X261461Y132080D02*
Y134413D01*
X259128D01*
Y132080D01*
X261461D01*
X240467D02*
X249798D01*
X240467Y141410D01*
Y143743D01*
X242800Y146075D01*
X247465D01*
X249798Y143743D01*
X235802Y132080D02*
Y134413D01*
X233470D01*
Y132080D01*
X235802D01*
X224139D02*
X219474D01*
X221807D01*
Y146075D01*
X224139Y143743D01*
X203146Y132080D02*
X212477D01*
X203146Y141410D01*
Y143743D01*
X205479Y146075D01*
X210144D01*
X212477Y143743D01*
X558114Y228600D02*
X569110D01*
Y223102D01*
X567277Y221269D01*
X565444D01*
X563612Y223102D01*
Y228600D01*
Y223102D01*
X561779Y221269D01*
X559946D01*
X558114Y223102D01*
Y228600D01*
X569110Y217604D02*
Y213938D01*
Y215771D01*
X558114D01*
X559946Y217604D01*
X594510Y228600D02*
X587179D01*
X583514Y224935D01*
X587179Y221269D01*
X594510D01*
X589012D01*
Y228600D01*
X583514Y217604D02*
Y210273D01*
X585346D01*
X592677Y217604D01*
X594510D01*
X619910Y228600D02*
X612579D01*
X608914Y224935D01*
X612579Y221269D01*
X619910D01*
X614412D01*
Y228600D01*
X608914Y210273D02*
X610746Y213938D01*
X614412Y217604D01*
X618077D01*
X619910Y215771D01*
Y212105D01*
X618077Y210273D01*
X616245D01*
X614412Y212105D01*
Y217604D01*
X645310Y228600D02*
X637979D01*
X634314Y224935D01*
X637979Y221269D01*
X645310D01*
X639812D01*
Y228600D01*
X634314Y210273D02*
Y217604D01*
X639812D01*
X637979Y213938D01*
Y212105D01*
X639812Y210273D01*
X643477D01*
X645310Y212105D01*
Y215771D01*
X643477Y217604D01*
X534546Y221269D02*
X532714Y223102D01*
Y226767D01*
X534546Y228600D01*
X541877D01*
X543710Y226767D01*
Y223102D01*
X541877Y221269D01*
X538212D01*
Y224935D01*
X509146Y228600D02*
X507314Y226767D01*
Y223102D01*
X509146Y221269D01*
X510979D01*
X512812Y223102D01*
Y224935D01*
Y223102D01*
X514645Y221269D01*
X516477D01*
X518310Y223102D01*
Y226767D01*
X516477Y228600D01*
X518310Y217604D02*
X516477D01*
Y215771D01*
X518310D01*
Y217604D01*
X509146Y208440D02*
X507314Y206607D01*
Y202942D01*
X509146Y201109D01*
X510979D01*
X512812Y202942D01*
Y204774D01*
Y202942D01*
X514645Y201109D01*
X516477D01*
X518310Y202942D01*
Y206607D01*
X516477Y208440D01*
X507314Y197443D02*
X514645D01*
X518310Y193778D01*
X514645Y190112D01*
X507314D01*
X492910Y228600D02*
X485579D01*
X481914Y224935D01*
X485579Y221269D01*
X492910D01*
X487412D01*
Y228600D01*
X491077Y217604D02*
X492910Y215771D01*
Y212105D01*
X491077Y210273D01*
X483746D01*
X481914Y212105D01*
Y215771D01*
X483746Y217604D01*
X485579D01*
X487412Y215771D01*
Y210273D01*
X467510Y228600D02*
X460179D01*
X456514Y224935D01*
X460179Y221269D01*
X467510D01*
X462012D01*
Y228600D01*
X467510Y217604D02*
Y213938D01*
Y215771D01*
X456514D01*
X458346Y217604D01*
Y208440D02*
X456514Y206607D01*
Y202942D01*
X458346Y201109D01*
X465677D01*
X467510Y202942D01*
Y206607D01*
X465677Y208440D01*
X458346D01*
X442110Y228600D02*
X434779D01*
X431114Y224935D01*
X434779Y221269D01*
X442110D01*
X436612D01*
Y228600D01*
X442110Y217604D02*
Y213938D01*
Y215771D01*
X431114D01*
X432946Y217604D01*
Y208440D02*
X431114Y206607D01*
Y202942D01*
X432946Y201109D01*
X434779D01*
X436612Y202942D01*
Y204774D01*
Y202942D01*
X438445Y201109D01*
X440277D01*
X442110Y202942D01*
Y206607D01*
X440277Y208440D01*
X416710Y228600D02*
X409379D01*
X405714Y224935D01*
X409379Y221269D01*
X416710D01*
X411212D01*
Y228600D01*
X416710Y217604D02*
Y213938D01*
Y215771D01*
X405714D01*
X407546Y217604D01*
X416710Y202942D02*
X405714D01*
X411212Y208440D01*
Y201109D01*
X431114Y42199D02*
Y49530D01*
X436612D01*
Y45865D01*
Y49530D01*
X442110D01*
X432946Y38534D02*
X431114Y36701D01*
Y33035D01*
X432946Y31203D01*
X440277D01*
X442110Y33035D01*
Y36701D01*
X440277Y38534D01*
X432946D01*
X456514Y42199D02*
Y49530D01*
X462012D01*
Y45865D01*
Y49530D01*
X467510D01*
Y38534D02*
Y34868D01*
Y36701D01*
X456514D01*
X458346Y38534D01*
X405714Y49530D02*
X416710D01*
Y44032D01*
X414877Y42199D01*
X413045D01*
X411212Y44032D01*
Y49530D01*
Y44032D01*
X409379Y42199D01*
X407546D01*
X405714Y44032D01*
Y49530D01*
X416710Y36701D02*
Y33035D01*
X414877Y31203D01*
X411212D01*
X409379Y33035D01*
Y36701D01*
X411212Y38534D01*
X414877D01*
X416710Y36701D01*
X492910Y63500D02*
X481914D01*
Y58002D01*
X483746Y56169D01*
X487412D01*
X489244Y58002D01*
Y63500D01*
Y59834D02*
X492910Y56169D01*
X483746Y45173D02*
X481914Y47005D01*
Y50671D01*
X483746Y52504D01*
X485579D01*
X487412Y50671D01*
Y47005D01*
X489244Y45173D01*
X491077D01*
X492910Y47005D01*
Y50671D01*
X491077Y52504D01*
X481914Y41507D02*
Y34176D01*
Y37842D01*
X492910D01*
X507314Y63500D02*
X514645D01*
X518310Y59834D01*
X514645Y56169D01*
X507314D01*
Y52504D02*
X518310D01*
Y47005D01*
X516477Y45173D01*
X509146D01*
X507314Y47005D01*
Y52504D01*
X518310Y41507D02*
X510979D01*
X507314Y37842D01*
X510979Y34176D01*
X518310D01*
X512812D01*
Y41507D01*
X543710Y53340D02*
X536379D01*
X532714Y49675D01*
X536379Y46009D01*
X543710D01*
X538212D01*
Y53340D01*
X534546Y42344D02*
X532714Y40511D01*
Y36845D01*
X534546Y35013D01*
X541877D01*
X543710Y36845D01*
Y40511D01*
X541877Y42344D01*
X534546D01*
X569110Y53340D02*
X561779D01*
X558114Y49675D01*
X561779Y46009D01*
X569110D01*
X563612D01*
Y53340D01*
X569110Y42344D02*
Y38678D01*
Y40511D01*
X558114D01*
X559946Y42344D01*
X594510Y53340D02*
X587179D01*
X583514Y49675D01*
X587179Y46009D01*
X594510D01*
X589012D01*
Y53340D01*
X594510Y35013D02*
Y42344D01*
X587179Y35013D01*
X585346D01*
X583514Y36845D01*
Y40511D01*
X585346Y42344D01*
X619910Y53340D02*
X612579D01*
X608914Y49675D01*
X612579Y46009D01*
X619910D01*
X614412D01*
Y53340D01*
X610746Y42344D02*
X608914Y40511D01*
Y36845D01*
X610746Y35013D01*
X612579D01*
X614412Y36845D01*
Y38678D01*
Y36845D01*
X616245Y35013D01*
X618077D01*
X619910Y36845D01*
Y40511D01*
X618077Y42344D01*
X645310Y53340D02*
X637979D01*
X634314Y49675D01*
X637979Y46009D01*
X645310D01*
X639812D01*
Y53340D01*
X645310Y36845D02*
X634314D01*
X639812Y42344D01*
Y35013D01*
X305780Y461633D02*
X308112Y463966D01*
X312777D01*
X315110Y461633D01*
Y459301D01*
X312777Y456968D01*
X308112D01*
X305780Y454636D01*
Y452303D01*
X308112Y449971D01*
X312777D01*
X315110Y452303D01*
X301115Y463966D02*
X291784D01*
X296449D01*
Y449971D01*
X287119D02*
Y463966D01*
X282454Y459301D01*
X277789Y463966D01*
Y449971D01*
X273124Y461633D02*
X270791Y463966D01*
X266126D01*
X263793Y461633D01*
Y459301D01*
X266126Y456968D01*
X268458D01*
X266126D01*
X263793Y454636D01*
Y452303D01*
X266126Y449971D01*
X270791D01*
X273124Y452303D01*
X249798Y449971D02*
X259128D01*
X249798Y459301D01*
Y461633D01*
X252130Y463966D01*
X256796D01*
X259128Y461633D01*
X235802Y463966D02*
X245133D01*
Y456968D01*
X240467D01*
X245133D01*
Y449971D01*
X231137Y461633D02*
X228805Y463966D01*
X224139D01*
X221807Y461633D01*
Y452303D01*
X224139Y449971D01*
X228805D01*
X231137Y452303D01*
Y461633D01*
X217142D02*
X214809Y463966D01*
X210144D01*
X207811Y461633D01*
Y459301D01*
X210144Y456968D01*
X212477D01*
X210144D01*
X207811Y454636D01*
Y452303D01*
X210144Y449971D01*
X214809D01*
X217142Y452303D01*
X203146Y461633D02*
X200814Y463966D01*
X196148D01*
X193816Y461633D01*
Y452303D01*
X196148Y449971D01*
X200814D01*
X203146Y452303D01*
Y461633D01*
X179820Y463966D02*
X189151D01*
Y456968D01*
X184486D01*
X189151D01*
Y449971D01*
X168158D02*
Y463966D01*
X175155Y456968D01*
X165825D01*
X161160Y449971D02*
Y463966D01*
X154162D01*
X151830Y461633D01*
Y456968D01*
X154162Y454636D01*
X161160D01*
X137834Y463966D02*
X142499Y461633D01*
X147164Y456968D01*
Y452303D01*
X144832Y449971D01*
X140167D01*
X137834Y452303D01*
Y454636D01*
X140167Y456968D01*
X147164D01*
X305780Y427080D02*
X315110D01*
X305780Y436410D01*
Y438743D01*
X308112Y441076D01*
X312777D01*
X315110Y438743D01*
X301115D02*
X298782Y441076D01*
X294117D01*
X291784Y438743D01*
Y429413D01*
X294117Y427080D01*
X298782D01*
X301115Y429413D01*
Y438743D01*
X287119Y427080D02*
X282454D01*
X284786D01*
Y441076D01*
X287119Y438743D01*
X275456Y429413D02*
X273124Y427080D01*
X268458D01*
X266126Y429413D01*
Y438743D01*
X268458Y441076D01*
X273124D01*
X275456Y438743D01*
Y436410D01*
X273124Y434078D01*
X266126D01*
X261461Y427080D02*
Y429413D01*
X259128D01*
Y427080D01*
X261461D01*
X240467D02*
X249798D01*
X240467Y436410D01*
Y438743D01*
X242800Y441076D01*
X247465D01*
X249798Y438743D01*
X235802Y427080D02*
Y429413D01*
X233470D01*
Y427080D01*
X235802D01*
X224139D02*
X219474D01*
X221807D01*
Y441076D01*
X224139Y438743D01*
X203146Y427080D02*
X212477D01*
X203146Y436410D01*
Y438743D01*
X205479Y441076D01*
X210144D01*
X212477Y438743D01*
X558114Y523600D02*
X569110D01*
Y518102D01*
X567277Y516269D01*
X565444D01*
X563612Y518102D01*
Y523600D01*
Y518102D01*
X561779Y516269D01*
X559946D01*
X558114Y518102D01*
Y523600D01*
X569110Y512603D02*
Y508938D01*
Y510771D01*
X558114D01*
X559946Y512603D01*
X594510Y523600D02*
X587179D01*
X583514Y519935D01*
X587179Y516269D01*
X594510D01*
X589012D01*
Y523600D01*
X583514Y512603D02*
Y505273D01*
X585346D01*
X592677Y512603D01*
X594510D01*
X619910Y523600D02*
X612579D01*
X608914Y519935D01*
X612579Y516269D01*
X619910D01*
X614412D01*
Y523600D01*
X608914Y505273D02*
X610746Y508938D01*
X614412Y512603D01*
X618077D01*
X619910Y510771D01*
Y507105D01*
X618077Y505273D01*
X616245D01*
X614412Y507105D01*
Y512603D01*
X645310Y523600D02*
X637979D01*
X634314Y519935D01*
X637979Y516269D01*
X645310D01*
X639812D01*
Y523600D01*
X634314Y505273D02*
Y512603D01*
X639812D01*
X637979Y508938D01*
Y507105D01*
X639812Y505273D01*
X643477D01*
X645310Y507105D01*
Y510771D01*
X643477Y512603D01*
X534546Y516269D02*
X532714Y518102D01*
Y521767D01*
X534546Y523600D01*
X541877D01*
X543710Y521767D01*
Y518102D01*
X541877Y516269D01*
X538212D01*
Y519935D01*
X509146Y523600D02*
X507314Y521767D01*
Y518102D01*
X509146Y516269D01*
X510979D01*
X512812Y518102D01*
Y519935D01*
Y518102D01*
X514645Y516269D01*
X516477D01*
X518310Y518102D01*
Y521767D01*
X516477Y523600D01*
X518310Y512603D02*
X516477D01*
Y510771D01*
X518310D01*
Y512603D01*
X509146Y503440D02*
X507314Y501607D01*
Y497942D01*
X509146Y496109D01*
X510979D01*
X512812Y497942D01*
Y499774D01*
Y497942D01*
X514645Y496109D01*
X516477D01*
X518310Y497942D01*
Y501607D01*
X516477Y503440D01*
X507314Y492443D02*
X514645D01*
X518310Y488778D01*
X514645Y485112D01*
X507314D01*
X492910Y523600D02*
X485579D01*
X481914Y519935D01*
X485579Y516269D01*
X492910D01*
X487412D01*
Y523600D01*
X491077Y512603D02*
X492910Y510771D01*
Y507105D01*
X491077Y505273D01*
X483746D01*
X481914Y507105D01*
Y510771D01*
X483746Y512603D01*
X485579D01*
X487412Y510771D01*
Y505273D01*
X467510Y523600D02*
X460179D01*
X456514Y519935D01*
X460179Y516269D01*
X467510D01*
X462012D01*
Y523600D01*
X467510Y512603D02*
Y508938D01*
Y510771D01*
X456514D01*
X458346Y512603D01*
Y503440D02*
X456514Y501607D01*
Y497942D01*
X458346Y496109D01*
X465677D01*
X467510Y497942D01*
Y501607D01*
X465677Y503440D01*
X458346D01*
X442110Y523600D02*
X434779D01*
X431114Y519935D01*
X434779Y516269D01*
X442110D01*
X436612D01*
Y523600D01*
X442110Y512603D02*
Y508938D01*
Y510771D01*
X431114D01*
X432946Y512603D01*
Y503440D02*
X431114Y501607D01*
Y497942D01*
X432946Y496109D01*
X434779D01*
X436612Y497942D01*
Y499774D01*
Y497942D01*
X438445Y496109D01*
X440277D01*
X442110Y497942D01*
Y501607D01*
X440277Y503440D01*
X416710Y523600D02*
X409379D01*
X405714Y519935D01*
X409379Y516269D01*
X416710D01*
X411212D01*
Y523600D01*
X416710Y512603D02*
Y508938D01*
Y510771D01*
X405714D01*
X407546Y512603D01*
X416710Y497942D02*
X405714D01*
X411212Y503440D01*
Y496109D01*
X431114Y337199D02*
Y344530D01*
X436612D01*
Y340864D01*
Y344530D01*
X442110D01*
X432946Y333534D02*
X431114Y331701D01*
Y328035D01*
X432946Y326203D01*
X440277D01*
X442110Y328035D01*
Y331701D01*
X440277Y333534D01*
X432946D01*
X456514Y337199D02*
Y344530D01*
X462012D01*
Y340864D01*
Y344530D01*
X467510D01*
Y333534D02*
Y329868D01*
Y331701D01*
X456514D01*
X458346Y333534D01*
X405714Y344530D02*
X416710D01*
Y339032D01*
X414877Y337199D01*
X413045D01*
X411212Y339032D01*
Y344530D01*
Y339032D01*
X409379Y337199D01*
X407546D01*
X405714Y339032D01*
Y344530D01*
X416710Y331701D02*
Y328035D01*
X414877Y326203D01*
X411212D01*
X409379Y328035D01*
Y331701D01*
X411212Y333534D01*
X414877D01*
X416710Y331701D01*
X492910Y358500D02*
X481914D01*
Y353002D01*
X483746Y351169D01*
X487412D01*
X489244Y353002D01*
Y358500D01*
Y354835D02*
X492910Y351169D01*
X483746Y340173D02*
X481914Y342005D01*
Y345671D01*
X483746Y347504D01*
X485579D01*
X487412Y345671D01*
Y342005D01*
X489244Y340173D01*
X491077D01*
X492910Y342005D01*
Y345671D01*
X491077Y347504D01*
X481914Y336507D02*
Y329176D01*
Y332842D01*
X492910D01*
X507314Y358500D02*
X514645D01*
X518310Y354835D01*
X514645Y351169D01*
X507314D01*
Y347504D02*
X518310D01*
Y342005D01*
X516477Y340173D01*
X509146D01*
X507314Y342005D01*
Y347504D01*
X518310Y336507D02*
X510979D01*
X507314Y332842D01*
X510979Y329176D01*
X518310D01*
X512812D01*
Y336507D01*
X543710Y348340D02*
X536379D01*
X532714Y344674D01*
X536379Y341009D01*
X543710D01*
X538212D01*
Y348340D01*
X534546Y337343D02*
X532714Y335511D01*
Y331845D01*
X534546Y330013D01*
X541877D01*
X543710Y331845D01*
Y335511D01*
X541877Y337343D01*
X534546D01*
X569110Y348340D02*
X561779D01*
X558114Y344674D01*
X561779Y341009D01*
X569110D01*
X563612D01*
Y348340D01*
X569110Y337343D02*
Y333678D01*
Y335511D01*
X558114D01*
X559946Y337343D01*
X594510Y348340D02*
X587179D01*
X583514Y344674D01*
X587179Y341009D01*
X594510D01*
X589012D01*
Y348340D01*
X594510Y330013D02*
Y337343D01*
X587179Y330013D01*
X585346D01*
X583514Y331845D01*
Y335511D01*
X585346Y337343D01*
X619910Y348340D02*
X612579D01*
X608914Y344674D01*
X612579Y341009D01*
X619910D01*
X614412D01*
Y348340D01*
X610746Y337343D02*
X608914Y335511D01*
Y331845D01*
X610746Y330013D01*
X612579D01*
X614412Y331845D01*
Y333678D01*
Y331845D01*
X616245Y330013D01*
X618077D01*
X619910Y331845D01*
Y335511D01*
X618077Y337343D01*
X645310Y348340D02*
X637979D01*
X634314Y344674D01*
X637979Y341009D01*
X645310D01*
X639812D01*
Y348340D01*
X645310Y331845D02*
X634314D01*
X639812Y337343D01*
Y330013D01*
X305780Y756634D02*
X308112Y758966D01*
X312777D01*
X315110Y756634D01*
Y754301D01*
X312777Y751968D01*
X308112D01*
X305780Y749636D01*
Y747303D01*
X308112Y744971D01*
X312777D01*
X315110Y747303D01*
X301115Y758966D02*
X291784D01*
X296449D01*
Y744971D01*
X287119D02*
Y758966D01*
X282454Y754301D01*
X277789Y758966D01*
Y744971D01*
X273124Y756634D02*
X270791Y758966D01*
X266126D01*
X263793Y756634D01*
Y754301D01*
X266126Y751968D01*
X268458D01*
X266126D01*
X263793Y749636D01*
Y747303D01*
X266126Y744971D01*
X270791D01*
X273124Y747303D01*
X249798Y744971D02*
X259128D01*
X249798Y754301D01*
Y756634D01*
X252130Y758966D01*
X256796D01*
X259128Y756634D01*
X235802Y758966D02*
X245133D01*
Y751968D01*
X240467D01*
X245133D01*
Y744971D01*
X231137Y756634D02*
X228805Y758966D01*
X224139D01*
X221807Y756634D01*
Y747303D01*
X224139Y744971D01*
X228805D01*
X231137Y747303D01*
Y756634D01*
X217142D02*
X214809Y758966D01*
X210144D01*
X207811Y756634D01*
Y754301D01*
X210144Y751968D01*
X212477D01*
X210144D01*
X207811Y749636D01*
Y747303D01*
X210144Y744971D01*
X214809D01*
X217142Y747303D01*
X203146Y756634D02*
X200814Y758966D01*
X196148D01*
X193816Y756634D01*
Y747303D01*
X196148Y744971D01*
X200814D01*
X203146Y747303D01*
Y756634D01*
X179820Y758966D02*
X189151D01*
Y751968D01*
X184486D01*
X189151D01*
Y744971D01*
X168158D02*
Y758966D01*
X175155Y751968D01*
X165825D01*
X161160Y744971D02*
Y758966D01*
X154162D01*
X151830Y756634D01*
Y751968D01*
X154162Y749636D01*
X161160D01*
X137834Y758966D02*
X142499Y756634D01*
X147164Y751968D01*
Y747303D01*
X144832Y744971D01*
X140167D01*
X137834Y747303D01*
Y749636D01*
X140167Y751968D01*
X147164D01*
X305780Y722080D02*
X315110D01*
X305780Y731410D01*
Y733743D01*
X308112Y736076D01*
X312777D01*
X315110Y733743D01*
X301115D02*
X298782Y736076D01*
X294117D01*
X291784Y733743D01*
Y724413D01*
X294117Y722080D01*
X298782D01*
X301115Y724413D01*
Y733743D01*
X287119Y722080D02*
X282454D01*
X284786D01*
Y736076D01*
X287119Y733743D01*
X275456Y724413D02*
X273124Y722080D01*
X268458D01*
X266126Y724413D01*
Y733743D01*
X268458Y736076D01*
X273124D01*
X275456Y733743D01*
Y731410D01*
X273124Y729078D01*
X266126D01*
X261461Y722080D02*
Y724413D01*
X259128D01*
Y722080D01*
X261461D01*
X240467D02*
X249798D01*
X240467Y731410D01*
Y733743D01*
X242800Y736076D01*
X247465D01*
X249798Y733743D01*
X235802Y722080D02*
Y724413D01*
X233470D01*
Y722080D01*
X235802D01*
X224139D02*
X219474D01*
X221807D01*
Y736076D01*
X224139Y733743D01*
X203146Y722080D02*
X212477D01*
X203146Y731410D01*
Y733743D01*
X205479Y736076D01*
X210144D01*
X212477Y733743D01*
X558114Y818600D02*
X569110D01*
Y813102D01*
X567277Y811269D01*
X565444D01*
X563612Y813102D01*
Y818600D01*
Y813102D01*
X561779Y811269D01*
X559946D01*
X558114Y813102D01*
Y818600D01*
X569110Y807604D02*
Y803938D01*
Y805771D01*
X558114D01*
X559946Y807604D01*
X594510Y818600D02*
X587179D01*
X583514Y814934D01*
X587179Y811269D01*
X594510D01*
X589012D01*
Y818600D01*
X583514Y807604D02*
Y800273D01*
X585346D01*
X592677Y807604D01*
X594510D01*
X619910Y818600D02*
X612579D01*
X608914Y814934D01*
X612579Y811269D01*
X619910D01*
X614412D01*
Y818600D01*
X608914Y800273D02*
X610746Y803938D01*
X614412Y807604D01*
X618077D01*
X619910Y805771D01*
Y802105D01*
X618077Y800273D01*
X616245D01*
X614412Y802105D01*
Y807604D01*
X645310Y818600D02*
X637979D01*
X634314Y814934D01*
X637979Y811269D01*
X645310D01*
X639812D01*
Y818600D01*
X634314Y800273D02*
Y807604D01*
X639812D01*
X637979Y803938D01*
Y802105D01*
X639812Y800273D01*
X643477D01*
X645310Y802105D01*
Y805771D01*
X643477Y807604D01*
X534546Y811269D02*
X532714Y813102D01*
Y816767D01*
X534546Y818600D01*
X541877D01*
X543710Y816767D01*
Y813102D01*
X541877Y811269D01*
X538212D01*
Y814934D01*
X509146Y818600D02*
X507314Y816767D01*
Y813102D01*
X509146Y811269D01*
X510979D01*
X512812Y813102D01*
Y814934D01*
Y813102D01*
X514645Y811269D01*
X516477D01*
X518310Y813102D01*
Y816767D01*
X516477Y818600D01*
X518310Y807604D02*
X516477D01*
Y805771D01*
X518310D01*
Y807604D01*
X509146Y798440D02*
X507314Y796607D01*
Y792942D01*
X509146Y791109D01*
X510979D01*
X512812Y792942D01*
Y794774D01*
Y792942D01*
X514645Y791109D01*
X516477D01*
X518310Y792942D01*
Y796607D01*
X516477Y798440D01*
X507314Y787443D02*
X514645D01*
X518310Y783778D01*
X514645Y780112D01*
X507314D01*
X492910Y818600D02*
X485579D01*
X481914Y814934D01*
X485579Y811269D01*
X492910D01*
X487412D01*
Y818600D01*
X491077Y807604D02*
X492910Y805771D01*
Y802105D01*
X491077Y800273D01*
X483746D01*
X481914Y802105D01*
Y805771D01*
X483746Y807604D01*
X485579D01*
X487412Y805771D01*
Y800273D01*
X467510Y818600D02*
X460179D01*
X456514Y814934D01*
X460179Y811269D01*
X467510D01*
X462012D01*
Y818600D01*
X467510Y807604D02*
Y803938D01*
Y805771D01*
X456514D01*
X458346Y807604D01*
Y798440D02*
X456514Y796607D01*
Y792942D01*
X458346Y791109D01*
X465677D01*
X467510Y792942D01*
Y796607D01*
X465677Y798440D01*
X458346D01*
X442110Y818600D02*
X434779D01*
X431114Y814934D01*
X434779Y811269D01*
X442110D01*
X436612D01*
Y818600D01*
X442110Y807604D02*
Y803938D01*
Y805771D01*
X431114D01*
X432946Y807604D01*
Y798440D02*
X431114Y796607D01*
Y792942D01*
X432946Y791109D01*
X434779D01*
X436612Y792942D01*
Y794774D01*
Y792942D01*
X438445Y791109D01*
X440277D01*
X442110Y792942D01*
Y796607D01*
X440277Y798440D01*
X416710Y818600D02*
X409379D01*
X405714Y814934D01*
X409379Y811269D01*
X416710D01*
X411212D01*
Y818600D01*
X416710Y807604D02*
Y803938D01*
Y805771D01*
X405714D01*
X407546Y807604D01*
X416710Y792942D02*
X405714D01*
X411212Y798440D01*
Y791109D01*
X431114Y632199D02*
Y639530D01*
X436612D01*
Y635864D01*
Y639530D01*
X442110D01*
X432946Y628534D02*
X431114Y626701D01*
Y623035D01*
X432946Y621203D01*
X440277D01*
X442110Y623035D01*
Y626701D01*
X440277Y628534D01*
X432946D01*
X456514Y632199D02*
Y639530D01*
X462012D01*
Y635864D01*
Y639530D01*
X467510D01*
Y628534D02*
Y624868D01*
Y626701D01*
X456514D01*
X458346Y628534D01*
X405714Y639530D02*
X416710D01*
Y634032D01*
X414877Y632199D01*
X413045D01*
X411212Y634032D01*
Y639530D01*
Y634032D01*
X409379Y632199D01*
X407546D01*
X405714Y634032D01*
Y639530D01*
X416710Y626701D02*
Y623035D01*
X414877Y621203D01*
X411212D01*
X409379Y623035D01*
Y626701D01*
X411212Y628534D01*
X414877D01*
X416710Y626701D01*
X492910Y653500D02*
X481914D01*
Y648002D01*
X483746Y646169D01*
X487412D01*
X489244Y648002D01*
Y653500D01*
Y649835D02*
X492910Y646169D01*
X483746Y635173D02*
X481914Y637005D01*
Y640671D01*
X483746Y642504D01*
X485579D01*
X487412Y640671D01*
Y637005D01*
X489244Y635173D01*
X491077D01*
X492910Y637005D01*
Y640671D01*
X491077Y642504D01*
X481914Y631507D02*
Y624176D01*
Y627842D01*
X492910D01*
X507314Y653500D02*
X514645D01*
X518310Y649835D01*
X514645Y646169D01*
X507314D01*
Y642504D02*
X518310D01*
Y637005D01*
X516477Y635173D01*
X509146D01*
X507314Y637005D01*
Y642504D01*
X518310Y631507D02*
X510979D01*
X507314Y627842D01*
X510979Y624176D01*
X518310D01*
X512812D01*
Y631507D01*
X543710Y643340D02*
X536379D01*
X532714Y639674D01*
X536379Y636009D01*
X543710D01*
X538212D01*
Y643340D01*
X534546Y632343D02*
X532714Y630511D01*
Y626845D01*
X534546Y625013D01*
X541877D01*
X543710Y626845D01*
Y630511D01*
X541877Y632343D01*
X534546D01*
X569110Y643340D02*
X561779D01*
X558114Y639674D01*
X561779Y636009D01*
X569110D01*
X563612D01*
Y643340D01*
X569110Y632343D02*
Y628678D01*
Y630511D01*
X558114D01*
X559946Y632343D01*
X594510Y643340D02*
X587179D01*
X583514Y639674D01*
X587179Y636009D01*
X594510D01*
X589012D01*
Y643340D01*
X594510Y625013D02*
Y632343D01*
X587179Y625013D01*
X585346D01*
X583514Y626845D01*
Y630511D01*
X585346Y632343D01*
X619910Y643340D02*
X612579D01*
X608914Y639674D01*
X612579Y636009D01*
X619910D01*
X614412D01*
Y643340D01*
X610746Y632343D02*
X608914Y630511D01*
Y626845D01*
X610746Y625013D01*
X612579D01*
X614412Y626845D01*
Y628678D01*
Y626845D01*
X616245Y625013D01*
X618077D01*
X619910Y626845D01*
Y630511D01*
X618077Y632343D01*
X645310Y643340D02*
X637979D01*
X634314Y639674D01*
X637979Y636009D01*
X645310D01*
X639812D01*
Y643340D01*
X645310Y626845D02*
X634314D01*
X639812Y632343D01*
Y625013D01*
M02*
