G04 Layer_Color=8388736*
%FSLAX44Y44*%
%MOMM*%
G71*
G01*
G75*
%ADD37R,1.9304X1.0160*%
%ADD38C,2.0000*%
%ADD39R,1.4032X1.8332*%
%ADD40R,1.2032X1.2032*%
%ADD41R,0.6032X1.0032*%
%ADD42R,1.8332X1.4032*%
%ADD43R,2.2032X0.8032*%
%ADD44O,2.2032X0.8032*%
%ADD45R,2.2032X2.2032*%
%ADD46R,1.7032X1.4032*%
%ADD47R,2.0032X1.7032*%
%ADD48R,2.2032X3.4032*%
%ADD49R,1.2032X1.2032*%
%ADD50O,0.5032X1.7032*%
%ADD51C,4.2032*%
%ADD52C,2.2032*%
%ADD53R,2.2032X2.2032*%
%ADD54O,2.2032X1.7272*%
%ADD55C,1.2032*%
%ADD56O,4.2032X2.2032*%
D37*
X326032Y146050D02*
D03*
X325778Y132080D02*
D03*
X326032Y441050D02*
D03*
X325778Y427080D02*
D03*
X326032Y736050D02*
D03*
X325778Y722080D02*
D03*
D38*
X34000Y68500D02*
D03*
X696000Y786500D02*
D03*
X34000D02*
D03*
X696000Y68500D02*
D03*
D39*
X555480Y180340D02*
D03*
X534480D02*
D03*
X168720Y87630D02*
D03*
X189720D02*
D03*
X555480Y157480D02*
D03*
X534480D02*
D03*
X168720Y156210D02*
D03*
X189720D02*
D03*
X168720Y133350D02*
D03*
X189720D02*
D03*
Y110490D02*
D03*
X168720D02*
D03*
Y179070D02*
D03*
X189720D02*
D03*
X371920Y198120D02*
D03*
X392920D02*
D03*
X168720Y64770D02*
D03*
X189720D02*
D03*
X296990Y17780D02*
D03*
X317990D02*
D03*
X392920Y127000D02*
D03*
X371920D02*
D03*
X555480Y134620D02*
D03*
X534480D02*
D03*
X555480Y475340D02*
D03*
X534480D02*
D03*
X168720Y382630D02*
D03*
X189720D02*
D03*
X555480Y452480D02*
D03*
X534480D02*
D03*
X168720Y451210D02*
D03*
X189720D02*
D03*
X168720Y428350D02*
D03*
X189720D02*
D03*
Y405490D02*
D03*
X168720D02*
D03*
Y474070D02*
D03*
X189720D02*
D03*
X371920Y493120D02*
D03*
X392920D02*
D03*
X168720Y359770D02*
D03*
X189720D02*
D03*
X296990Y312780D02*
D03*
X317990D02*
D03*
X392920Y422000D02*
D03*
X371920D02*
D03*
X555480Y429620D02*
D03*
X534480D02*
D03*
X555480Y770340D02*
D03*
X534480D02*
D03*
X168720Y677630D02*
D03*
X189720D02*
D03*
X555480Y747480D02*
D03*
X534480D02*
D03*
X168720Y746210D02*
D03*
X189720D02*
D03*
X168720Y723350D02*
D03*
X189720D02*
D03*
Y700490D02*
D03*
X168720D02*
D03*
Y769070D02*
D03*
X189720D02*
D03*
X371920Y788120D02*
D03*
X392920D02*
D03*
X168720Y654770D02*
D03*
X189720D02*
D03*
X296990Y607780D02*
D03*
X317990D02*
D03*
X392920Y717000D02*
D03*
X371920D02*
D03*
X555480Y724620D02*
D03*
X534480D02*
D03*
D40*
X251390Y99060D02*
D03*
X269360D02*
D03*
X372040Y218440D02*
D03*
X390010D02*
D03*
X471100Y201930D02*
D03*
X489070D02*
D03*
X535870Y114300D02*
D03*
X553840D02*
D03*
X251390Y394060D02*
D03*
X269360D02*
D03*
X372040Y513440D02*
D03*
X390010D02*
D03*
X471100Y496930D02*
D03*
X489070D02*
D03*
X535870Y409300D02*
D03*
X553840D02*
D03*
X251390Y689060D02*
D03*
X269360D02*
D03*
X372040Y808440D02*
D03*
X390010D02*
D03*
X471100Y791930D02*
D03*
X489070D02*
D03*
X535870Y704300D02*
D03*
X553840D02*
D03*
D41*
X332890Y145796D02*
D03*
X319428D02*
D03*
X332636Y131826D02*
D03*
X319174D02*
D03*
X332890Y440796D02*
D03*
X319428D02*
D03*
X332636Y426826D02*
D03*
X319174D02*
D03*
X332890Y735796D02*
D03*
X319428D02*
D03*
X332636Y721826D02*
D03*
X319174D02*
D03*
D42*
X325270Y58080D02*
D03*
Y79080D02*
D03*
X348130Y37170D02*
D03*
Y16170D02*
D03*
X372260D02*
D03*
Y37170D02*
D03*
X472590Y46650D02*
D03*
Y67650D02*
D03*
X325270Y353080D02*
D03*
Y374080D02*
D03*
X348130Y332170D02*
D03*
Y311170D02*
D03*
X372260D02*
D03*
Y332170D02*
D03*
X472590Y341650D02*
D03*
Y362650D02*
D03*
X325270Y648080D02*
D03*
Y669080D02*
D03*
X348130Y627170D02*
D03*
Y606170D02*
D03*
X372260D02*
D03*
Y627170D02*
D03*
X472590Y636650D02*
D03*
Y657650D02*
D03*
D43*
X287500Y119380D02*
D03*
Y414380D02*
D03*
Y709380D02*
D03*
D44*
Y132080D02*
D03*
Y144780D02*
D03*
Y157480D02*
D03*
X233500Y119380D02*
D03*
Y132080D02*
D03*
Y144780D02*
D03*
Y157480D02*
D03*
X287500Y427080D02*
D03*
Y439780D02*
D03*
Y452480D02*
D03*
X233500Y414380D02*
D03*
Y427080D02*
D03*
Y439780D02*
D03*
Y452480D02*
D03*
X287500Y722080D02*
D03*
Y734780D02*
D03*
Y747480D02*
D03*
X233500Y709380D02*
D03*
Y722080D02*
D03*
Y734780D02*
D03*
Y747480D02*
D03*
D45*
X337330Y189230D02*
D03*
X257330D02*
D03*
X337330Y484230D02*
D03*
X257330D02*
D03*
X337330Y779230D02*
D03*
X257330D02*
D03*
D46*
X373420Y171958D02*
D03*
Y152654D02*
D03*
X396026D02*
D03*
Y171958D02*
D03*
X373420Y466958D02*
D03*
Y447654D02*
D03*
X396026D02*
D03*
Y466958D02*
D03*
X373420Y761958D02*
D03*
Y742654D02*
D03*
X396026D02*
D03*
Y761958D02*
D03*
D47*
X270450Y78880D02*
D03*
Y55880D02*
D03*
Y32880D02*
D03*
Y373880D02*
D03*
Y350880D02*
D03*
Y327880D02*
D03*
Y668880D02*
D03*
Y645880D02*
D03*
Y622880D02*
D03*
D48*
X212450Y55880D02*
D03*
Y350880D02*
D03*
Y645880D02*
D03*
D49*
X491640Y66260D02*
D03*
Y48290D02*
D03*
X509420Y66260D02*
D03*
Y48290D02*
D03*
X491640Y361260D02*
D03*
Y343290D02*
D03*
X509420Y361260D02*
D03*
Y343290D02*
D03*
X491640Y656260D02*
D03*
Y638290D02*
D03*
X509420Y656260D02*
D03*
Y638290D02*
D03*
D50*
X447190Y115570D02*
D03*
X453690D02*
D03*
X460190D02*
D03*
X466690D02*
D03*
X473190D02*
D03*
X479690D02*
D03*
X486190D02*
D03*
X492690D02*
D03*
X499190D02*
D03*
X505690D02*
D03*
X447190Y173070D02*
D03*
X453690D02*
D03*
X460190D02*
D03*
X466690D02*
D03*
X473190D02*
D03*
X479690D02*
D03*
X486190D02*
D03*
X492690D02*
D03*
X499190D02*
D03*
X505690D02*
D03*
X447190Y410570D02*
D03*
X453690D02*
D03*
X460190D02*
D03*
X466690D02*
D03*
X473190D02*
D03*
X479690D02*
D03*
X486190D02*
D03*
X492690D02*
D03*
X499190D02*
D03*
X505690D02*
D03*
X447190Y468070D02*
D03*
X453690D02*
D03*
X460190D02*
D03*
X466690D02*
D03*
X473190D02*
D03*
X479690D02*
D03*
X486190D02*
D03*
X492690D02*
D03*
X499190D02*
D03*
X505690D02*
D03*
X447190Y705570D02*
D03*
X453690D02*
D03*
X460190D02*
D03*
X466690D02*
D03*
X473190D02*
D03*
X479690D02*
D03*
X486190D02*
D03*
X492690D02*
D03*
X499190D02*
D03*
X505690D02*
D03*
X447190Y763070D02*
D03*
X453690D02*
D03*
X460190D02*
D03*
X466690D02*
D03*
X473190D02*
D03*
X479690D02*
D03*
X486190D02*
D03*
X492690D02*
D03*
X499190D02*
D03*
X505690D02*
D03*
D51*
X34000Y30500D02*
D03*
X696000Y824500D02*
D03*
X34000D02*
D03*
X696000Y30500D02*
D03*
X100000Y236700D02*
D03*
Y30000D02*
D03*
Y531700D02*
D03*
Y325000D02*
D03*
Y826700D02*
D03*
Y620000D02*
D03*
D52*
X402232Y61976D02*
D03*
Y87376D02*
D03*
X437030Y246380D02*
D03*
X462430D02*
D03*
X487830D02*
D03*
X513230D02*
D03*
X538630D02*
D03*
X564030D02*
D03*
X589430D02*
D03*
X614830D02*
D03*
X640230D02*
D03*
X437030Y17780D02*
D03*
X462430D02*
D03*
X487830D02*
D03*
X513230D02*
D03*
X538630D02*
D03*
X564030D02*
D03*
X589430D02*
D03*
X614830D02*
D03*
X640230D02*
D03*
X638960Y193040D02*
D03*
Y167640D02*
D03*
Y66040D02*
D03*
Y91440D02*
D03*
Y116840D02*
D03*
Y142240D02*
D03*
X402232Y356976D02*
D03*
Y382376D02*
D03*
X437030Y541380D02*
D03*
X462430D02*
D03*
X487830D02*
D03*
X513230D02*
D03*
X538630D02*
D03*
X564030D02*
D03*
X589430D02*
D03*
X614830D02*
D03*
X640230D02*
D03*
X437030Y312780D02*
D03*
X462430D02*
D03*
X487830D02*
D03*
X513230D02*
D03*
X538630D02*
D03*
X564030D02*
D03*
X589430D02*
D03*
X614830D02*
D03*
X640230D02*
D03*
X638960Y488040D02*
D03*
Y462640D02*
D03*
Y361040D02*
D03*
Y386440D02*
D03*
Y411840D02*
D03*
Y437240D02*
D03*
X402232Y651976D02*
D03*
Y677376D02*
D03*
X437030Y836380D02*
D03*
X462430D02*
D03*
X487830D02*
D03*
X513230D02*
D03*
X538630D02*
D03*
X564030D02*
D03*
X589430D02*
D03*
X614830D02*
D03*
X640230D02*
D03*
X437030Y607780D02*
D03*
X462430D02*
D03*
X487830D02*
D03*
X513230D02*
D03*
X538630D02*
D03*
X564030D02*
D03*
X589430D02*
D03*
X614830D02*
D03*
X640230D02*
D03*
X638960Y783040D02*
D03*
Y757640D02*
D03*
Y656040D02*
D03*
Y681440D02*
D03*
Y706840D02*
D03*
Y732240D02*
D03*
D53*
X411630Y246380D02*
D03*
Y17780D02*
D03*
Y541380D02*
D03*
Y312780D02*
D03*
Y836380D02*
D03*
Y607780D02*
D03*
D54*
X113020Y165997D02*
D03*
Y100997D02*
D03*
Y143497D02*
D03*
Y123497D02*
D03*
Y460997D02*
D03*
Y395997D02*
D03*
Y438497D02*
D03*
Y418497D02*
D03*
Y755997D02*
D03*
Y690997D02*
D03*
Y733497D02*
D03*
Y713497D02*
D03*
D55*
X93020Y110997D02*
D03*
Y158697D02*
D03*
Y405997D02*
D03*
Y453697D02*
D03*
Y700997D02*
D03*
Y748697D02*
D03*
D56*
Y75350D02*
D03*
Y191350D02*
D03*
Y370350D02*
D03*
Y486350D02*
D03*
Y665350D02*
D03*
Y781350D02*
D03*
M02*
