G04 Layer_Color=2752767*
%FSLAX44Y44*%
%MOMM*%
G71*
G01*
G75*
%ADD57C,0.0508*%
%ADD58C,0.0677*%
D57*
X31968Y28468D02*
Y32532D01*
X36032D01*
Y28468D01*
X31968D01*
X693968Y822468D02*
Y826532D01*
X698032D01*
Y822468D01*
X693968D01*
X31968D02*
Y826532D01*
X36032D01*
Y822468D01*
X31968D01*
X693968Y28468D02*
Y32532D01*
X698032D01*
Y28468D01*
X693968D01*
X97968Y234668D02*
Y238732D01*
X102032D01*
Y234668D01*
X97968D01*
Y27968D02*
Y32032D01*
X102032D01*
Y27968D01*
X97968D01*
X113020Y163965D02*
X110988Y168029D01*
X115052D01*
X113020Y163965D01*
Y98965D02*
X110988Y103029D01*
X115052D01*
X113020Y98965D01*
Y141465D02*
X110988Y145529D01*
X115052D01*
X113020Y141465D01*
Y121465D02*
X110988Y125529D01*
X115052D01*
X113020Y121465D01*
X93020Y108965D02*
X94036Y109981D01*
X95052D01*
X94036Y110997D01*
X95052Y112013D01*
X94036D01*
X93020Y113029D01*
X92004Y112013D01*
X90988D01*
X92004Y110997D01*
X90988Y109981D01*
X92004D01*
X93020Y108965D01*
Y156665D02*
X94036Y157681D01*
X95052D01*
X94036Y158697D01*
X95052Y159713D01*
X94036D01*
X93020Y160729D01*
X92004Y159713D01*
X90988D01*
X92004Y158697D01*
X90988Y157681D01*
X92004D01*
X93020Y156665D01*
X90988Y73318D02*
X92004Y75350D01*
X90988Y77382D01*
X93020Y76366D01*
X95052Y77382D01*
X94036Y75350D01*
X95052Y73318D01*
X93020Y74334D01*
X90988Y73318D01*
Y189318D02*
X92004Y191350D01*
X90988Y193382D01*
X93020Y192366D01*
X95052Y193382D01*
X94036Y191350D01*
X95052Y189318D01*
X93020Y190334D01*
X90988Y189318D01*
X455064Y45974D02*
Y44958D01*
X457096D01*
Y45974D01*
X458112D01*
Y48006D01*
X457096D01*
Y49022D01*
X455064D01*
Y48006D01*
X454048D01*
Y45974D01*
X455064D01*
X499514Y34544D02*
Y33528D01*
X501546D01*
Y34544D01*
X502562D01*
Y36576D01*
X501546D01*
Y37592D01*
X499514D01*
Y36576D01*
X498498D01*
Y34544D01*
X499514D01*
X291234Y54864D02*
Y53848D01*
X293266D01*
Y54864D01*
X294282D01*
Y56896D01*
X293266D01*
Y57912D01*
X291234D01*
Y56896D01*
X290218D01*
Y54864D01*
X291234D01*
X430934Y109474D02*
Y108458D01*
X432966D01*
Y109474D01*
X433982D01*
Y111506D01*
X432966D01*
Y112522D01*
X430934D01*
Y111506D01*
X429918D01*
Y109474D01*
X430934D01*
X429664Y147574D02*
Y146558D01*
X431696D01*
Y147574D01*
X432712D01*
Y149606D01*
X431696D01*
Y150622D01*
X429664D01*
Y149606D01*
X428648D01*
Y147574D01*
X429664D01*
X331874Y161544D02*
Y160528D01*
X333906D01*
Y161544D01*
X334922D01*
Y163576D01*
X333906D01*
Y164592D01*
X331874D01*
Y163576D01*
X330858D01*
Y161544D01*
X331874D01*
Y114554D02*
Y113538D01*
X333906D01*
Y114554D01*
X334922D01*
Y116586D01*
X333906D01*
Y117602D01*
X331874D01*
Y116586D01*
X330858D01*
Y114554D01*
X331874D01*
X290599Y98044D02*
Y97028D01*
X292631D01*
Y98044D01*
X293647D01*
Y100076D01*
X292631D01*
Y101092D01*
X290599D01*
Y100076D01*
X289583D01*
Y98044D01*
X290599D01*
X587144Y195834D02*
Y194818D01*
X589176D01*
Y195834D01*
X590192D01*
Y197866D01*
X589176D01*
Y198882D01*
X587144D01*
Y197866D01*
X586128D01*
Y195834D01*
X587144D01*
X462684Y219964D02*
Y218948D01*
X464716D01*
Y219964D01*
X465732D01*
Y221996D01*
X464716D01*
Y223012D01*
X462684D01*
Y221996D01*
X461668D01*
Y219964D01*
X462684D01*
X447444Y204724D02*
Y203708D01*
X449476D01*
Y204724D01*
X450492D01*
Y206756D01*
X449476D01*
Y207772D01*
X447444D01*
Y206756D01*
X446428D01*
Y204724D01*
X447444D01*
X284884Y54864D02*
Y53848D01*
X286916D01*
Y54864D01*
X287932D01*
Y56896D01*
X286916D01*
Y57912D01*
X284884D01*
Y56896D01*
X283868D01*
Y54864D01*
X284884D01*
X356004Y157734D02*
Y156718D01*
X358036D01*
Y157734D01*
X359052D01*
Y159766D01*
X358036D01*
Y160782D01*
X356004D01*
Y159766D01*
X354988D01*
Y157734D01*
X356004D01*
X507134Y216154D02*
Y215138D01*
X509166D01*
Y216154D01*
X510182D01*
Y218186D01*
X509166D01*
Y219202D01*
X507134D01*
Y218186D01*
X506118D01*
Y216154D01*
X507134D01*
X389024Y225044D02*
Y224028D01*
X391056D01*
Y225044D01*
X392072D01*
Y227076D01*
X391056D01*
Y228092D01*
X389024D01*
Y227076D01*
X388008D01*
Y225044D01*
X389024D01*
X479194Y189484D02*
Y188468D01*
X481226D01*
Y189484D01*
X482242D01*
Y191516D01*
X481226D01*
Y192532D01*
X479194D01*
Y191516D01*
X478178D01*
Y189484D01*
X479194D01*
X436014Y147574D02*
Y146558D01*
X438046D01*
Y147574D01*
X439062D01*
Y149606D01*
X438046D01*
Y150622D01*
X436014D01*
Y149606D01*
X434998D01*
Y147574D01*
X436014D01*
X458874Y81534D02*
Y80518D01*
X460906D01*
Y81534D01*
X461922D01*
Y83566D01*
X460906D01*
Y84582D01*
X458874D01*
Y83566D01*
X457858D01*
Y81534D01*
X458874D01*
X277264Y12954D02*
Y11938D01*
X279296D01*
Y12954D01*
X280312D01*
Y14986D01*
X279296D01*
Y16002D01*
X277264D01*
Y14986D01*
X276248D01*
Y12954D01*
X277264D01*
X100954Y57004D02*
Y55988D01*
X102986D01*
Y57004D01*
X104002D01*
Y59036D01*
X102986D01*
Y60052D01*
X100954D01*
Y59036D01*
X99938D01*
Y57004D01*
X100954D01*
Y207004D02*
Y205988D01*
X102986D01*
Y207004D01*
X104002D01*
Y209036D01*
X102986D01*
Y210052D01*
X100954D01*
Y209036D01*
X99938D01*
Y207004D01*
X100954D01*
X130954Y27004D02*
Y25988D01*
X132986D01*
Y27004D01*
X134002D01*
Y29036D01*
X132986D01*
Y30052D01*
X130954D01*
Y29036D01*
X129938D01*
Y27004D01*
X130954D01*
Y57004D02*
Y55988D01*
X132986D01*
Y57004D01*
X134002D01*
Y59036D01*
X132986D01*
Y60052D01*
X130954D01*
Y59036D01*
X129938D01*
Y57004D01*
X130954D01*
Y87004D02*
Y85988D01*
X132986D01*
Y87004D01*
X134002D01*
Y89036D01*
X132986D01*
Y90052D01*
X130954D01*
Y89036D01*
X129938D01*
Y87004D01*
X130954D01*
Y117004D02*
Y115988D01*
X132986D01*
Y117004D01*
X134002D01*
Y119036D01*
X132986D01*
Y120052D01*
X130954D01*
Y119036D01*
X129938D01*
Y117004D01*
X130954D01*
Y177004D02*
Y175988D01*
X132986D01*
Y177004D01*
X134002D01*
Y179036D01*
X132986D01*
Y180052D01*
X130954D01*
Y179036D01*
X129938D01*
Y177004D01*
X130954D01*
Y207004D02*
Y205988D01*
X132986D01*
Y207004D01*
X134002D01*
Y209036D01*
X132986D01*
Y210052D01*
X130954D01*
Y209036D01*
X129938D01*
Y207004D01*
X130954D01*
Y237004D02*
Y235988D01*
X132986D01*
Y237004D01*
X134002D01*
Y239036D01*
X132986D01*
Y240052D01*
X130954D01*
Y239036D01*
X129938D01*
Y237004D01*
X130954D01*
X160954Y27004D02*
Y25988D01*
X162986D01*
Y27004D01*
X164002D01*
Y29036D01*
X162986D01*
Y30052D01*
X160954D01*
Y29036D01*
X159938D01*
Y27004D01*
X160954D01*
Y207004D02*
Y205988D01*
X162986D01*
Y207004D01*
X164002D01*
Y209036D01*
X162986D01*
Y210052D01*
X160954D01*
Y209036D01*
X159938D01*
Y207004D01*
X160954D01*
Y237004D02*
Y235988D01*
X162986D01*
Y237004D01*
X164002D01*
Y239036D01*
X162986D01*
Y240052D01*
X160954D01*
Y239036D01*
X159938D01*
Y237004D01*
X160954D01*
X190954Y27004D02*
Y25988D01*
X192986D01*
Y27004D01*
X194002D01*
Y29036D01*
X192986D01*
Y30052D01*
X190954D01*
Y29036D01*
X189938D01*
Y27004D01*
X190954D01*
Y207004D02*
Y205988D01*
X192986D01*
Y207004D01*
X194002D01*
Y209036D01*
X192986D01*
Y210052D01*
X190954D01*
Y209036D01*
X189938D01*
Y207004D01*
X190954D01*
Y237004D02*
Y235988D01*
X192986D01*
Y237004D01*
X194002D01*
Y239036D01*
X192986D01*
Y240052D01*
X190954D01*
Y239036D01*
X189938D01*
Y237004D01*
X190954D01*
X220954Y27004D02*
Y25988D01*
X222986D01*
Y27004D01*
X224002D01*
Y29036D01*
X222986D01*
Y30052D01*
X220954D01*
Y29036D01*
X219938D01*
Y27004D01*
X220954D01*
Y207004D02*
Y205988D01*
X222986D01*
Y207004D01*
X224002D01*
Y209036D01*
X222986D01*
Y210052D01*
X220954D01*
Y209036D01*
X219938D01*
Y207004D01*
X220954D01*
Y237004D02*
Y235988D01*
X222986D01*
Y237004D01*
X224002D01*
Y239036D01*
X222986D01*
Y240052D01*
X220954D01*
Y239036D01*
X219938D01*
Y237004D01*
X220954D01*
X250954Y27004D02*
Y25988D01*
X252986D01*
Y27004D01*
X254002D01*
Y29036D01*
X252986D01*
Y30052D01*
X250954D01*
Y29036D01*
X249938D01*
Y27004D01*
X250954D01*
Y57004D02*
Y55988D01*
X252986D01*
Y57004D01*
X254002D01*
Y59036D01*
X252986D01*
Y60052D01*
X250954D01*
Y59036D01*
X249938D01*
Y57004D01*
X250954D01*
Y87004D02*
Y85988D01*
X252986D01*
Y87004D01*
X254002D01*
Y89036D01*
X252986D01*
Y90052D01*
X250954D01*
Y89036D01*
X249938D01*
Y87004D01*
X250954D01*
Y147004D02*
Y145988D01*
X252986D01*
Y147004D01*
X254002D01*
Y149036D01*
X252986D01*
Y150052D01*
X250954D01*
Y149036D01*
X249938D01*
Y147004D01*
X250954D01*
Y207004D02*
Y205988D01*
X252986D01*
Y207004D01*
X254002D01*
Y209036D01*
X252986D01*
Y210052D01*
X250954D01*
Y209036D01*
X249938D01*
Y207004D01*
X250954D01*
Y237004D02*
Y235988D01*
X252986D01*
Y237004D01*
X254002D01*
Y239036D01*
X252986D01*
Y240052D01*
X250954D01*
Y239036D01*
X249938D01*
Y237004D01*
X250954D01*
X280954Y177004D02*
Y175988D01*
X282986D01*
Y177004D01*
X284002D01*
Y179036D01*
X282986D01*
Y180052D01*
X280954D01*
Y179036D01*
X279938D01*
Y177004D01*
X280954D01*
Y207004D02*
Y205988D01*
X282986D01*
Y207004D01*
X284002D01*
Y209036D01*
X282986D01*
Y210052D01*
X280954D01*
Y209036D01*
X279938D01*
Y207004D01*
X280954D01*
Y237004D02*
Y235988D01*
X282986D01*
Y237004D01*
X284002D01*
Y239036D01*
X282986D01*
Y240052D01*
X280954D01*
Y239036D01*
X279938D01*
Y237004D01*
X280954D01*
X310954Y87004D02*
Y85988D01*
X312986D01*
Y87004D01*
X314002D01*
Y89036D01*
X312986D01*
Y90052D01*
X310954D01*
Y89036D01*
X309938D01*
Y87004D01*
X310954D01*
Y117004D02*
Y115988D01*
X312986D01*
Y117004D01*
X314002D01*
Y119036D01*
X312986D01*
Y120052D01*
X310954D01*
Y119036D01*
X309938D01*
Y117004D01*
X310954D01*
Y177004D02*
Y175988D01*
X312986D01*
Y177004D01*
X314002D01*
Y179036D01*
X312986D01*
Y180052D01*
X310954D01*
Y179036D01*
X309938D01*
Y177004D01*
X310954D01*
Y207004D02*
Y205988D01*
X312986D01*
Y207004D01*
X314002D01*
Y209036D01*
X312986D01*
Y210052D01*
X310954D01*
Y209036D01*
X309938D01*
Y207004D01*
X310954D01*
Y237004D02*
Y235988D01*
X312986D01*
Y237004D01*
X314002D01*
Y239036D01*
X312986D01*
Y240052D01*
X310954D01*
Y239036D01*
X309938D01*
Y237004D01*
X310954D01*
X340954Y87004D02*
Y85988D01*
X342986D01*
Y87004D01*
X344002D01*
Y89036D01*
X342986D01*
Y90052D01*
X340954D01*
Y89036D01*
X339938D01*
Y87004D01*
X340954D01*
Y117004D02*
Y115988D01*
X342986D01*
Y117004D01*
X344002D01*
Y119036D01*
X342986D01*
Y120052D01*
X340954D01*
Y119036D01*
X339938D01*
Y117004D01*
X340954D01*
Y207004D02*
Y205988D01*
X342986D01*
Y207004D01*
X344002D01*
Y209036D01*
X342986D01*
Y210052D01*
X340954D01*
Y209036D01*
X339938D01*
Y207004D01*
X340954D01*
Y237004D02*
Y235988D01*
X342986D01*
Y237004D01*
X344002D01*
Y239036D01*
X342986D01*
Y240052D01*
X340954D01*
Y239036D01*
X339938D01*
Y237004D01*
X340954D01*
X370954Y57004D02*
Y55988D01*
X372986D01*
Y57004D01*
X374002D01*
Y59036D01*
X372986D01*
Y60052D01*
X370954D01*
Y59036D01*
X369938D01*
Y57004D01*
X370954D01*
Y237004D02*
Y235988D01*
X372986D01*
Y237004D01*
X374002D01*
Y239036D01*
X372986D01*
Y240052D01*
X370954D01*
Y239036D01*
X369938D01*
Y237004D01*
X370954D01*
X430954Y117004D02*
Y115988D01*
X432986D01*
Y117004D01*
X434002D01*
Y119036D01*
X432986D01*
Y120052D01*
X430954D01*
Y119036D01*
X429938D01*
Y117004D01*
X430954D01*
Y177004D02*
Y175988D01*
X432986D01*
Y177004D01*
X434002D01*
Y179036D01*
X432986D01*
Y180052D01*
X430954D01*
Y179036D01*
X429938D01*
Y177004D01*
X430954D01*
X490954Y147004D02*
Y145988D01*
X492986D01*
Y147004D01*
X494002D01*
Y149036D01*
X492986D01*
Y150052D01*
X490954D01*
Y149036D01*
X489938D01*
Y147004D01*
X490954D01*
X520954Y117004D02*
Y115988D01*
X522986D01*
Y117004D01*
X524002D01*
Y119036D01*
X522986D01*
Y120052D01*
X520954D01*
Y119036D01*
X519938D01*
Y117004D01*
X520954D01*
Y147004D02*
Y145988D01*
X522986D01*
Y147004D01*
X524002D01*
Y149036D01*
X522986D01*
Y150052D01*
X520954D01*
Y149036D01*
X519938D01*
Y147004D01*
X520954D01*
X580954Y117004D02*
Y115988D01*
X582986D01*
Y117004D01*
X584002D01*
Y119036D01*
X582986D01*
Y120052D01*
X580954D01*
Y119036D01*
X579938D01*
Y117004D01*
X580954D01*
Y147004D02*
Y145988D01*
X582986D01*
Y147004D01*
X584002D01*
Y149036D01*
X582986D01*
Y150052D01*
X580954D01*
Y149036D01*
X579938D01*
Y147004D01*
X580954D01*
Y177004D02*
Y175988D01*
X582986D01*
Y177004D01*
X584002D01*
Y179036D01*
X582986D01*
Y180052D01*
X580954D01*
Y179036D01*
X579938D01*
Y177004D01*
X580954D01*
X610954Y57004D02*
Y55988D01*
X612986D01*
Y57004D01*
X614002D01*
Y59036D01*
X612986D01*
Y60052D01*
X610954D01*
Y59036D01*
X609938D01*
Y57004D01*
X610954D01*
Y117004D02*
Y115988D01*
X612986D01*
Y117004D01*
X614002D01*
Y119036D01*
X612986D01*
Y120052D01*
X610954D01*
Y119036D01*
X609938D01*
Y117004D01*
X610954D01*
Y147004D02*
Y145988D01*
X612986D01*
Y147004D01*
X614002D01*
Y149036D01*
X612986D01*
Y150052D01*
X610954D01*
Y149036D01*
X609938D01*
Y147004D01*
X610954D01*
Y177004D02*
Y175988D01*
X612986D01*
Y177004D01*
X614002D01*
Y179036D01*
X612986D01*
Y180052D01*
X610954D01*
Y179036D01*
X609938D01*
Y177004D01*
X610954D01*
Y207004D02*
Y205988D01*
X612986D01*
Y207004D01*
X614002D01*
Y209036D01*
X612986D01*
Y210052D01*
X610954D01*
Y209036D01*
X609938D01*
Y207004D01*
X610954D01*
X97968Y529668D02*
Y533732D01*
X102032D01*
Y529668D01*
X97968D01*
Y322968D02*
Y327032D01*
X102032D01*
Y322968D01*
X97968D01*
X113020Y458965D02*
X110988Y463029D01*
X115052D01*
X113020Y458965D01*
Y393965D02*
X110988Y398029D01*
X115052D01*
X113020Y393965D01*
Y436465D02*
X110988Y440529D01*
X115052D01*
X113020Y436465D01*
Y416465D02*
X110988Y420529D01*
X115052D01*
X113020Y416465D01*
X93020Y403965D02*
X94036Y404981D01*
X95052D01*
X94036Y405997D01*
X95052Y407013D01*
X94036D01*
X93020Y408029D01*
X92004Y407013D01*
X90988D01*
X92004Y405997D01*
X90988Y404981D01*
X92004D01*
X93020Y403965D01*
Y451665D02*
X94036Y452681D01*
X95052D01*
X94036Y453697D01*
X95052Y454713D01*
X94036D01*
X93020Y455729D01*
X92004Y454713D01*
X90988D01*
X92004Y453697D01*
X90988Y452681D01*
X92004D01*
X93020Y451665D01*
X90988Y368318D02*
X92004Y370350D01*
X90988Y372382D01*
X93020Y371366D01*
X95052Y372382D01*
X94036Y370350D01*
X95052Y368318D01*
X93020Y369334D01*
X90988Y368318D01*
Y484318D02*
X92004Y486350D01*
X90988Y488382D01*
X93020Y487366D01*
X95052Y488382D01*
X94036Y486350D01*
X95052Y484318D01*
X93020Y485334D01*
X90988Y484318D01*
X455064Y340974D02*
Y339958D01*
X457096D01*
Y340974D01*
X458112D01*
Y343006D01*
X457096D01*
Y344022D01*
X455064D01*
Y343006D01*
X454048D01*
Y340974D01*
X455064D01*
X499514Y329544D02*
Y328528D01*
X501546D01*
Y329544D01*
X502562D01*
Y331576D01*
X501546D01*
Y332592D01*
X499514D01*
Y331576D01*
X498498D01*
Y329544D01*
X499514D01*
X291234Y349864D02*
Y348848D01*
X293266D01*
Y349864D01*
X294282D01*
Y351896D01*
X293266D01*
Y352912D01*
X291234D01*
Y351896D01*
X290218D01*
Y349864D01*
X291234D01*
X430934Y404474D02*
Y403458D01*
X432966D01*
Y404474D01*
X433982D01*
Y406506D01*
X432966D01*
Y407522D01*
X430934D01*
Y406506D01*
X429918D01*
Y404474D01*
X430934D01*
X429664Y442574D02*
Y441558D01*
X431696D01*
Y442574D01*
X432712D01*
Y444606D01*
X431696D01*
Y445622D01*
X429664D01*
Y444606D01*
X428648D01*
Y442574D01*
X429664D01*
X331874Y456544D02*
Y455528D01*
X333906D01*
Y456544D01*
X334922D01*
Y458576D01*
X333906D01*
Y459592D01*
X331874D01*
Y458576D01*
X330858D01*
Y456544D01*
X331874D01*
Y409554D02*
Y408538D01*
X333906D01*
Y409554D01*
X334922D01*
Y411586D01*
X333906D01*
Y412602D01*
X331874D01*
Y411586D01*
X330858D01*
Y409554D01*
X331874D01*
X290599Y393044D02*
Y392028D01*
X292631D01*
Y393044D01*
X293647D01*
Y395076D01*
X292631D01*
Y396092D01*
X290599D01*
Y395076D01*
X289583D01*
Y393044D01*
X290599D01*
X587144Y490834D02*
Y489818D01*
X589176D01*
Y490834D01*
X590192D01*
Y492866D01*
X589176D01*
Y493882D01*
X587144D01*
Y492866D01*
X586128D01*
Y490834D01*
X587144D01*
X462684Y514964D02*
Y513948D01*
X464716D01*
Y514964D01*
X465732D01*
Y516996D01*
X464716D01*
Y518012D01*
X462684D01*
Y516996D01*
X461668D01*
Y514964D01*
X462684D01*
X447444Y499724D02*
Y498708D01*
X449476D01*
Y499724D01*
X450492D01*
Y501756D01*
X449476D01*
Y502772D01*
X447444D01*
Y501756D01*
X446428D01*
Y499724D01*
X447444D01*
X284884Y349864D02*
Y348848D01*
X286916D01*
Y349864D01*
X287932D01*
Y351896D01*
X286916D01*
Y352912D01*
X284884D01*
Y351896D01*
X283868D01*
Y349864D01*
X284884D01*
X356004Y452734D02*
Y451718D01*
X358036D01*
Y452734D01*
X359052D01*
Y454766D01*
X358036D01*
Y455782D01*
X356004D01*
Y454766D01*
X354988D01*
Y452734D01*
X356004D01*
X507134Y511154D02*
Y510138D01*
X509166D01*
Y511154D01*
X510182D01*
Y513186D01*
X509166D01*
Y514202D01*
X507134D01*
Y513186D01*
X506118D01*
Y511154D01*
X507134D01*
X389024Y520044D02*
Y519028D01*
X391056D01*
Y520044D01*
X392072D01*
Y522076D01*
X391056D01*
Y523092D01*
X389024D01*
Y522076D01*
X388008D01*
Y520044D01*
X389024D01*
X479194Y484484D02*
Y483468D01*
X481226D01*
Y484484D01*
X482242D01*
Y486516D01*
X481226D01*
Y487532D01*
X479194D01*
Y486516D01*
X478178D01*
Y484484D01*
X479194D01*
X436014Y442574D02*
Y441558D01*
X438046D01*
Y442574D01*
X439062D01*
Y444606D01*
X438046D01*
Y445622D01*
X436014D01*
Y444606D01*
X434998D01*
Y442574D01*
X436014D01*
X458874Y376534D02*
Y375518D01*
X460906D01*
Y376534D01*
X461922D01*
Y378566D01*
X460906D01*
Y379582D01*
X458874D01*
Y378566D01*
X457858D01*
Y376534D01*
X458874D01*
X277264Y307954D02*
Y306938D01*
X279296D01*
Y307954D01*
X280312D01*
Y309986D01*
X279296D01*
Y311002D01*
X277264D01*
Y309986D01*
X276248D01*
Y307954D01*
X277264D01*
X100954Y352004D02*
Y350988D01*
X102986D01*
Y352004D01*
X104002D01*
Y354036D01*
X102986D01*
Y355052D01*
X100954D01*
Y354036D01*
X99938D01*
Y352004D01*
X100954D01*
Y502004D02*
Y500988D01*
X102986D01*
Y502004D01*
X104002D01*
Y504036D01*
X102986D01*
Y505052D01*
X100954D01*
Y504036D01*
X99938D01*
Y502004D01*
X100954D01*
X130954Y322004D02*
Y320988D01*
X132986D01*
Y322004D01*
X134002D01*
Y324036D01*
X132986D01*
Y325052D01*
X130954D01*
Y324036D01*
X129938D01*
Y322004D01*
X130954D01*
Y352004D02*
Y350988D01*
X132986D01*
Y352004D01*
X134002D01*
Y354036D01*
X132986D01*
Y355052D01*
X130954D01*
Y354036D01*
X129938D01*
Y352004D01*
X130954D01*
Y382004D02*
Y380988D01*
X132986D01*
Y382004D01*
X134002D01*
Y384036D01*
X132986D01*
Y385052D01*
X130954D01*
Y384036D01*
X129938D01*
Y382004D01*
X130954D01*
Y412004D02*
Y410988D01*
X132986D01*
Y412004D01*
X134002D01*
Y414036D01*
X132986D01*
Y415052D01*
X130954D01*
Y414036D01*
X129938D01*
Y412004D01*
X130954D01*
Y472004D02*
Y470988D01*
X132986D01*
Y472004D01*
X134002D01*
Y474036D01*
X132986D01*
Y475052D01*
X130954D01*
Y474036D01*
X129938D01*
Y472004D01*
X130954D01*
Y502004D02*
Y500988D01*
X132986D01*
Y502004D01*
X134002D01*
Y504036D01*
X132986D01*
Y505052D01*
X130954D01*
Y504036D01*
X129938D01*
Y502004D01*
X130954D01*
Y532004D02*
Y530988D01*
X132986D01*
Y532004D01*
X134002D01*
Y534036D01*
X132986D01*
Y535052D01*
X130954D01*
Y534036D01*
X129938D01*
Y532004D01*
X130954D01*
X160954Y322004D02*
Y320988D01*
X162986D01*
Y322004D01*
X164002D01*
Y324036D01*
X162986D01*
Y325052D01*
X160954D01*
Y324036D01*
X159938D01*
Y322004D01*
X160954D01*
Y502004D02*
Y500988D01*
X162986D01*
Y502004D01*
X164002D01*
Y504036D01*
X162986D01*
Y505052D01*
X160954D01*
Y504036D01*
X159938D01*
Y502004D01*
X160954D01*
Y532004D02*
Y530988D01*
X162986D01*
Y532004D01*
X164002D01*
Y534036D01*
X162986D01*
Y535052D01*
X160954D01*
Y534036D01*
X159938D01*
Y532004D01*
X160954D01*
X190954Y322004D02*
Y320988D01*
X192986D01*
Y322004D01*
X194002D01*
Y324036D01*
X192986D01*
Y325052D01*
X190954D01*
Y324036D01*
X189938D01*
Y322004D01*
X190954D01*
Y502004D02*
Y500988D01*
X192986D01*
Y502004D01*
X194002D01*
Y504036D01*
X192986D01*
Y505052D01*
X190954D01*
Y504036D01*
X189938D01*
Y502004D01*
X190954D01*
Y532004D02*
Y530988D01*
X192986D01*
Y532004D01*
X194002D01*
Y534036D01*
X192986D01*
Y535052D01*
X190954D01*
Y534036D01*
X189938D01*
Y532004D01*
X190954D01*
X220954Y322004D02*
Y320988D01*
X222986D01*
Y322004D01*
X224002D01*
Y324036D01*
X222986D01*
Y325052D01*
X220954D01*
Y324036D01*
X219938D01*
Y322004D01*
X220954D01*
Y502004D02*
Y500988D01*
X222986D01*
Y502004D01*
X224002D01*
Y504036D01*
X222986D01*
Y505052D01*
X220954D01*
Y504036D01*
X219938D01*
Y502004D01*
X220954D01*
Y532004D02*
Y530988D01*
X222986D01*
Y532004D01*
X224002D01*
Y534036D01*
X222986D01*
Y535052D01*
X220954D01*
Y534036D01*
X219938D01*
Y532004D01*
X220954D01*
X250954Y322004D02*
Y320988D01*
X252986D01*
Y322004D01*
X254002D01*
Y324036D01*
X252986D01*
Y325052D01*
X250954D01*
Y324036D01*
X249938D01*
Y322004D01*
X250954D01*
Y352004D02*
Y350988D01*
X252986D01*
Y352004D01*
X254002D01*
Y354036D01*
X252986D01*
Y355052D01*
X250954D01*
Y354036D01*
X249938D01*
Y352004D01*
X250954D01*
Y382004D02*
Y380988D01*
X252986D01*
Y382004D01*
X254002D01*
Y384036D01*
X252986D01*
Y385052D01*
X250954D01*
Y384036D01*
X249938D01*
Y382004D01*
X250954D01*
Y442004D02*
Y440988D01*
X252986D01*
Y442004D01*
X254002D01*
Y444036D01*
X252986D01*
Y445052D01*
X250954D01*
Y444036D01*
X249938D01*
Y442004D01*
X250954D01*
Y502004D02*
Y500988D01*
X252986D01*
Y502004D01*
X254002D01*
Y504036D01*
X252986D01*
Y505052D01*
X250954D01*
Y504036D01*
X249938D01*
Y502004D01*
X250954D01*
Y532004D02*
Y530988D01*
X252986D01*
Y532004D01*
X254002D01*
Y534036D01*
X252986D01*
Y535052D01*
X250954D01*
Y534036D01*
X249938D01*
Y532004D01*
X250954D01*
X280954Y472004D02*
Y470988D01*
X282986D01*
Y472004D01*
X284002D01*
Y474036D01*
X282986D01*
Y475052D01*
X280954D01*
Y474036D01*
X279938D01*
Y472004D01*
X280954D01*
Y502004D02*
Y500988D01*
X282986D01*
Y502004D01*
X284002D01*
Y504036D01*
X282986D01*
Y505052D01*
X280954D01*
Y504036D01*
X279938D01*
Y502004D01*
X280954D01*
Y532004D02*
Y530988D01*
X282986D01*
Y532004D01*
X284002D01*
Y534036D01*
X282986D01*
Y535052D01*
X280954D01*
Y534036D01*
X279938D01*
Y532004D01*
X280954D01*
X310954Y382004D02*
Y380988D01*
X312986D01*
Y382004D01*
X314002D01*
Y384036D01*
X312986D01*
Y385052D01*
X310954D01*
Y384036D01*
X309938D01*
Y382004D01*
X310954D01*
Y412004D02*
Y410988D01*
X312986D01*
Y412004D01*
X314002D01*
Y414036D01*
X312986D01*
Y415052D01*
X310954D01*
Y414036D01*
X309938D01*
Y412004D01*
X310954D01*
Y472004D02*
Y470988D01*
X312986D01*
Y472004D01*
X314002D01*
Y474036D01*
X312986D01*
Y475052D01*
X310954D01*
Y474036D01*
X309938D01*
Y472004D01*
X310954D01*
Y502004D02*
Y500988D01*
X312986D01*
Y502004D01*
X314002D01*
Y504036D01*
X312986D01*
Y505052D01*
X310954D01*
Y504036D01*
X309938D01*
Y502004D01*
X310954D01*
Y532004D02*
Y530988D01*
X312986D01*
Y532004D01*
X314002D01*
Y534036D01*
X312986D01*
Y535052D01*
X310954D01*
Y534036D01*
X309938D01*
Y532004D01*
X310954D01*
X340954Y382004D02*
Y380988D01*
X342986D01*
Y382004D01*
X344002D01*
Y384036D01*
X342986D01*
Y385052D01*
X340954D01*
Y384036D01*
X339938D01*
Y382004D01*
X340954D01*
Y412004D02*
Y410988D01*
X342986D01*
Y412004D01*
X344002D01*
Y414036D01*
X342986D01*
Y415052D01*
X340954D01*
Y414036D01*
X339938D01*
Y412004D01*
X340954D01*
Y502004D02*
Y500988D01*
X342986D01*
Y502004D01*
X344002D01*
Y504036D01*
X342986D01*
Y505052D01*
X340954D01*
Y504036D01*
X339938D01*
Y502004D01*
X340954D01*
Y532004D02*
Y530988D01*
X342986D01*
Y532004D01*
X344002D01*
Y534036D01*
X342986D01*
Y535052D01*
X340954D01*
Y534036D01*
X339938D01*
Y532004D01*
X340954D01*
X370954Y352004D02*
Y350988D01*
X372986D01*
Y352004D01*
X374002D01*
Y354036D01*
X372986D01*
Y355052D01*
X370954D01*
Y354036D01*
X369938D01*
Y352004D01*
X370954D01*
Y532004D02*
Y530988D01*
X372986D01*
Y532004D01*
X374002D01*
Y534036D01*
X372986D01*
Y535052D01*
X370954D01*
Y534036D01*
X369938D01*
Y532004D01*
X370954D01*
X430954Y412004D02*
Y410988D01*
X432986D01*
Y412004D01*
X434002D01*
Y414036D01*
X432986D01*
Y415052D01*
X430954D01*
Y414036D01*
X429938D01*
Y412004D01*
X430954D01*
Y472004D02*
Y470988D01*
X432986D01*
Y472004D01*
X434002D01*
Y474036D01*
X432986D01*
Y475052D01*
X430954D01*
Y474036D01*
X429938D01*
Y472004D01*
X430954D01*
X490954Y442004D02*
Y440988D01*
X492986D01*
Y442004D01*
X494002D01*
Y444036D01*
X492986D01*
Y445052D01*
X490954D01*
Y444036D01*
X489938D01*
Y442004D01*
X490954D01*
X520954Y412004D02*
Y410988D01*
X522986D01*
Y412004D01*
X524002D01*
Y414036D01*
X522986D01*
Y415052D01*
X520954D01*
Y414036D01*
X519938D01*
Y412004D01*
X520954D01*
Y442004D02*
Y440988D01*
X522986D01*
Y442004D01*
X524002D01*
Y444036D01*
X522986D01*
Y445052D01*
X520954D01*
Y444036D01*
X519938D01*
Y442004D01*
X520954D01*
X580954Y412004D02*
Y410988D01*
X582986D01*
Y412004D01*
X584002D01*
Y414036D01*
X582986D01*
Y415052D01*
X580954D01*
Y414036D01*
X579938D01*
Y412004D01*
X580954D01*
Y442004D02*
Y440988D01*
X582986D01*
Y442004D01*
X584002D01*
Y444036D01*
X582986D01*
Y445052D01*
X580954D01*
Y444036D01*
X579938D01*
Y442004D01*
X580954D01*
Y472004D02*
Y470988D01*
X582986D01*
Y472004D01*
X584002D01*
Y474036D01*
X582986D01*
Y475052D01*
X580954D01*
Y474036D01*
X579938D01*
Y472004D01*
X580954D01*
X610954Y352004D02*
Y350988D01*
X612986D01*
Y352004D01*
X614002D01*
Y354036D01*
X612986D01*
Y355052D01*
X610954D01*
Y354036D01*
X609938D01*
Y352004D01*
X610954D01*
Y412004D02*
Y410988D01*
X612986D01*
Y412004D01*
X614002D01*
Y414036D01*
X612986D01*
Y415052D01*
X610954D01*
Y414036D01*
X609938D01*
Y412004D01*
X610954D01*
Y442004D02*
Y440988D01*
X612986D01*
Y442004D01*
X614002D01*
Y444036D01*
X612986D01*
Y445052D01*
X610954D01*
Y444036D01*
X609938D01*
Y442004D01*
X610954D01*
Y472004D02*
Y470988D01*
X612986D01*
Y472004D01*
X614002D01*
Y474036D01*
X612986D01*
Y475052D01*
X610954D01*
Y474036D01*
X609938D01*
Y472004D01*
X610954D01*
Y502004D02*
Y500988D01*
X612986D01*
Y502004D01*
X614002D01*
Y504036D01*
X612986D01*
Y505052D01*
X610954D01*
Y504036D01*
X609938D01*
Y502004D01*
X610954D01*
X97968Y824668D02*
Y828732D01*
X102032D01*
Y824668D01*
X97968D01*
Y617968D02*
Y622032D01*
X102032D01*
Y617968D01*
X97968D01*
X113020Y753965D02*
X110988Y758029D01*
X115052D01*
X113020Y753965D01*
Y688965D02*
X110988Y693029D01*
X115052D01*
X113020Y688965D01*
Y731465D02*
X110988Y735529D01*
X115052D01*
X113020Y731465D01*
Y711465D02*
X110988Y715529D01*
X115052D01*
X113020Y711465D01*
X93020Y698965D02*
X94036Y699981D01*
X95052D01*
X94036Y700997D01*
X95052Y702013D01*
X94036D01*
X93020Y703029D01*
X92004Y702013D01*
X90988D01*
X92004Y700997D01*
X90988Y699981D01*
X92004D01*
X93020Y698965D01*
Y746665D02*
X94036Y747681D01*
X95052D01*
X94036Y748697D01*
X95052Y749713D01*
X94036D01*
X93020Y750729D01*
X92004Y749713D01*
X90988D01*
X92004Y748697D01*
X90988Y747681D01*
X92004D01*
X93020Y746665D01*
X90988Y663318D02*
X92004Y665350D01*
X90988Y667382D01*
X93020Y666366D01*
X95052Y667382D01*
X94036Y665350D01*
X95052Y663318D01*
X93020Y664334D01*
X90988Y663318D01*
Y779318D02*
X92004Y781350D01*
X90988Y783382D01*
X93020Y782366D01*
X95052Y783382D01*
X94036Y781350D01*
X95052Y779318D01*
X93020Y780334D01*
X90988Y779318D01*
X455064Y635974D02*
Y634958D01*
X457096D01*
Y635974D01*
X458112D01*
Y638006D01*
X457096D01*
Y639022D01*
X455064D01*
Y638006D01*
X454048D01*
Y635974D01*
X455064D01*
X499514Y624544D02*
Y623528D01*
X501546D01*
Y624544D01*
X502562D01*
Y626576D01*
X501546D01*
Y627592D01*
X499514D01*
Y626576D01*
X498498D01*
Y624544D01*
X499514D01*
X291234Y644864D02*
Y643848D01*
X293266D01*
Y644864D01*
X294282D01*
Y646896D01*
X293266D01*
Y647912D01*
X291234D01*
Y646896D01*
X290218D01*
Y644864D01*
X291234D01*
X430934Y699474D02*
Y698458D01*
X432966D01*
Y699474D01*
X433982D01*
Y701506D01*
X432966D01*
Y702522D01*
X430934D01*
Y701506D01*
X429918D01*
Y699474D01*
X430934D01*
X429664Y737574D02*
Y736558D01*
X431696D01*
Y737574D01*
X432712D01*
Y739606D01*
X431696D01*
Y740622D01*
X429664D01*
Y739606D01*
X428648D01*
Y737574D01*
X429664D01*
X331874Y751544D02*
Y750528D01*
X333906D01*
Y751544D01*
X334922D01*
Y753576D01*
X333906D01*
Y754592D01*
X331874D01*
Y753576D01*
X330858D01*
Y751544D01*
X331874D01*
Y704554D02*
Y703538D01*
X333906D01*
Y704554D01*
X334922D01*
Y706586D01*
X333906D01*
Y707602D01*
X331874D01*
Y706586D01*
X330858D01*
Y704554D01*
X331874D01*
X290599Y688044D02*
Y687028D01*
X292631D01*
Y688044D01*
X293647D01*
Y690076D01*
X292631D01*
Y691092D01*
X290599D01*
Y690076D01*
X289583D01*
Y688044D01*
X290599D01*
X587144Y785834D02*
Y784818D01*
X589176D01*
Y785834D01*
X590192D01*
Y787866D01*
X589176D01*
Y788882D01*
X587144D01*
Y787866D01*
X586128D01*
Y785834D01*
X587144D01*
X462684Y809964D02*
Y808948D01*
X464716D01*
Y809964D01*
X465732D01*
Y811996D01*
X464716D01*
Y813012D01*
X462684D01*
Y811996D01*
X461668D01*
Y809964D01*
X462684D01*
X447444Y794724D02*
Y793708D01*
X449476D01*
Y794724D01*
X450492D01*
Y796756D01*
X449476D01*
Y797772D01*
X447444D01*
Y796756D01*
X446428D01*
Y794724D01*
X447444D01*
X284884Y644864D02*
Y643848D01*
X286916D01*
Y644864D01*
X287932D01*
Y646896D01*
X286916D01*
Y647912D01*
X284884D01*
Y646896D01*
X283868D01*
Y644864D01*
X284884D01*
X356004Y747734D02*
Y746718D01*
X358036D01*
Y747734D01*
X359052D01*
Y749766D01*
X358036D01*
Y750782D01*
X356004D01*
Y749766D01*
X354988D01*
Y747734D01*
X356004D01*
X507134Y806154D02*
Y805138D01*
X509166D01*
Y806154D01*
X510182D01*
Y808186D01*
X509166D01*
Y809202D01*
X507134D01*
Y808186D01*
X506118D01*
Y806154D01*
X507134D01*
X389024Y815044D02*
Y814028D01*
X391056D01*
Y815044D01*
X392072D01*
Y817076D01*
X391056D01*
Y818092D01*
X389024D01*
Y817076D01*
X388008D01*
Y815044D01*
X389024D01*
X479194Y779484D02*
Y778468D01*
X481226D01*
Y779484D01*
X482242D01*
Y781516D01*
X481226D01*
Y782532D01*
X479194D01*
Y781516D01*
X478178D01*
Y779484D01*
X479194D01*
X436014Y737574D02*
Y736558D01*
X438046D01*
Y737574D01*
X439062D01*
Y739606D01*
X438046D01*
Y740622D01*
X436014D01*
Y739606D01*
X434998D01*
Y737574D01*
X436014D01*
X458874Y671534D02*
Y670518D01*
X460906D01*
Y671534D01*
X461922D01*
Y673566D01*
X460906D01*
Y674582D01*
X458874D01*
Y673566D01*
X457858D01*
Y671534D01*
X458874D01*
X277264Y602954D02*
Y601938D01*
X279296D01*
Y602954D01*
X280312D01*
Y604986D01*
X279296D01*
Y606002D01*
X277264D01*
Y604986D01*
X276248D01*
Y602954D01*
X277264D01*
X100954Y647004D02*
Y645988D01*
X102986D01*
Y647004D01*
X104002D01*
Y649036D01*
X102986D01*
Y650052D01*
X100954D01*
Y649036D01*
X99938D01*
Y647004D01*
X100954D01*
Y797004D02*
Y795988D01*
X102986D01*
Y797004D01*
X104002D01*
Y799036D01*
X102986D01*
Y800052D01*
X100954D01*
Y799036D01*
X99938D01*
Y797004D01*
X100954D01*
X130954Y617004D02*
Y615988D01*
X132986D01*
Y617004D01*
X134002D01*
Y619036D01*
X132986D01*
Y620052D01*
X130954D01*
Y619036D01*
X129938D01*
Y617004D01*
X130954D01*
Y647004D02*
Y645988D01*
X132986D01*
Y647004D01*
X134002D01*
Y649036D01*
X132986D01*
Y650052D01*
X130954D01*
Y649036D01*
X129938D01*
Y647004D01*
X130954D01*
Y677004D02*
Y675988D01*
X132986D01*
Y677004D01*
X134002D01*
Y679036D01*
X132986D01*
Y680052D01*
X130954D01*
Y679036D01*
X129938D01*
Y677004D01*
X130954D01*
Y707004D02*
Y705988D01*
X132986D01*
Y707004D01*
X134002D01*
Y709036D01*
X132986D01*
Y710052D01*
X130954D01*
Y709036D01*
X129938D01*
Y707004D01*
X130954D01*
Y767004D02*
Y765988D01*
X132986D01*
Y767004D01*
X134002D01*
Y769036D01*
X132986D01*
Y770052D01*
X130954D01*
Y769036D01*
X129938D01*
Y767004D01*
X130954D01*
Y797004D02*
Y795988D01*
X132986D01*
Y797004D01*
X134002D01*
Y799036D01*
X132986D01*
Y800052D01*
X130954D01*
Y799036D01*
X129938D01*
Y797004D01*
X130954D01*
Y827004D02*
Y825988D01*
X132986D01*
Y827004D01*
X134002D01*
Y829036D01*
X132986D01*
Y830052D01*
X130954D01*
Y829036D01*
X129938D01*
Y827004D01*
X130954D01*
X160954Y617004D02*
Y615988D01*
X162986D01*
Y617004D01*
X164002D01*
Y619036D01*
X162986D01*
Y620052D01*
X160954D01*
Y619036D01*
X159938D01*
Y617004D01*
X160954D01*
Y797004D02*
Y795988D01*
X162986D01*
Y797004D01*
X164002D01*
Y799036D01*
X162986D01*
Y800052D01*
X160954D01*
Y799036D01*
X159938D01*
Y797004D01*
X160954D01*
Y827004D02*
Y825988D01*
X162986D01*
Y827004D01*
X164002D01*
Y829036D01*
X162986D01*
Y830052D01*
X160954D01*
Y829036D01*
X159938D01*
Y827004D01*
X160954D01*
X190954Y617004D02*
Y615988D01*
X192986D01*
Y617004D01*
X194002D01*
Y619036D01*
X192986D01*
Y620052D01*
X190954D01*
Y619036D01*
X189938D01*
Y617004D01*
X190954D01*
Y797004D02*
Y795988D01*
X192986D01*
Y797004D01*
X194002D01*
Y799036D01*
X192986D01*
Y800052D01*
X190954D01*
Y799036D01*
X189938D01*
Y797004D01*
X190954D01*
Y827004D02*
Y825988D01*
X192986D01*
Y827004D01*
X194002D01*
Y829036D01*
X192986D01*
Y830052D01*
X190954D01*
Y829036D01*
X189938D01*
Y827004D01*
X190954D01*
X220954Y617004D02*
Y615988D01*
X222986D01*
Y617004D01*
X224002D01*
Y619036D01*
X222986D01*
Y620052D01*
X220954D01*
Y619036D01*
X219938D01*
Y617004D01*
X220954D01*
Y797004D02*
Y795988D01*
X222986D01*
Y797004D01*
X224002D01*
Y799036D01*
X222986D01*
Y800052D01*
X220954D01*
Y799036D01*
X219938D01*
Y797004D01*
X220954D01*
Y827004D02*
Y825988D01*
X222986D01*
Y827004D01*
X224002D01*
Y829036D01*
X222986D01*
Y830052D01*
X220954D01*
Y829036D01*
X219938D01*
Y827004D01*
X220954D01*
X250954Y617004D02*
Y615988D01*
X252986D01*
Y617004D01*
X254002D01*
Y619036D01*
X252986D01*
Y620052D01*
X250954D01*
Y619036D01*
X249938D01*
Y617004D01*
X250954D01*
Y647004D02*
Y645988D01*
X252986D01*
Y647004D01*
X254002D01*
Y649036D01*
X252986D01*
Y650052D01*
X250954D01*
Y649036D01*
X249938D01*
Y647004D01*
X250954D01*
Y677004D02*
Y675988D01*
X252986D01*
Y677004D01*
X254002D01*
Y679036D01*
X252986D01*
Y680052D01*
X250954D01*
Y679036D01*
X249938D01*
Y677004D01*
X250954D01*
Y737004D02*
Y735988D01*
X252986D01*
Y737004D01*
X254002D01*
Y739036D01*
X252986D01*
Y740052D01*
X250954D01*
Y739036D01*
X249938D01*
Y737004D01*
X250954D01*
Y797004D02*
Y795988D01*
X252986D01*
Y797004D01*
X254002D01*
Y799036D01*
X252986D01*
Y800052D01*
X250954D01*
Y799036D01*
X249938D01*
Y797004D01*
X250954D01*
Y827004D02*
Y825988D01*
X252986D01*
Y827004D01*
X254002D01*
Y829036D01*
X252986D01*
Y830052D01*
X250954D01*
Y829036D01*
X249938D01*
Y827004D01*
X250954D01*
X280954Y767004D02*
Y765988D01*
X282986D01*
Y767004D01*
X284002D01*
Y769036D01*
X282986D01*
Y770052D01*
X280954D01*
Y769036D01*
X279938D01*
Y767004D01*
X280954D01*
Y797004D02*
Y795988D01*
X282986D01*
Y797004D01*
X284002D01*
Y799036D01*
X282986D01*
Y800052D01*
X280954D01*
Y799036D01*
X279938D01*
Y797004D01*
X280954D01*
Y827004D02*
Y825988D01*
X282986D01*
Y827004D01*
X284002D01*
Y829036D01*
X282986D01*
Y830052D01*
X280954D01*
Y829036D01*
X279938D01*
Y827004D01*
X280954D01*
X310954Y677004D02*
Y675988D01*
X312986D01*
Y677004D01*
X314002D01*
Y679036D01*
X312986D01*
Y680052D01*
X310954D01*
Y679036D01*
X309938D01*
Y677004D01*
X310954D01*
Y707004D02*
Y705988D01*
X312986D01*
Y707004D01*
X314002D01*
Y709036D01*
X312986D01*
Y710052D01*
X310954D01*
Y709036D01*
X309938D01*
Y707004D01*
X310954D01*
Y767004D02*
Y765988D01*
X312986D01*
Y767004D01*
X314002D01*
Y769036D01*
X312986D01*
Y770052D01*
X310954D01*
Y769036D01*
X309938D01*
Y767004D01*
X310954D01*
Y797004D02*
Y795988D01*
X312986D01*
Y797004D01*
X314002D01*
Y799036D01*
X312986D01*
Y800052D01*
X310954D01*
Y799036D01*
X309938D01*
Y797004D01*
X310954D01*
Y827004D02*
Y825988D01*
X312986D01*
Y827004D01*
X314002D01*
Y829036D01*
X312986D01*
Y830052D01*
X310954D01*
Y829036D01*
X309938D01*
Y827004D01*
X310954D01*
X340954Y677004D02*
Y675988D01*
X342986D01*
Y677004D01*
X344002D01*
Y679036D01*
X342986D01*
Y680052D01*
X340954D01*
Y679036D01*
X339938D01*
Y677004D01*
X340954D01*
Y707004D02*
Y705988D01*
X342986D01*
Y707004D01*
X344002D01*
Y709036D01*
X342986D01*
Y710052D01*
X340954D01*
Y709036D01*
X339938D01*
Y707004D01*
X340954D01*
Y797004D02*
Y795988D01*
X342986D01*
Y797004D01*
X344002D01*
Y799036D01*
X342986D01*
Y800052D01*
X340954D01*
Y799036D01*
X339938D01*
Y797004D01*
X340954D01*
Y827004D02*
Y825988D01*
X342986D01*
Y827004D01*
X344002D01*
Y829036D01*
X342986D01*
Y830052D01*
X340954D01*
Y829036D01*
X339938D01*
Y827004D01*
X340954D01*
X370954Y647004D02*
Y645988D01*
X372986D01*
Y647004D01*
X374002D01*
Y649036D01*
X372986D01*
Y650052D01*
X370954D01*
Y649036D01*
X369938D01*
Y647004D01*
X370954D01*
Y827004D02*
Y825988D01*
X372986D01*
Y827004D01*
X374002D01*
Y829036D01*
X372986D01*
Y830052D01*
X370954D01*
Y829036D01*
X369938D01*
Y827004D01*
X370954D01*
X430954Y707004D02*
Y705988D01*
X432986D01*
Y707004D01*
X434002D01*
Y709036D01*
X432986D01*
Y710052D01*
X430954D01*
Y709036D01*
X429938D01*
Y707004D01*
X430954D01*
Y767004D02*
Y765988D01*
X432986D01*
Y767004D01*
X434002D01*
Y769036D01*
X432986D01*
Y770052D01*
X430954D01*
Y769036D01*
X429938D01*
Y767004D01*
X430954D01*
X490954Y737004D02*
Y735988D01*
X492986D01*
Y737004D01*
X494002D01*
Y739036D01*
X492986D01*
Y740052D01*
X490954D01*
Y739036D01*
X489938D01*
Y737004D01*
X490954D01*
X520954Y707004D02*
Y705988D01*
X522986D01*
Y707004D01*
X524002D01*
Y709036D01*
X522986D01*
Y710052D01*
X520954D01*
Y709036D01*
X519938D01*
Y707004D01*
X520954D01*
Y737004D02*
Y735988D01*
X522986D01*
Y737004D01*
X524002D01*
Y739036D01*
X522986D01*
Y740052D01*
X520954D01*
Y739036D01*
X519938D01*
Y737004D01*
X520954D01*
X580954Y707004D02*
Y705988D01*
X582986D01*
Y707004D01*
X584002D01*
Y709036D01*
X582986D01*
Y710052D01*
X580954D01*
Y709036D01*
X579938D01*
Y707004D01*
X580954D01*
Y737004D02*
Y735988D01*
X582986D01*
Y737004D01*
X584002D01*
Y739036D01*
X582986D01*
Y740052D01*
X580954D01*
Y739036D01*
X579938D01*
Y737004D01*
X580954D01*
Y767004D02*
Y765988D01*
X582986D01*
Y767004D01*
X584002D01*
Y769036D01*
X582986D01*
Y770052D01*
X580954D01*
Y769036D01*
X579938D01*
Y767004D01*
X580954D01*
X610954Y647004D02*
Y645988D01*
X612986D01*
Y647004D01*
X614002D01*
Y649036D01*
X612986D01*
Y650052D01*
X610954D01*
Y649036D01*
X609938D01*
Y647004D01*
X610954D01*
Y707004D02*
Y705988D01*
X612986D01*
Y707004D01*
X614002D01*
Y709036D01*
X612986D01*
Y710052D01*
X610954D01*
Y709036D01*
X609938D01*
Y707004D01*
X610954D01*
Y737004D02*
Y735988D01*
X612986D01*
Y737004D01*
X614002D01*
Y739036D01*
X612986D01*
Y740052D01*
X610954D01*
Y739036D01*
X609938D01*
Y737004D01*
X610954D01*
Y767004D02*
Y765988D01*
X612986D01*
Y767004D01*
X614002D01*
Y769036D01*
X612986D01*
Y770052D01*
X610954D01*
Y769036D01*
X609938D01*
Y767004D01*
X610954D01*
Y797004D02*
Y795988D01*
X612986D01*
Y797004D01*
X614002D01*
Y799036D01*
X612986D01*
Y800052D01*
X610954D01*
Y799036D01*
X609938D01*
Y797004D01*
X610954D01*
D58*
X404264Y61976D02*
G03*
X404264Y61976I-2032J0D01*
G01*
Y87376D02*
G03*
X404264Y87376I-2032J0D01*
G01*
X413662Y246380D02*
G03*
X413662Y246380I-2032J0D01*
G01*
X439062D02*
G03*
X439062Y246380I-2032J0D01*
G01*
X464462D02*
G03*
X464462Y246380I-2032J0D01*
G01*
X489862D02*
G03*
X489862Y246380I-2032J0D01*
G01*
X515262D02*
G03*
X515262Y246380I-2032J0D01*
G01*
X540662D02*
G03*
X540662Y246380I-2032J0D01*
G01*
X566062D02*
G03*
X566062Y246380I-2032J0D01*
G01*
X591462D02*
G03*
X591462Y246380I-2032J0D01*
G01*
X616862D02*
G03*
X616862Y246380I-2032J0D01*
G01*
X642262D02*
G03*
X642262Y246380I-2032J0D01*
G01*
X413662Y17780D02*
G03*
X413662Y17780I-2032J0D01*
G01*
X439062D02*
G03*
X439062Y17780I-2032J0D01*
G01*
X464462D02*
G03*
X464462Y17780I-2032J0D01*
G01*
X489862D02*
G03*
X489862Y17780I-2032J0D01*
G01*
X515262D02*
G03*
X515262Y17780I-2032J0D01*
G01*
X540662D02*
G03*
X540662Y17780I-2032J0D01*
G01*
X566062D02*
G03*
X566062Y17780I-2032J0D01*
G01*
X591462D02*
G03*
X591462Y17780I-2032J0D01*
G01*
X616862D02*
G03*
X616862Y17780I-2032J0D01*
G01*
X642262D02*
G03*
X642262Y17780I-2032J0D01*
G01*
X640992Y193040D02*
G03*
X640992Y193040I-2032J0D01*
G01*
Y167640D02*
G03*
X640992Y167640I-2032J0D01*
G01*
Y66040D02*
G03*
X640992Y66040I-2032J0D01*
G01*
Y91440D02*
G03*
X640992Y91440I-2032J0D01*
G01*
Y116840D02*
G03*
X640992Y116840I-2032J0D01*
G01*
Y142240D02*
G03*
X640992Y142240I-2032J0D01*
G01*
X404264Y356976D02*
G03*
X404264Y356976I-2032J0D01*
G01*
Y382376D02*
G03*
X404264Y382376I-2032J0D01*
G01*
X413662Y541380D02*
G03*
X413662Y541380I-2032J0D01*
G01*
X439062D02*
G03*
X439062Y541380I-2032J0D01*
G01*
X464462D02*
G03*
X464462Y541380I-2032J0D01*
G01*
X489862D02*
G03*
X489862Y541380I-2032J0D01*
G01*
X515262D02*
G03*
X515262Y541380I-2032J0D01*
G01*
X540662D02*
G03*
X540662Y541380I-2032J0D01*
G01*
X566062D02*
G03*
X566062Y541380I-2032J0D01*
G01*
X591462D02*
G03*
X591462Y541380I-2032J0D01*
G01*
X616862D02*
G03*
X616862Y541380I-2032J0D01*
G01*
X642262D02*
G03*
X642262Y541380I-2032J0D01*
G01*
X413662Y312780D02*
G03*
X413662Y312780I-2032J0D01*
G01*
X439062D02*
G03*
X439062Y312780I-2032J0D01*
G01*
X464462D02*
G03*
X464462Y312780I-2032J0D01*
G01*
X489862D02*
G03*
X489862Y312780I-2032J0D01*
G01*
X515262D02*
G03*
X515262Y312780I-2032J0D01*
G01*
X540662D02*
G03*
X540662Y312780I-2032J0D01*
G01*
X566062D02*
G03*
X566062Y312780I-2032J0D01*
G01*
X591462D02*
G03*
X591462Y312780I-2032J0D01*
G01*
X616862D02*
G03*
X616862Y312780I-2032J0D01*
G01*
X642262D02*
G03*
X642262Y312780I-2032J0D01*
G01*
X640992Y488040D02*
G03*
X640992Y488040I-2032J0D01*
G01*
Y462640D02*
G03*
X640992Y462640I-2032J0D01*
G01*
Y361040D02*
G03*
X640992Y361040I-2032J0D01*
G01*
Y386440D02*
G03*
X640992Y386440I-2032J0D01*
G01*
Y411840D02*
G03*
X640992Y411840I-2032J0D01*
G01*
Y437240D02*
G03*
X640992Y437240I-2032J0D01*
G01*
X404264Y651976D02*
G03*
X404264Y651976I-2032J0D01*
G01*
Y677376D02*
G03*
X404264Y677376I-2032J0D01*
G01*
X413662Y836380D02*
G03*
X413662Y836380I-2032J0D01*
G01*
X439062D02*
G03*
X439062Y836380I-2032J0D01*
G01*
X464462D02*
G03*
X464462Y836380I-2032J0D01*
G01*
X489862D02*
G03*
X489862Y836380I-2032J0D01*
G01*
X515262D02*
G03*
X515262Y836380I-2032J0D01*
G01*
X540662D02*
G03*
X540662Y836380I-2032J0D01*
G01*
X566062D02*
G03*
X566062Y836380I-2032J0D01*
G01*
X591462D02*
G03*
X591462Y836380I-2032J0D01*
G01*
X616862D02*
G03*
X616862Y836380I-2032J0D01*
G01*
X642262D02*
G03*
X642262Y836380I-2032J0D01*
G01*
X413662Y607780D02*
G03*
X413662Y607780I-2032J0D01*
G01*
X439062D02*
G03*
X439062Y607780I-2032J0D01*
G01*
X464462D02*
G03*
X464462Y607780I-2032J0D01*
G01*
X489862D02*
G03*
X489862Y607780I-2032J0D01*
G01*
X515262D02*
G03*
X515262Y607780I-2032J0D01*
G01*
X540662D02*
G03*
X540662Y607780I-2032J0D01*
G01*
X566062D02*
G03*
X566062Y607780I-2032J0D01*
G01*
X591462D02*
G03*
X591462Y607780I-2032J0D01*
G01*
X616862D02*
G03*
X616862Y607780I-2032J0D01*
G01*
X642262D02*
G03*
X642262Y607780I-2032J0D01*
G01*
X640992Y783040D02*
G03*
X640992Y783040I-2032J0D01*
G01*
Y757640D02*
G03*
X640992Y757640I-2032J0D01*
G01*
Y656040D02*
G03*
X640992Y656040I-2032J0D01*
G01*
Y681440D02*
G03*
X640992Y681440I-2032J0D01*
G01*
Y706840D02*
G03*
X640992Y706840I-2032J0D01*
G01*
Y732240D02*
G03*
X640992Y732240I-2032J0D01*
G01*
M02*
