M48
;Layer_Color=9474304
;FILE_FORMAT=4:4
METRIC,LZ
;TYPE=PLATED
T1F00S00C0.3000
T2F00S00C0.8500
T3F00S00C0.9000
T5F00S00C2.0000
T6F00S00C3.0000
%
T01
X0027828Y0001397
X002859Y0005588
X0029225
X00291615Y0009906
X0031197Y0008802
Y0011802
X0033289Y0011557
X0034197Y0011802
Y0008802
X0037197Y0005802
X0045608Y0004699
X0045989Y0008255
X0043195Y0011049
X0043197Y0011802
X0043068Y0014859
X0043703
X0043197Y0017802
X0044846Y0020574
X004637Y0022098
X0048021Y001905
X0049197Y0014802
X0052197
Y0011802
X0058197
Y0014802
Y0017802
X0058816Y0019685
X0061197Y0020802
Y0017802
Y0014802
Y0011802
Y0005802
X0050053Y0003556
X0050815Y0021717
X0050053Y0033056
X0045608Y0034199
X0039004Y0022606
X0037197Y0023802
X0034197
X0031197
X0028197
Y0020802
Y0017802
X0031197
Y0020802
X0034197
X0033289Y0016256
X0035702Y0015875
X0027828Y0030897
X0025197Y0032302
X0022197
X0019197
X0016197
X0013197
Y0023802
Y0020802
X0010197
X0013197Y0017802
Y0011802
Y0008802
Y0005802
X0010197
X0013197Y0002802
X0016197
X0019197
X0022197
X0025197
Y0005802
Y0008802
Y0014802
Y0020802
X0022197
X0019197
X0016197
Y0023802
X0019197
X0022197
X0025197
Y0035302
Y0038302
Y0044302
Y0050302
X0022197
X0019197
X0016197
X0013197
X0010197
X0013197Y0047302
Y0041302
Y0038302
Y0035302
X0010197
X0013197Y0053302
X0016197
X0019197
X0022197
X0025197
Y0061802
X0022197
X0019197
X0016197
X0013197
Y0064802
X0010197
X0013197Y0067802
Y0070802
X0025197Y0067802
Y0064802
Y0073802
X00291615Y0068906
X0031197Y0067802
Y0070802
X0033289Y0070557
X0034197Y0070802
Y0067802
X0037197Y0064802
X0029225Y0064588
X002859
X0027828Y0060397
X0028197Y0053302
Y0050302
Y0047302
X0031197
Y0050302
Y0053302
X0034197
Y0050302
X0033289Y0045756
X0035702Y0045375
X0034197Y0041302
X0033289Y0041057
X0031197Y0041302
Y0038302
X0034197
X0037197Y0035302
X0029225Y0035088
X002859
X00291615Y0039406
X0043195Y0040549
X0043197Y0041302
X0043068Y0044359
X0043703
X0043197Y0047302
X0044846Y0050074
X004637Y0051598
X0048021Y004855
X0049197Y0044302
X0052197
Y0041302
X0058197
Y0044302
Y0047302
X0058816Y0049185
X0061197Y0050302
Y0047302
Y0044302
Y0041302
Y0035302
X0045989Y0037755
X0050815Y0051217
X0050053Y0062556
X0045608Y0063699
X0045989Y0067255
X0043195Y0070049
X0043197Y0070802
X0043068Y0073859
X0043703
X0049197Y0073802
X0052197
Y0070802
X0058197
Y0073802
X0061197
Y0070802
Y0064802
X0039004Y0052106
X0037197Y0053302
X0035702Y0074875
X0033289Y0075256
X0031197Y0076802
X0028197
Y0079802
Y0082802
X0031197
Y0079802
X0034197
Y0082802
X0037197
X0039004Y0081606
X004637Y0081098
X0044846Y0079574
X0043197Y0076802
X0048021Y007805
X0050815Y0080717
X0058816Y0078685
X0058197Y0076802
X0061197
Y0079802
X0025197
X0022197
X0019197
X0016197
X0013197
X0010197
X0013197Y0076802
Y0082802
X0016197
X0019197
X0022197
X0025197
T02
X0041163Y0001778
X0043703
X0046243
X0048783
X0051323
X0053863
X0056403
X0058943
X0061483
X0064023
X0063896Y0006604
Y0009144
Y0011684
Y0014224
Y0016764
Y0019304
X0064023Y0024638
X0061483
X0058943
X0056403
X0053863
X0051323
X0048783
X0046243
X0043703
X0041163
Y0031278
X0043703
X0046243
X0048783
X0051323
X0053863
X0056403
X0058943
X0061483
X0064023
X00402232Y00087376
Y00061976
Y00356976
Y00382376
X0041163Y0054138
X0043703
X0046243
X0048783
X0051323
X0053863
X0056403
X0058943
X0061483
X0064023
X0063896Y0048804
Y0046264
Y0043724
Y0041184
Y0038644
Y0036104
X0064023Y0060778
X0061483
X0058943
X0056403
X0053863
X0051323
X0048783
X0046243
X0043703
X0041163
X00402232Y00651976
Y00677376
X0063896Y0068144
Y0065604
Y0070684
Y0073224
Y0075764
Y0078304
X0064023Y0083638
X0061483
X0058943
X0056403
X0053863
X0051323
X0048783
X0046243
X0043703
X0041163
T03
X0011302Y00100997
Y00123497
Y00143497
Y00165997
Y00395997
Y00418497
Y00438497
Y00460997
Y00690997
Y00713497
Y00733497
Y00755997
T05
X0009302Y00110997
Y00158697
Y00405997
Y00453697
Y00700997
Y00748697
T06
X00696Y000305
X001Y0003
X00034Y000305
X001Y002367
Y00325
Y005317
Y0062
X00696Y008245
X001Y008267
X00034Y008245
M30
