G04 Layer_Color=8421504*
%FSLAX44Y44*%
%MOMM*%
G71*
G01*
G75*
%ADD10C,1.0000*%
%ADD11R,1.2000X1.6300*%
%ADD12R,1.0000X1.0000*%
%ADD13R,0.4000X0.8000*%
%ADD14R,1.6300X1.2000*%
%ADD15R,2.0000X0.6000*%
%ADD16O,2.0000X0.6000*%
%ADD17R,2.0000X2.0000*%
%ADD18R,1.5000X1.2000*%
%ADD19R,1.8000X1.5000*%
%ADD20R,2.0000X3.2000*%
%ADD21R,1.0000X1.0000*%
%ADD22O,0.3000X1.5000*%
D10*
X34000Y68500D02*
D03*
X696000Y786500D02*
D03*
X34000D02*
D03*
X696000Y68500D02*
D03*
D11*
X555480Y180340D02*
D03*
X534480D02*
D03*
X168720Y87630D02*
D03*
X189720D02*
D03*
X555480Y157480D02*
D03*
X534480D02*
D03*
X168720Y156210D02*
D03*
X189720D02*
D03*
X168720Y133350D02*
D03*
X189720D02*
D03*
Y110490D02*
D03*
X168720D02*
D03*
Y179070D02*
D03*
X189720D02*
D03*
X371920Y198120D02*
D03*
X392920D02*
D03*
X168720Y64770D02*
D03*
X189720D02*
D03*
X296990Y17780D02*
D03*
X317990D02*
D03*
X392920Y127000D02*
D03*
X371920D02*
D03*
X555480Y134620D02*
D03*
X534480D02*
D03*
X555480Y475340D02*
D03*
X534480D02*
D03*
X168720Y382630D02*
D03*
X189720D02*
D03*
X555480Y452480D02*
D03*
X534480D02*
D03*
X168720Y451210D02*
D03*
X189720D02*
D03*
X168720Y428350D02*
D03*
X189720D02*
D03*
Y405490D02*
D03*
X168720D02*
D03*
Y474070D02*
D03*
X189720D02*
D03*
X371920Y493120D02*
D03*
X392920D02*
D03*
X168720Y359770D02*
D03*
X189720D02*
D03*
X296990Y312780D02*
D03*
X317990D02*
D03*
X392920Y422000D02*
D03*
X371920D02*
D03*
X555480Y429620D02*
D03*
X534480D02*
D03*
X555480Y770340D02*
D03*
X534480D02*
D03*
X168720Y677630D02*
D03*
X189720D02*
D03*
X555480Y747480D02*
D03*
X534480D02*
D03*
X168720Y746210D02*
D03*
X189720D02*
D03*
X168720Y723350D02*
D03*
X189720D02*
D03*
Y700490D02*
D03*
X168720D02*
D03*
Y769070D02*
D03*
X189720D02*
D03*
X371920Y788120D02*
D03*
X392920D02*
D03*
X168720Y654770D02*
D03*
X189720D02*
D03*
X296990Y607780D02*
D03*
X317990D02*
D03*
X392920Y717000D02*
D03*
X371920D02*
D03*
X555480Y724620D02*
D03*
X534480D02*
D03*
D12*
X251390Y99060D02*
D03*
X269360D02*
D03*
X372040Y218440D02*
D03*
X390010D02*
D03*
X471100Y201930D02*
D03*
X489070D02*
D03*
X535870Y114300D02*
D03*
X553840D02*
D03*
X251390Y394060D02*
D03*
X269360D02*
D03*
X372040Y513440D02*
D03*
X390010D02*
D03*
X471100Y496930D02*
D03*
X489070D02*
D03*
X535870Y409300D02*
D03*
X553840D02*
D03*
X251390Y689060D02*
D03*
X269360D02*
D03*
X372040Y808440D02*
D03*
X390010D02*
D03*
X471100Y791930D02*
D03*
X489070D02*
D03*
X535870Y704300D02*
D03*
X553840D02*
D03*
D13*
X332890Y145796D02*
D03*
X319428D02*
D03*
X332636Y131826D02*
D03*
X319174D02*
D03*
X332890Y440796D02*
D03*
X319428D02*
D03*
X332636Y426826D02*
D03*
X319174D02*
D03*
X332890Y735796D02*
D03*
X319428D02*
D03*
X332636Y721826D02*
D03*
X319174D02*
D03*
D14*
X325270Y58080D02*
D03*
Y79080D02*
D03*
X348130Y37170D02*
D03*
Y16170D02*
D03*
X372260D02*
D03*
Y37170D02*
D03*
X472590Y46650D02*
D03*
Y67650D02*
D03*
X325270Y353080D02*
D03*
Y374080D02*
D03*
X348130Y332170D02*
D03*
Y311170D02*
D03*
X372260D02*
D03*
Y332170D02*
D03*
X472590Y341650D02*
D03*
Y362650D02*
D03*
X325270Y648080D02*
D03*
Y669080D02*
D03*
X348130Y627170D02*
D03*
Y606170D02*
D03*
X372260D02*
D03*
Y627170D02*
D03*
X472590Y636650D02*
D03*
Y657650D02*
D03*
D15*
X287500Y119380D02*
D03*
Y414380D02*
D03*
Y709380D02*
D03*
D16*
Y132080D02*
D03*
Y144780D02*
D03*
Y157480D02*
D03*
X233500Y119380D02*
D03*
Y132080D02*
D03*
Y144780D02*
D03*
Y157480D02*
D03*
X287500Y427080D02*
D03*
Y439780D02*
D03*
Y452480D02*
D03*
X233500Y414380D02*
D03*
Y427080D02*
D03*
Y439780D02*
D03*
Y452480D02*
D03*
X287500Y722080D02*
D03*
Y734780D02*
D03*
Y747480D02*
D03*
X233500Y709380D02*
D03*
Y722080D02*
D03*
Y734780D02*
D03*
Y747480D02*
D03*
D17*
X337330Y189230D02*
D03*
X257330D02*
D03*
X337330Y484230D02*
D03*
X257330D02*
D03*
X337330Y779230D02*
D03*
X257330D02*
D03*
D18*
X373420Y171958D02*
D03*
Y152654D02*
D03*
X396026D02*
D03*
Y171958D02*
D03*
X373420Y466958D02*
D03*
Y447654D02*
D03*
X396026D02*
D03*
Y466958D02*
D03*
X373420Y761958D02*
D03*
Y742654D02*
D03*
X396026D02*
D03*
Y761958D02*
D03*
D19*
X270450Y78880D02*
D03*
Y55880D02*
D03*
Y32880D02*
D03*
Y373880D02*
D03*
Y350880D02*
D03*
Y327880D02*
D03*
Y668880D02*
D03*
Y645880D02*
D03*
Y622880D02*
D03*
D20*
X212450Y55880D02*
D03*
Y350880D02*
D03*
Y645880D02*
D03*
D21*
X491640Y66260D02*
D03*
Y48290D02*
D03*
X509420Y66260D02*
D03*
Y48290D02*
D03*
X491640Y361260D02*
D03*
Y343290D02*
D03*
X509420Y361260D02*
D03*
Y343290D02*
D03*
X491640Y656260D02*
D03*
Y638290D02*
D03*
X509420Y656260D02*
D03*
Y638290D02*
D03*
D22*
X447190Y115570D02*
D03*
X453690D02*
D03*
X460190D02*
D03*
X466690D02*
D03*
X473190D02*
D03*
X479690D02*
D03*
X486190D02*
D03*
X492690D02*
D03*
X499190D02*
D03*
X505690D02*
D03*
X447190Y173070D02*
D03*
X453690D02*
D03*
X460190D02*
D03*
X466690D02*
D03*
X473190D02*
D03*
X479690D02*
D03*
X486190D02*
D03*
X492690D02*
D03*
X499190D02*
D03*
X505690D02*
D03*
X447190Y410570D02*
D03*
X453690D02*
D03*
X460190D02*
D03*
X466690D02*
D03*
X473190D02*
D03*
X479690D02*
D03*
X486190D02*
D03*
X492690D02*
D03*
X499190D02*
D03*
X505690D02*
D03*
X447190Y468070D02*
D03*
X453690D02*
D03*
X460190D02*
D03*
X466690D02*
D03*
X473190D02*
D03*
X479690D02*
D03*
X486190D02*
D03*
X492690D02*
D03*
X499190D02*
D03*
X505690D02*
D03*
X447190Y705570D02*
D03*
X453690D02*
D03*
X460190D02*
D03*
X466690D02*
D03*
X473190D02*
D03*
X479690D02*
D03*
X486190D02*
D03*
X492690D02*
D03*
X499190D02*
D03*
X505690D02*
D03*
X447190Y763070D02*
D03*
X453690D02*
D03*
X460190D02*
D03*
X466690D02*
D03*
X473190D02*
D03*
X479690D02*
D03*
X486190D02*
D03*
X492690D02*
D03*
X499190D02*
D03*
X505690D02*
D03*
M02*
