G04 Layer_Physical_Order=2*
G04 Layer_Color=16711680*
%FSLAX44Y44*%
%MOMM*%
G71*
G01*
G75*
%ADD10C,1.0000*%
%ADD23C,0.3000*%
%ADD29C,4.0000*%
%ADD30C,2.0000*%
%ADD31R,2.0000X2.0000*%
%ADD32O,2.0000X1.5240*%
%ADD33O,4.0000X2.0000*%
%ADD34C,0.5000*%
%ADD35C,1.0000*%
G36*
X656839Y3161D02*
X73161D01*
Y66347D01*
X73969Y66621D01*
X74431Y66689D01*
X76918Y64781D01*
X79861Y63561D01*
X83020Y63146D01*
X98283D01*
X98669Y61876D01*
X98336Y61653D01*
X97222Y59986D01*
X97084Y59290D01*
X106856D01*
X106717Y59986D01*
X105603Y61653D01*
X104914Y62114D01*
X105222Y63436D01*
X106179Y63561D01*
X109122Y64781D01*
X111650Y66720D01*
X113589Y69248D01*
X114809Y72191D01*
X115224Y75350D01*
X114809Y78509D01*
X113589Y81452D01*
X111650Y83980D01*
X109122Y85919D01*
X106179Y87139D01*
X103020Y87554D01*
X83020D01*
X79861Y87139D01*
X76918Y85919D01*
X74431Y84011D01*
X73969Y84079D01*
X73161Y84353D01*
Y182347D01*
X73969Y182621D01*
X74431Y182689D01*
X76918Y180781D01*
X79861Y179561D01*
X83020Y179146D01*
X103020D01*
X106179Y179561D01*
X109122Y180781D01*
X111650Y182720D01*
X113589Y185248D01*
X114809Y188191D01*
X115224Y191350D01*
X114809Y194509D01*
X113589Y197452D01*
X111650Y199980D01*
X109122Y201919D01*
X106179Y203139D01*
X105903Y203175D01*
X105670Y204487D01*
X106717Y206053D01*
X106856Y206750D01*
X97084D01*
X97222Y206053D01*
X98043Y204824D01*
X97469Y203554D01*
X83020D01*
X79861Y203139D01*
X76918Y201919D01*
X74431Y200011D01*
X73969Y200079D01*
X73161Y200353D01*
Y261839D01*
X656839D01*
Y3161D01*
D02*
G37*
%LPC*%
G36*
X610700Y116750D02*
X607084D01*
X607222Y116053D01*
X608336Y114386D01*
X610003Y113272D01*
X610700Y113134D01*
Y116750D01*
D02*
G37*
G36*
X616856D02*
X613240D01*
Y113134D01*
X613936Y113272D01*
X615603Y114386D01*
X616717Y116053D01*
X616856Y116750D01*
D02*
G37*
G36*
X130700Y122906D02*
X130003Y122767D01*
X128336Y121653D01*
X127222Y119986D01*
X127084Y119290D01*
X130700D01*
Y122906D01*
D02*
G37*
G36*
X586856Y116750D02*
X583240D01*
Y113134D01*
X583936Y113272D01*
X585603Y114386D01*
X586717Y116053D01*
X586856Y116750D01*
D02*
G37*
G36*
X346856D02*
X343240D01*
Y113134D01*
X343936Y113272D01*
X345603Y114386D01*
X346717Y116053D01*
X346856Y116750D01*
D02*
G37*
G36*
X526856D02*
X523240D01*
Y113134D01*
X523936Y113272D01*
X525603Y114386D01*
X526717Y116053D01*
X526856Y116750D01*
D02*
G37*
G36*
X580700D02*
X577084D01*
X577222Y116053D01*
X578336Y114386D01*
X580003Y113272D01*
X580700Y113134D01*
Y116750D01*
D02*
G37*
G36*
X133240Y122906D02*
Y119290D01*
X136856D01*
X136717Y119986D01*
X135603Y121653D01*
X133936Y122767D01*
X133240Y122906D01*
D02*
G37*
G36*
X433240D02*
Y119290D01*
X436856D01*
X436717Y119986D01*
X435603Y121653D01*
X433936Y122767D01*
X433240Y122906D01*
D02*
G37*
G36*
X520700D02*
X520003Y122767D01*
X518336Y121653D01*
X517222Y119986D01*
X517084Y119290D01*
X520700D01*
Y122906D01*
D02*
G37*
G36*
X523240D02*
Y119290D01*
X526856D01*
X526717Y119986D01*
X525603Y121653D01*
X523936Y122767D01*
X523240Y122906D01*
D02*
G37*
G36*
X430700D02*
X430003Y122767D01*
X428336Y121653D01*
X427222Y119986D01*
X427084Y119290D01*
X430700D01*
Y122906D01*
D02*
G37*
G36*
X310700D02*
X310003Y122767D01*
X308336Y121653D01*
X307222Y119986D01*
X307084Y119290D01*
X310700D01*
Y122906D01*
D02*
G37*
G36*
X313240D02*
Y119290D01*
X316856D01*
X316717Y119986D01*
X315603Y121653D01*
X313936Y122767D01*
X313240Y122906D01*
D02*
G37*
G36*
X343240D02*
Y119290D01*
X346856D01*
X346717Y119986D01*
X345603Y121653D01*
X343936Y122767D01*
X343240Y122906D01*
D02*
G37*
G36*
X290345Y97790D02*
X286729D01*
X286867Y97093D01*
X287981Y95426D01*
X289648Y94312D01*
X290345Y94174D01*
Y97790D01*
D02*
G37*
G36*
X296501D02*
X292885D01*
Y94174D01*
X293582Y94312D01*
X295249Y95426D01*
X296363Y97093D01*
X296501Y97790D01*
D02*
G37*
G36*
X91750Y109727D02*
X80539D01*
X80803Y107723D01*
X82066Y104673D01*
X84076Y102053D01*
X86696Y100043D01*
X89746Y98780D01*
X91750Y98516D01*
Y109727D01*
D02*
G37*
G36*
X343240Y92906D02*
Y89290D01*
X346856D01*
X346717Y89986D01*
X345603Y91653D01*
X343936Y92767D01*
X343240Y92906D01*
D02*
G37*
G36*
X310700D02*
X310003Y92767D01*
X308336Y91653D01*
X307222Y89986D01*
X307084Y89290D01*
X310700D01*
Y92906D01*
D02*
G37*
G36*
X313240D02*
Y89290D01*
X316856D01*
X316717Y89986D01*
X315603Y91653D01*
X313936Y92767D01*
X313240Y92906D01*
D02*
G37*
G36*
X340700D02*
X340003Y92767D01*
X338336Y91653D01*
X337222Y89986D01*
X337084Y89290D01*
X340700D01*
Y92906D01*
D02*
G37*
G36*
X290345Y103946D02*
X289648Y103808D01*
X287981Y102694D01*
X286867Y101026D01*
X286729Y100330D01*
X290345D01*
Y103946D01*
D02*
G37*
G36*
X310700Y116750D02*
X307084D01*
X307222Y116053D01*
X308336Y114386D01*
X310003Y113272D01*
X310700Y113134D01*
Y116750D01*
D02*
G37*
G36*
X316856D02*
X313240D01*
Y113134D01*
X313936Y113272D01*
X315603Y114386D01*
X316717Y116053D01*
X316856Y116750D01*
D02*
G37*
G36*
X253240Y92906D02*
Y89290D01*
X256856D01*
X256717Y89986D01*
X255603Y91653D01*
X253936Y92767D01*
X253240Y92906D01*
D02*
G37*
G36*
X136856Y116750D02*
X133240D01*
Y113134D01*
X133936Y113272D01*
X135603Y114386D01*
X136717Y116053D01*
X136856Y116750D01*
D02*
G37*
G36*
X292885Y103946D02*
Y100330D01*
X296501D01*
X296363Y101026D01*
X295249Y102694D01*
X293582Y103808D01*
X292885Y103946D01*
D02*
G37*
G36*
X91750Y123478D02*
X89746Y123214D01*
X86696Y121951D01*
X84076Y119941D01*
X82066Y117321D01*
X80803Y114271D01*
X80539Y112267D01*
X91750D01*
Y123478D01*
D02*
G37*
G36*
X130700Y116750D02*
X127084D01*
X127222Y116053D01*
X128336Y114386D01*
X130003Y113272D01*
X130700Y113134D01*
Y116750D01*
D02*
G37*
G36*
X493240Y152906D02*
Y149290D01*
X496856D01*
X496717Y149986D01*
X495603Y151653D01*
X493936Y152767D01*
X493240Y152906D01*
D02*
G37*
G36*
X520700D02*
X520003Y152767D01*
X518336Y151653D01*
X517222Y149986D01*
X517084Y149290D01*
X520700D01*
Y152906D01*
D02*
G37*
G36*
X523240D02*
Y149290D01*
X526856D01*
X526717Y149986D01*
X525603Y151653D01*
X523936Y152767D01*
X523240Y152906D01*
D02*
G37*
G36*
X490700D02*
X490003Y152767D01*
X488336Y151653D01*
X487222Y149986D01*
X487084Y149290D01*
X490700D01*
Y152906D01*
D02*
G37*
G36*
X91750Y157427D02*
X80539D01*
X80803Y155423D01*
X82066Y152373D01*
X84076Y149753D01*
X86696Y147743D01*
X89746Y146480D01*
X91750Y146216D01*
Y157427D01*
D02*
G37*
G36*
X250700Y152906D02*
X250003Y152767D01*
X248336Y151653D01*
X247222Y149986D01*
X247084Y149290D01*
X250700D01*
Y152906D01*
D02*
G37*
G36*
X253240D02*
Y149290D01*
X256856D01*
X256717Y149986D01*
X255603Y151653D01*
X253936Y152767D01*
X253240Y152906D01*
D02*
G37*
G36*
X580700D02*
X580003Y152767D01*
X578336Y151653D01*
X577222Y149986D01*
X577084Y149290D01*
X580700D01*
Y152906D01*
D02*
G37*
G36*
X361906Y157480D02*
X358290D01*
Y153864D01*
X358987Y154002D01*
X360654Y155116D01*
X361768Y156784D01*
X361906Y157480D01*
D02*
G37*
G36*
X125480Y164727D02*
X114290D01*
Y155749D01*
X115400D01*
X118052Y156098D01*
X120524Y157122D01*
X122646Y158751D01*
X124275Y160873D01*
X125299Y163345D01*
X125480Y164727D01*
D02*
G37*
G36*
X91750Y171178D02*
X89746Y170914D01*
X86696Y169651D01*
X84076Y167641D01*
X82066Y165021D01*
X80803Y161971D01*
X80539Y159967D01*
X91750D01*
Y171178D01*
D02*
G37*
G36*
X355750Y157480D02*
X352134D01*
X352272Y156784D01*
X353386Y155116D01*
X355053Y154002D01*
X355750Y153864D01*
Y157480D01*
D02*
G37*
G36*
X583240Y152906D02*
Y149290D01*
X586856D01*
X586717Y149986D01*
X585603Y151653D01*
X583936Y152767D01*
X583240Y152906D01*
D02*
G37*
G36*
X610700D02*
X610003Y152767D01*
X608336Y151653D01*
X607222Y149986D01*
X607084Y149290D01*
X610700D01*
Y152906D01*
D02*
G37*
G36*
X613240D02*
Y149290D01*
X616856D01*
X616717Y149986D01*
X615603Y151653D01*
X613936Y152767D01*
X613240Y152906D01*
D02*
G37*
G36*
X250700Y146750D02*
X247084D01*
X247222Y146053D01*
X248336Y144386D01*
X250003Y143272D01*
X250700Y143134D01*
Y146750D01*
D02*
G37*
G36*
X256856D02*
X253240D01*
Y143134D01*
X253936Y143272D01*
X255603Y144386D01*
X256717Y146053D01*
X256856Y146750D01*
D02*
G37*
G36*
X472590Y155751D02*
X430680D01*
X428827Y155507D01*
X427099Y154792D01*
X425616Y153654D01*
X335004Y63041D01*
X285900D01*
X284046Y62797D01*
X282319Y62082D01*
X280836Y60944D01*
X279698Y59461D01*
X278983Y57733D01*
X278739Y55880D01*
X278983Y54026D01*
X279698Y52299D01*
X280836Y50816D01*
X282319Y49678D01*
X284046Y48963D01*
X285900Y48719D01*
X335004D01*
X346876Y36846D01*
X348359Y35708D01*
X350087Y34993D01*
X351940Y34749D01*
X425600D01*
X427453Y34993D01*
X429181Y35708D01*
X430664Y36846D01*
X433646Y39829D01*
X456080D01*
X457934Y40073D01*
X459661Y40788D01*
X461144Y41926D01*
X462282Y43409D01*
X462997Y45136D01*
X463241Y46990D01*
X462997Y48843D01*
X462282Y50571D01*
X461144Y52054D01*
X459661Y53192D01*
X457934Y53907D01*
X456080Y54151D01*
X430680D01*
X428826Y53907D01*
X427099Y53192D01*
X425616Y52054D01*
X422634Y49071D01*
X406015D01*
X405762Y50341D01*
X408334Y51407D01*
X410862Y53346D01*
X412801Y55874D01*
X414021Y58817D01*
X414436Y61976D01*
X414021Y65135D01*
X412801Y68078D01*
X410862Y70606D01*
X408334Y72545D01*
X405391Y73765D01*
X405018Y73814D01*
Y75095D01*
X405506Y75159D01*
X408556Y76422D01*
X411176Y78432D01*
X413186Y81052D01*
X414449Y84102D01*
X414713Y86106D01*
X402232D01*
X389751D01*
X390015Y84102D01*
X391278Y81052D01*
X393288Y78432D01*
X395908Y76422D01*
X398958Y75159D01*
X399446Y75095D01*
Y73814D01*
X399073Y73765D01*
X396130Y72545D01*
X393602Y70606D01*
X391663Y68078D01*
X390443Y65135D01*
X390028Y61976D01*
X390443Y58817D01*
X391663Y55874D01*
X393602Y53346D01*
X396130Y51407D01*
X398702Y50341D01*
X398449Y49071D01*
X354906D01*
X348098Y55880D01*
X433646Y141429D01*
X469624D01*
X524676Y86376D01*
X526159Y85238D01*
X527887Y84523D01*
X529740Y84279D01*
X629203D01*
X630330Y82810D01*
X631799Y81683D01*
Y75797D01*
X630330Y74670D01*
X628391Y72142D01*
X627171Y69199D01*
X626756Y66040D01*
X627171Y62881D01*
X628391Y59938D01*
X630330Y57410D01*
X632858Y55471D01*
X635801Y54251D01*
X638960Y53836D01*
X642119Y54251D01*
X645062Y55471D01*
X647590Y57410D01*
X649529Y59938D01*
X650749Y62881D01*
X651164Y66040D01*
X650749Y69199D01*
X649529Y72142D01*
X647590Y74670D01*
X646121Y75797D01*
Y81683D01*
X647590Y82810D01*
X649529Y85338D01*
X650749Y88281D01*
X651164Y91440D01*
X650749Y94599D01*
X649529Y97542D01*
X647590Y100070D01*
X646121Y101197D01*
Y107083D01*
X647590Y108210D01*
X649529Y110738D01*
X650749Y113681D01*
X651164Y116840D01*
X650749Y119999D01*
X649529Y122942D01*
X647590Y125470D01*
X645062Y127409D01*
X642119Y128629D01*
X641746Y128678D01*
Y129959D01*
X642234Y130023D01*
X645284Y131286D01*
X647904Y133296D01*
X649914Y135916D01*
X651177Y138966D01*
X651441Y140970D01*
X638960D01*
X626479D01*
X626743Y138966D01*
X628006Y135916D01*
X630016Y133296D01*
X632636Y131286D01*
X635686Y130023D01*
X636174Y129959D01*
Y128678D01*
X635801Y128629D01*
X632858Y127409D01*
X630330Y125470D01*
X628391Y122942D01*
X627171Y119999D01*
X626756Y116840D01*
X627171Y113681D01*
X628391Y110738D01*
X630330Y108210D01*
X631799Y107083D01*
Y101197D01*
X630330Y100070D01*
X629203Y98601D01*
X532706D01*
X518676Y112632D01*
X519486Y113618D01*
X520003Y113272D01*
X520700Y113134D01*
Y116750D01*
X517084D01*
X517222Y116053D01*
X517568Y115536D01*
X516581Y114726D01*
X488676Y142632D01*
X489486Y143618D01*
X490003Y143272D01*
X490700Y143134D01*
Y146750D01*
X487084D01*
X487222Y146053D01*
X487568Y145536D01*
X486581Y144726D01*
X477654Y153654D01*
X476171Y154792D01*
X474444Y155507D01*
X472590Y155751D01*
D02*
G37*
G36*
X613240Y122906D02*
Y119290D01*
X616856D01*
X616717Y119986D01*
X615603Y121653D01*
X613936Y122767D01*
X613240Y122906D01*
D02*
G37*
G36*
X580700D02*
X580003Y122767D01*
X578336Y121653D01*
X577222Y119986D01*
X577084Y119290D01*
X580700D01*
Y122906D01*
D02*
G37*
G36*
X583240D02*
Y119290D01*
X586856D01*
X586717Y119986D01*
X585603Y121653D01*
X583936Y122767D01*
X583240Y122906D01*
D02*
G37*
G36*
X610700D02*
X610003Y122767D01*
X608336Y121653D01*
X607222Y119986D01*
X607084Y119290D01*
X610700D01*
Y122906D01*
D02*
G37*
G36*
X496856Y146750D02*
X493240D01*
Y143134D01*
X493936Y143272D01*
X495603Y144386D01*
X496717Y146053D01*
X496856Y146750D01*
D02*
G37*
G36*
X610700D02*
X607084D01*
X607222Y146053D01*
X608336Y144386D01*
X610003Y143272D01*
X610700Y143134D01*
Y146750D01*
D02*
G37*
G36*
X616856D02*
X613240D01*
Y143134D01*
X613936Y143272D01*
X615603Y144386D01*
X616717Y146053D01*
X616856Y146750D01*
D02*
G37*
G36*
X651441Y166370D02*
X638960D01*
X626479D01*
X626743Y164366D01*
X628006Y161316D01*
X630016Y158696D01*
X632636Y156686D01*
X635193Y155627D01*
Y154253D01*
X632636Y153194D01*
X630016Y151184D01*
X628006Y148564D01*
X626743Y145514D01*
X626479Y143510D01*
X638960D01*
X651441D01*
X651177Y145514D01*
X649914Y148564D01*
X647904Y151184D01*
X645284Y153194D01*
X642727Y154253D01*
Y155627D01*
X645284Y156686D01*
X647904Y158696D01*
X649914Y161316D01*
X651177Y164366D01*
X651441Y166370D01*
D02*
G37*
G36*
X586856Y146750D02*
X583240D01*
Y143134D01*
X583936Y143272D01*
X585603Y144386D01*
X586717Y146053D01*
X586856Y146750D01*
D02*
G37*
G36*
X520700D02*
X517084D01*
X517222Y146053D01*
X518336Y144386D01*
X520003Y143272D01*
X520700Y143134D01*
Y146750D01*
D02*
G37*
G36*
X526856D02*
X523240D01*
Y143134D01*
X523936Y143272D01*
X525603Y144386D01*
X526717Y146053D01*
X526856Y146750D01*
D02*
G37*
G36*
X580700D02*
X577084D01*
X577222Y146053D01*
X578336Y144386D01*
X580003Y143272D01*
X580700Y143134D01*
Y146750D01*
D02*
G37*
G36*
X250700Y92906D02*
X250003Y92767D01*
X248336Y91653D01*
X247222Y89986D01*
X247084Y89290D01*
X250700D01*
Y92906D01*
D02*
G37*
G36*
X160700Y32906D02*
X160003Y32767D01*
X158336Y31653D01*
X157222Y29986D01*
X157084Y29290D01*
X160700D01*
Y32906D01*
D02*
G37*
G36*
X163240D02*
Y29290D01*
X166856D01*
X166717Y29986D01*
X165603Y31653D01*
X163936Y32767D01*
X163240Y32906D01*
D02*
G37*
G36*
X190700D02*
X190003Y32767D01*
X188336Y31653D01*
X187222Y29986D01*
X187084Y29290D01*
X190700D01*
Y32906D01*
D02*
G37*
G36*
X133240D02*
Y29290D01*
X136856D01*
X136717Y29986D01*
X135603Y31653D01*
X133936Y32767D01*
X133240Y32906D01*
D02*
G37*
G36*
X250700Y26750D02*
X247084D01*
X247222Y26053D01*
X248336Y24386D01*
X250003Y23272D01*
X250700Y23134D01*
Y26750D01*
D02*
G37*
G36*
X256856D02*
X253240D01*
Y23134D01*
X253936Y23272D01*
X255603Y24386D01*
X256717Y26053D01*
X256856Y26750D01*
D02*
G37*
G36*
X130700Y32906D02*
X130003Y32767D01*
X128336Y31653D01*
X127222Y29986D01*
X127084Y29290D01*
X130700D01*
Y32906D01*
D02*
G37*
G36*
X193240D02*
Y29290D01*
X196856D01*
X196717Y29986D01*
X195603Y31653D01*
X193936Y32767D01*
X193240Y32906D01*
D02*
G37*
G36*
X106856Y56750D02*
X97084D01*
X97222Y56053D01*
X98336Y54386D01*
X99151Y53842D01*
X98823Y52533D01*
X95581Y52214D01*
X91333Y50925D01*
X87417Y48832D01*
X83985Y46015D01*
X81168Y42583D01*
X79075Y38667D01*
X77786Y34419D01*
X77476Y31270D01*
X100000D01*
Y30000D01*
D01*
Y31270D01*
X122524D01*
X122214Y34419D01*
X120925Y38667D01*
X118832Y42583D01*
X116015Y46015D01*
X112583Y48832D01*
X108667Y50925D01*
X104502Y52189D01*
X104389Y52490D01*
X104282Y53503D01*
X105603Y54386D01*
X106717Y56053D01*
X106856Y56750D01*
D02*
G37*
G36*
X499260Y34290D02*
X495644D01*
X495782Y33593D01*
X496896Y31926D01*
X498563Y30812D01*
X499260Y30674D01*
Y34290D01*
D02*
G37*
G36*
X505416D02*
X501800D01*
Y30674D01*
X502496Y30812D01*
X504164Y31926D01*
X505278Y33593D01*
X505416Y34290D01*
D02*
G37*
G36*
X253240Y32906D02*
Y29290D01*
X256856D01*
X256717Y29986D01*
X255603Y31653D01*
X253936Y32767D01*
X253240Y32906D01*
D02*
G37*
G36*
X220700D02*
X220003Y32767D01*
X218336Y31653D01*
X217222Y29986D01*
X217084Y29290D01*
X220700D01*
Y32906D01*
D02*
G37*
G36*
X223240D02*
Y29290D01*
X226856D01*
X226717Y29986D01*
X225603Y31653D01*
X223936Y32767D01*
X223240Y32906D01*
D02*
G37*
G36*
X250700D02*
X250003Y32767D01*
X248336Y31653D01*
X247222Y29986D01*
X247084Y29290D01*
X250700D01*
Y32906D01*
D02*
G37*
G36*
X277010Y18856D02*
X276313Y18718D01*
X274646Y17604D01*
X273532Y15936D01*
X273394Y15240D01*
X277010D01*
Y18856D01*
D02*
G37*
G36*
X279550D02*
Y15240D01*
X283166D01*
X283028Y15936D01*
X281914Y17604D01*
X280247Y18718D01*
X279550Y18856D01*
D02*
G37*
G36*
X640230Y29984D02*
X637071Y29569D01*
X634128Y28349D01*
X631600Y26410D01*
X629661Y23882D01*
X628441Y20939D01*
X628171Y18881D01*
X626889D01*
X626619Y20939D01*
X625399Y23882D01*
X623460Y26410D01*
X620932Y28349D01*
X617989Y29569D01*
X614830Y29984D01*
X611671Y29569D01*
X608728Y28349D01*
X606200Y26410D01*
X604261Y23882D01*
X603041Y20939D01*
X602771Y18881D01*
X601489D01*
X601219Y20939D01*
X599999Y23882D01*
X598060Y26410D01*
X595532Y28349D01*
X592589Y29569D01*
X589430Y29984D01*
X586271Y29569D01*
X583328Y28349D01*
X580800Y26410D01*
X578861Y23882D01*
X577641Y20939D01*
X577370Y18881D01*
X576090D01*
X575819Y20939D01*
X574599Y23882D01*
X572660Y26410D01*
X570132Y28349D01*
X567189Y29569D01*
X564030Y29984D01*
X560871Y29569D01*
X557928Y28349D01*
X555400Y26410D01*
X553461Y23882D01*
X552241Y20939D01*
X551970Y18881D01*
X550690D01*
X550419Y20939D01*
X549199Y23882D01*
X547260Y26410D01*
X544732Y28349D01*
X541789Y29569D01*
X538630Y29984D01*
X535471Y29569D01*
X532528Y28349D01*
X530000Y26410D01*
X528061Y23882D01*
X526841Y20939D01*
X526571Y18881D01*
X525289D01*
X525019Y20939D01*
X523799Y23882D01*
X521860Y26410D01*
X519332Y28349D01*
X516389Y29569D01*
X513230Y29984D01*
X510071Y29569D01*
X507128Y28349D01*
X504600Y26410D01*
X502661Y23882D01*
X501441Y20939D01*
X501171Y18881D01*
X499889D01*
X499619Y20939D01*
X498399Y23882D01*
X496460Y26410D01*
X493932Y28349D01*
X490989Y29569D01*
X487830Y29984D01*
X484671Y29569D01*
X481728Y28349D01*
X479200Y26410D01*
X477261Y23882D01*
X476041Y20939D01*
X475770Y18881D01*
X474490D01*
X474219Y20939D01*
X472999Y23882D01*
X471060Y26410D01*
X468532Y28349D01*
X465589Y29569D01*
X462430Y29984D01*
X459271Y29569D01*
X456328Y28349D01*
X453800Y26410D01*
X451861Y23882D01*
X450641Y20939D01*
X450370Y18881D01*
X449090D01*
X448819Y20939D01*
X447599Y23882D01*
X445660Y26410D01*
X443132Y28349D01*
X440189Y29569D01*
X437030Y29984D01*
X433871Y29569D01*
X430928Y28349D01*
X428400Y26410D01*
X426461Y23882D01*
X425241Y20939D01*
X425000Y19105D01*
X423730Y19188D01*
Y29880D01*
X399530D01*
Y5680D01*
X423730D01*
Y16372D01*
X425000Y16455D01*
X425241Y14621D01*
X426461Y11678D01*
X428400Y9150D01*
X430928Y7211D01*
X433871Y5991D01*
X437030Y5576D01*
X440189Y5991D01*
X443132Y7211D01*
X445660Y9150D01*
X447599Y11678D01*
X448819Y14621D01*
X449090Y16679D01*
X450370D01*
X450641Y14621D01*
X451861Y11678D01*
X453800Y9150D01*
X456328Y7211D01*
X459271Y5991D01*
X462430Y5576D01*
X465589Y5991D01*
X468532Y7211D01*
X471060Y9150D01*
X472999Y11678D01*
X474219Y14621D01*
X474490Y16679D01*
X475770D01*
X476041Y14621D01*
X477261Y11678D01*
X479200Y9150D01*
X481728Y7211D01*
X484671Y5991D01*
X487830Y5576D01*
X490989Y5991D01*
X493932Y7211D01*
X496460Y9150D01*
X498399Y11678D01*
X499619Y14621D01*
X499889Y16679D01*
X501171D01*
X501441Y14621D01*
X502661Y11678D01*
X504600Y9150D01*
X507128Y7211D01*
X510071Y5991D01*
X513230Y5576D01*
X516389Y5991D01*
X519332Y7211D01*
X521860Y9150D01*
X523799Y11678D01*
X525019Y14621D01*
X525289Y16679D01*
X526571D01*
X526841Y14621D01*
X528061Y11678D01*
X530000Y9150D01*
X532528Y7211D01*
X535471Y5991D01*
X538630Y5576D01*
X541789Y5991D01*
X544732Y7211D01*
X547260Y9150D01*
X549199Y11678D01*
X550419Y14621D01*
X550690Y16679D01*
X551970D01*
X552241Y14621D01*
X553461Y11678D01*
X555400Y9150D01*
X557928Y7211D01*
X560871Y5991D01*
X564030Y5576D01*
X567189Y5991D01*
X570132Y7211D01*
X572660Y9150D01*
X574599Y11678D01*
X575819Y14621D01*
X576090Y16679D01*
X577370D01*
X577641Y14621D01*
X578861Y11678D01*
X580800Y9150D01*
X583328Y7211D01*
X586271Y5991D01*
X589430Y5576D01*
X592589Y5991D01*
X595532Y7211D01*
X598060Y9150D01*
X599999Y11678D01*
X601219Y14621D01*
X601489Y16679D01*
X602771D01*
X603041Y14621D01*
X604261Y11678D01*
X606200Y9150D01*
X608728Y7211D01*
X611671Y5991D01*
X614830Y5576D01*
X617989Y5991D01*
X620932Y7211D01*
X623460Y9150D01*
X625399Y11678D01*
X626619Y14621D01*
X626889Y16679D01*
X628171D01*
X628441Y14621D01*
X629661Y11678D01*
X631600Y9150D01*
X634128Y7211D01*
X637071Y5991D01*
X640230Y5576D01*
X643389Y5991D01*
X646332Y7211D01*
X648860Y9150D01*
X650799Y11678D01*
X652019Y14621D01*
X652434Y17780D01*
X652019Y20939D01*
X650799Y23882D01*
X648860Y26410D01*
X646332Y28349D01*
X643389Y29569D01*
X640230Y29984D01*
D02*
G37*
G36*
X283166Y12700D02*
X279550D01*
Y9084D01*
X280247Y9222D01*
X281914Y10336D01*
X283028Y12004D01*
X283166Y12700D01*
D02*
G37*
G36*
X98730Y28730D02*
X77476D01*
X77786Y25581D01*
X79075Y21333D01*
X81168Y17417D01*
X83985Y13985D01*
X87417Y11168D01*
X91333Y9075D01*
X95581Y7786D01*
X98730Y7476D01*
Y28730D01*
D02*
G37*
G36*
X122524D02*
X101270D01*
Y7476D01*
X104419Y7786D01*
X108667Y9075D01*
X112583Y11168D01*
X116015Y13985D01*
X118832Y17417D01*
X120925Y21333D01*
X122214Y25581D01*
X122524Y28730D01*
D02*
G37*
G36*
X277010Y12700D02*
X273394D01*
X273532Y12004D01*
X274646Y10336D01*
X276313Y9222D01*
X277010Y9084D01*
Y12700D01*
D02*
G37*
G36*
X130700Y26750D02*
X127084D01*
X127222Y26053D01*
X128336Y24386D01*
X130003Y23272D01*
X130700Y23134D01*
Y26750D01*
D02*
G37*
G36*
X196856D02*
X193240D01*
Y23134D01*
X193936Y23272D01*
X195603Y24386D01*
X196717Y26053D01*
X196856Y26750D01*
D02*
G37*
G36*
X220700D02*
X217084D01*
X217222Y26053D01*
X218336Y24386D01*
X220003Y23272D01*
X220700Y23134D01*
Y26750D01*
D02*
G37*
G36*
X226856D02*
X223240D01*
Y23134D01*
X223936Y23272D01*
X225603Y24386D01*
X226717Y26053D01*
X226856Y26750D01*
D02*
G37*
G36*
X190700D02*
X187084D01*
X187222Y26053D01*
X188336Y24386D01*
X190003Y23272D01*
X190700Y23134D01*
Y26750D01*
D02*
G37*
G36*
X136856D02*
X133240D01*
Y23134D01*
X133936Y23272D01*
X135603Y24386D01*
X136717Y26053D01*
X136856Y26750D01*
D02*
G37*
G36*
X160700D02*
X157084D01*
X157222Y26053D01*
X158336Y24386D01*
X160003Y23272D01*
X160700Y23134D01*
Y26750D01*
D02*
G37*
G36*
X166856D02*
X163240D01*
Y23134D01*
X163936Y23272D01*
X165603Y24386D01*
X166717Y26053D01*
X166856Y26750D01*
D02*
G37*
G36*
X499260Y40446D02*
X498563Y40308D01*
X496896Y39194D01*
X495782Y37527D01*
X495644Y36830D01*
X499260D01*
Y40446D01*
D02*
G37*
G36*
X136856Y86750D02*
X133240D01*
Y83134D01*
X133936Y83272D01*
X135603Y84386D01*
X136717Y86053D01*
X136856Y86750D01*
D02*
G37*
G36*
X250700D02*
X247084D01*
X247222Y86053D01*
X248336Y84386D01*
X250003Y83272D01*
X250700Y83134D01*
Y86750D01*
D02*
G37*
G36*
X256856D02*
X253240D01*
Y83134D01*
X253936Y83272D01*
X255603Y84386D01*
X256717Y86053D01*
X256856Y86750D01*
D02*
G37*
G36*
X130700D02*
X127084D01*
X127222Y86053D01*
X128336Y84386D01*
X130003Y83272D01*
X130700Y83134D01*
Y86750D01*
D02*
G37*
G36*
X610700Y62906D02*
X610003Y62767D01*
X608336Y61653D01*
X607222Y59986D01*
X607084Y59290D01*
X610700D01*
Y62906D01*
D02*
G37*
G36*
X613240D02*
Y59290D01*
X616856D01*
X616717Y59986D01*
X615603Y61653D01*
X613936Y62767D01*
X613240Y62906D01*
D02*
G37*
G36*
X436856Y116750D02*
X427084D01*
X427222Y116053D01*
X427990Y114904D01*
X428634Y113806D01*
X427617Y112285D01*
X427260Y110490D01*
X427617Y108695D01*
X428634Y107174D01*
X430155Y106157D01*
X431325Y105924D01*
X455324Y81925D01*
X455557Y80755D01*
X456574Y79234D01*
X458095Y78217D01*
X459890Y77860D01*
X461685Y78217D01*
X463206Y79234D01*
X464223Y80755D01*
X464580Y82550D01*
X464223Y84345D01*
X463206Y85866D01*
X461685Y86883D01*
X460515Y87116D01*
X436516Y111115D01*
X436283Y112285D01*
X435266Y113806D01*
X435937Y114886D01*
X436717Y116053D01*
X436856Y116750D01*
D02*
G37*
G36*
X310700Y86750D02*
X307084D01*
X307222Y86053D01*
X308336Y84386D01*
X310003Y83272D01*
X310700Y83134D01*
Y86750D01*
D02*
G37*
G36*
X403502Y99857D02*
Y88646D01*
X414713D01*
X414449Y90650D01*
X413186Y93700D01*
X411176Y96320D01*
X408556Y98330D01*
X405506Y99593D01*
X403502Y99857D01*
D02*
G37*
G36*
X130700Y92906D02*
X130003Y92767D01*
X128336Y91653D01*
X127222Y89986D01*
X127084Y89290D01*
X130700D01*
Y92906D01*
D02*
G37*
G36*
X133240D02*
Y89290D01*
X136856D01*
X136717Y89986D01*
X135603Y91653D01*
X133936Y92767D01*
X133240Y92906D01*
D02*
G37*
G36*
X400962Y99857D02*
X398958Y99593D01*
X395908Y98330D01*
X393288Y96320D01*
X391278Y93700D01*
X390015Y90650D01*
X389751Y88646D01*
X400962D01*
Y99857D01*
D02*
G37*
G36*
X316856Y86750D02*
X313240D01*
Y83134D01*
X313936Y83272D01*
X315603Y84386D01*
X316717Y86053D01*
X316856Y86750D01*
D02*
G37*
G36*
X340700D02*
X337084D01*
X337222Y86053D01*
X338336Y84386D01*
X340003Y83272D01*
X340700Y83134D01*
Y86750D01*
D02*
G37*
G36*
X346856D02*
X343240D01*
Y83134D01*
X343936Y83272D01*
X345603Y84386D01*
X346717Y86053D01*
X346856Y86750D01*
D02*
G37*
G36*
X256856Y56750D02*
X253240D01*
Y53134D01*
X253936Y53272D01*
X255603Y54386D01*
X256717Y56053D01*
X256856Y56750D01*
D02*
G37*
G36*
X370700D02*
X367084D01*
X367222Y56053D01*
X368336Y54386D01*
X370003Y53272D01*
X370700Y53134D01*
Y56750D01*
D02*
G37*
G36*
X376856D02*
X373240D01*
Y53134D01*
X373936Y53272D01*
X375603Y54386D01*
X376717Y56053D01*
X376856Y56750D01*
D02*
G37*
G36*
X250700D02*
X247084D01*
X247222Y56053D01*
X248336Y54386D01*
X250003Y53272D01*
X250700Y53134D01*
Y56750D01*
D02*
G37*
G36*
X501800Y40446D02*
Y36830D01*
X505416D01*
X505278Y37527D01*
X504164Y39194D01*
X502496Y40308D01*
X501800Y40446D01*
D02*
G37*
G36*
X130700Y56750D02*
X127084D01*
X127222Y56053D01*
X128336Y54386D01*
X130003Y53272D01*
X130700Y53134D01*
Y56750D01*
D02*
G37*
G36*
X136856D02*
X133240D01*
Y53134D01*
X133936Y53272D01*
X135603Y54386D01*
X136717Y56053D01*
X136856Y56750D01*
D02*
G37*
G36*
X610700D02*
X607084D01*
X607222Y56053D01*
X608336Y54386D01*
X610003Y53272D01*
X610700Y53134D01*
Y56750D01*
D02*
G37*
G36*
X253240Y62906D02*
Y59290D01*
X256856D01*
X256717Y59986D01*
X255603Y61653D01*
X253936Y62767D01*
X253240Y62906D01*
D02*
G37*
G36*
X370700D02*
X370003Y62767D01*
X368336Y61653D01*
X367222Y59986D01*
X367084Y59290D01*
X370700D01*
Y62906D01*
D02*
G37*
G36*
X373240D02*
Y59290D01*
X376856D01*
X376717Y59986D01*
X375603Y61653D01*
X373936Y62767D01*
X373240Y62906D01*
D02*
G37*
G36*
X250700D02*
X250003Y62767D01*
X248336Y61653D01*
X247222Y59986D01*
X247084Y59290D01*
X250700D01*
Y62906D01*
D02*
G37*
G36*
X616856Y56750D02*
X613240D01*
Y53134D01*
X613936Y53272D01*
X615603Y54386D01*
X616717Y56053D01*
X616856Y56750D01*
D02*
G37*
G36*
X130700Y62906D02*
X130003Y62767D01*
X128336Y61653D01*
X127222Y59986D01*
X127084Y59290D01*
X130700D01*
Y62906D01*
D02*
G37*
G36*
X133240D02*
Y59290D01*
X136856D01*
X136717Y59986D01*
X135603Y61653D01*
X133936Y62767D01*
X133240Y62906D01*
D02*
G37*
G36*
X358290Y163636D02*
Y160020D01*
X361906D01*
X361768Y160716D01*
X360654Y162384D01*
X358987Y163498D01*
X358290Y163636D01*
D02*
G37*
G36*
X388770Y230946D02*
X388074Y230808D01*
X386406Y229694D01*
X385292Y228027D01*
X385154Y227330D01*
X388770D01*
Y230946D01*
D02*
G37*
G36*
X391310D02*
Y227330D01*
X394926D01*
X394788Y228027D01*
X393674Y229694D01*
X392006Y230808D01*
X391310Y230946D01*
D02*
G37*
G36*
X130700Y236750D02*
X127084D01*
X127222Y236053D01*
X128336Y234386D01*
X130003Y233272D01*
X130700Y233134D01*
Y236750D01*
D02*
G37*
G36*
X463700Y225670D02*
X461905Y225313D01*
X460384Y224296D01*
X459367Y222775D01*
X459134Y221605D01*
X458370Y220840D01*
X393586D01*
X393201Y222111D01*
X393674Y222426D01*
X394788Y224093D01*
X394926Y224790D01*
X385154D01*
X385292Y224093D01*
X386406Y222426D01*
X386993Y222034D01*
X386725Y220686D01*
X386095Y220561D01*
X384905Y219765D01*
X332265Y167126D01*
X331095Y166893D01*
X329574Y165876D01*
X328557Y164355D01*
X328200Y162560D01*
X328557Y160765D01*
X329574Y159244D01*
X331095Y158227D01*
X332890Y157870D01*
X334685Y158227D01*
X336206Y159244D01*
X337223Y160765D01*
X337456Y161935D01*
X389020Y213500D01*
X459890D01*
X461295Y213779D01*
X462486Y214575D01*
X464325Y216414D01*
X465495Y216647D01*
X467016Y217664D01*
X468033Y219185D01*
X468390Y220980D01*
X468033Y222775D01*
X467016Y224296D01*
X465495Y225313D01*
X463700Y225670D01*
D02*
G37*
G36*
X513036Y215900D02*
X509420D01*
Y212284D01*
X510117Y212422D01*
X511784Y213536D01*
X512898Y215203D01*
X513036Y215900D01*
D02*
G37*
G36*
X506880Y222056D02*
X506184Y221918D01*
X504516Y220804D01*
X503402Y219137D01*
X503264Y218440D01*
X506880D01*
Y222056D01*
D02*
G37*
G36*
X509420D02*
Y218440D01*
X513036D01*
X512898Y219137D01*
X511784Y220804D01*
X510117Y221918D01*
X509420Y222056D01*
D02*
G37*
G36*
X136856Y236750D02*
X133240D01*
Y233134D01*
X133936Y233272D01*
X135603Y234386D01*
X136717Y236053D01*
X136856Y236750D01*
D02*
G37*
G36*
X220700D02*
X217084D01*
X217222Y236053D01*
X218336Y234386D01*
X220003Y233272D01*
X220700Y233134D01*
Y236750D01*
D02*
G37*
G36*
X226856D02*
X223240D01*
Y233134D01*
X223936Y233272D01*
X225603Y234386D01*
X226717Y236053D01*
X226856Y236750D01*
D02*
G37*
G36*
X250700D02*
X247084D01*
X247222Y236053D01*
X248336Y234386D01*
X250003Y233272D01*
X250700Y233134D01*
Y236750D01*
D02*
G37*
G36*
X196856D02*
X193240D01*
Y233134D01*
X193936Y233272D01*
X195603Y234386D01*
X196717Y236053D01*
X196856Y236750D01*
D02*
G37*
G36*
X160700D02*
X157084D01*
X157222Y236053D01*
X158336Y234386D01*
X160003Y233272D01*
X160700Y233134D01*
Y236750D01*
D02*
G37*
G36*
X166856D02*
X163240D01*
Y233134D01*
X163936Y233272D01*
X165603Y234386D01*
X166717Y236053D01*
X166856Y236750D01*
D02*
G37*
G36*
X190700D02*
X187084D01*
X187222Y236053D01*
X188336Y234386D01*
X190003Y233272D01*
X190700Y233134D01*
Y236750D01*
D02*
G37*
G36*
X250700Y212906D02*
X250003Y212767D01*
X248336Y211653D01*
X247222Y209986D01*
X247084Y209290D01*
X250700D01*
Y212906D01*
D02*
G37*
G36*
X253240D02*
Y209290D01*
X256856D01*
X256717Y209986D01*
X255603Y211653D01*
X253936Y212767D01*
X253240Y212906D01*
D02*
G37*
G36*
X280700D02*
X280003Y212767D01*
X278336Y211653D01*
X277222Y209986D01*
X277084Y209290D01*
X280700D01*
Y212906D01*
D02*
G37*
G36*
X223240D02*
Y209290D01*
X226856D01*
X226717Y209986D01*
X225603Y211653D01*
X223936Y212767D01*
X223240Y212906D01*
D02*
G37*
G36*
X190700D02*
X190003Y212767D01*
X188336Y211653D01*
X187222Y209986D01*
X187084Y209290D01*
X190700D01*
Y212906D01*
D02*
G37*
G36*
X193240D02*
Y209290D01*
X196856D01*
X196717Y209986D01*
X195603Y211653D01*
X193936Y212767D01*
X193240Y212906D01*
D02*
G37*
G36*
X220700D02*
X220003Y212767D01*
X218336Y211653D01*
X217222Y209986D01*
X217084Y209290D01*
X220700D01*
Y212906D01*
D02*
G37*
G36*
X283240D02*
Y209290D01*
X286856D01*
X286717Y209986D01*
X285603Y211653D01*
X283936Y212767D01*
X283240Y212906D01*
D02*
G37*
G36*
X610700D02*
X610003Y212767D01*
X608336Y211653D01*
X607222Y209986D01*
X607084Y209290D01*
X610700D01*
Y212906D01*
D02*
G37*
G36*
X613240D02*
Y209290D01*
X616856D01*
X616717Y209986D01*
X615603Y211653D01*
X613936Y212767D01*
X613240Y212906D01*
D02*
G37*
G36*
X506880Y215900D02*
X503264D01*
X503402Y215203D01*
X504516Y213536D01*
X506184Y212422D01*
X506880Y212284D01*
Y215900D01*
D02*
G37*
G36*
X343240Y212906D02*
Y209290D01*
X346856D01*
X346717Y209986D01*
X345603Y211653D01*
X343936Y212767D01*
X343240Y212906D01*
D02*
G37*
G36*
X310700D02*
X310003Y212767D01*
X308336Y211653D01*
X307222Y209986D01*
X307084Y209290D01*
X310700D01*
Y212906D01*
D02*
G37*
G36*
X313240D02*
Y209290D01*
X316856D01*
X316717Y209986D01*
X315603Y211653D01*
X313936Y212767D01*
X313240Y212906D01*
D02*
G37*
G36*
X340700D02*
X340003Y212767D01*
X338336Y211653D01*
X337222Y209986D01*
X337084Y209290D01*
X340700D01*
Y212906D01*
D02*
G37*
G36*
X256856Y236750D02*
X253240D01*
Y233134D01*
X253936Y233272D01*
X255603Y234386D01*
X256717Y236053D01*
X256856Y236750D01*
D02*
G37*
G36*
X250700Y242906D02*
X250003Y242767D01*
X248336Y241653D01*
X247222Y239986D01*
X247084Y239290D01*
X250700D01*
Y242906D01*
D02*
G37*
G36*
X253240D02*
Y239290D01*
X256856D01*
X256717Y239986D01*
X255603Y241653D01*
X253936Y242767D01*
X253240Y242906D01*
D02*
G37*
G36*
X280700D02*
X280003Y242767D01*
X278336Y241653D01*
X277222Y239986D01*
X277084Y239290D01*
X280700D01*
Y242906D01*
D02*
G37*
G36*
X223240D02*
Y239290D01*
X226856D01*
X226717Y239986D01*
X225603Y241653D01*
X223936Y242767D01*
X223240Y242906D01*
D02*
G37*
G36*
X190700D02*
X190003Y242767D01*
X188336Y241653D01*
X187222Y239986D01*
X187084Y239290D01*
X190700D01*
Y242906D01*
D02*
G37*
G36*
X193240D02*
Y239290D01*
X196856D01*
X196717Y239986D01*
X195603Y241653D01*
X193936Y242767D01*
X193240Y242906D01*
D02*
G37*
G36*
X220700D02*
X220003Y242767D01*
X218336Y241653D01*
X217222Y239986D01*
X217084Y239290D01*
X220700D01*
Y242906D01*
D02*
G37*
G36*
X283240D02*
Y239290D01*
X286856D01*
X286717Y239986D01*
X285603Y241653D01*
X283936Y242767D01*
X283240Y242906D01*
D02*
G37*
G36*
X370700D02*
X370003Y242767D01*
X368336Y241653D01*
X367222Y239986D01*
X367084Y239290D01*
X370700D01*
Y242906D01*
D02*
G37*
G36*
X373240D02*
Y239290D01*
X376856D01*
X376717Y239986D01*
X375603Y241653D01*
X373936Y242767D01*
X373240Y242906D01*
D02*
G37*
G36*
X537360Y258861D02*
X535356Y258597D01*
X532306Y257334D01*
X529686Y255324D01*
X527676Y252704D01*
X526413Y249654D01*
X526349Y249166D01*
X525068D01*
X525019Y249539D01*
X523799Y252482D01*
X521860Y255010D01*
X519332Y256949D01*
X516389Y258169D01*
X513230Y258584D01*
X510071Y258169D01*
X507128Y256949D01*
X504600Y255010D01*
X502661Y252482D01*
X501441Y249539D01*
X501171Y247481D01*
X499889D01*
X499619Y249539D01*
X498399Y252482D01*
X496460Y255010D01*
X493932Y256949D01*
X490989Y258169D01*
X487830Y258584D01*
X484671Y258169D01*
X481728Y256949D01*
X479200Y255010D01*
X477261Y252482D01*
X476041Y249539D01*
X475770Y247481D01*
X474490D01*
X474219Y249539D01*
X472999Y252482D01*
X471060Y255010D01*
X468532Y256949D01*
X465589Y258169D01*
X462430Y258584D01*
X459271Y258169D01*
X456328Y256949D01*
X453800Y255010D01*
X451861Y252482D01*
X450641Y249539D01*
X450370Y247481D01*
X449090D01*
X448819Y249539D01*
X447599Y252482D01*
X445660Y255010D01*
X443132Y256949D01*
X440189Y258169D01*
X437030Y258584D01*
X433871Y258169D01*
X430928Y256949D01*
X428400Y255010D01*
X426461Y252482D01*
X425241Y249539D01*
X425000Y247705D01*
X423730Y247788D01*
Y258480D01*
X399530D01*
Y234280D01*
X423730D01*
Y244972D01*
X425000Y245055D01*
X425241Y243221D01*
X426461Y240278D01*
X428400Y237750D01*
X430928Y235811D01*
X433871Y234591D01*
X437030Y234176D01*
X440189Y234591D01*
X443132Y235811D01*
X445660Y237750D01*
X447599Y240278D01*
X448819Y243221D01*
X449090Y245279D01*
X450370D01*
X450641Y243221D01*
X451861Y240278D01*
X453800Y237750D01*
X456328Y235811D01*
X459271Y234591D01*
X462430Y234176D01*
X465589Y234591D01*
X468532Y235811D01*
X471060Y237750D01*
X472999Y240278D01*
X474219Y243221D01*
X474490Y245279D01*
X475770D01*
X476041Y243221D01*
X477261Y240278D01*
X479200Y237750D01*
X481728Y235811D01*
X484671Y234591D01*
X487830Y234176D01*
X490989Y234591D01*
X493932Y235811D01*
X496460Y237750D01*
X498399Y240278D01*
X499619Y243221D01*
X499889Y245279D01*
X501171D01*
X501441Y243221D01*
X502661Y240278D01*
X504600Y237750D01*
X507128Y235811D01*
X510071Y234591D01*
X513230Y234176D01*
X516389Y234591D01*
X519332Y235811D01*
X521860Y237750D01*
X523799Y240278D01*
X525019Y243221D01*
X525068Y243594D01*
X526349D01*
X526413Y243106D01*
X527676Y240056D01*
X529686Y237436D01*
X532306Y235426D01*
X535356Y234163D01*
X537360Y233899D01*
Y246380D01*
Y258861D01*
D02*
G37*
G36*
X343240Y242906D02*
Y239290D01*
X346856D01*
X346717Y239986D01*
X345603Y241653D01*
X343936Y242767D01*
X343240Y242906D01*
D02*
G37*
G36*
X310700D02*
X310003Y242767D01*
X308336Y241653D01*
X307222Y239986D01*
X307084Y239290D01*
X310700D01*
Y242906D01*
D02*
G37*
G36*
X313240D02*
Y239290D01*
X316856D01*
X316717Y239986D01*
X315603Y241653D01*
X313936Y242767D01*
X313240Y242906D01*
D02*
G37*
G36*
X340700D02*
X340003Y242767D01*
X338336Y241653D01*
X337222Y239986D01*
X337084Y239290D01*
X340700D01*
Y242906D01*
D02*
G37*
G36*
Y236750D02*
X337084D01*
X337222Y236053D01*
X338336Y234386D01*
X340003Y233272D01*
X340700Y233134D01*
Y236750D01*
D02*
G37*
G36*
X346856D02*
X343240D01*
Y233134D01*
X343936Y233272D01*
X345603Y234386D01*
X346717Y236053D01*
X346856Y236750D01*
D02*
G37*
G36*
X370700D02*
X367084D01*
X367222Y236053D01*
X368336Y234386D01*
X370003Y233272D01*
X370700Y233134D01*
Y236750D01*
D02*
G37*
G36*
X316856D02*
X313240D01*
Y233134D01*
X313936Y233272D01*
X315603Y234386D01*
X316717Y236053D01*
X316856Y236750D01*
D02*
G37*
G36*
X280700D02*
X277084D01*
X277222Y236053D01*
X278336Y234386D01*
X280003Y233272D01*
X280700Y233134D01*
Y236750D01*
D02*
G37*
G36*
X286856D02*
X283240D01*
Y233134D01*
X283936Y233272D01*
X285603Y234386D01*
X286717Y236053D01*
X286856Y236750D01*
D02*
G37*
G36*
X310700D02*
X307084D01*
X307222Y236053D01*
X308336Y234386D01*
X310003Y233272D01*
X310700Y233134D01*
Y236750D01*
D02*
G37*
G36*
X376856D02*
X373240D01*
Y233134D01*
X373936Y233272D01*
X375603Y234386D01*
X376717Y236053D01*
X376856Y236750D01*
D02*
G37*
G36*
X133240Y242906D02*
Y239290D01*
X136856D01*
X136717Y239986D01*
X135603Y241653D01*
X133936Y242767D01*
X133240Y242906D01*
D02*
G37*
G36*
X160700D02*
X160003Y242767D01*
X158336Y241653D01*
X157222Y239986D01*
X157084Y239290D01*
X160700D01*
Y242906D01*
D02*
G37*
G36*
X163240D02*
Y239290D01*
X166856D01*
X166717Y239986D01*
X165603Y241653D01*
X163936Y242767D01*
X163240Y242906D01*
D02*
G37*
G36*
X130700D02*
X130003Y242767D01*
X128336Y241653D01*
X127222Y239986D01*
X127084Y239290D01*
X130700D01*
Y242906D01*
D02*
G37*
G36*
X539900Y258861D02*
Y246380D01*
Y233899D01*
X541904Y234163D01*
X544954Y235426D01*
X547574Y237436D01*
X549584Y240056D01*
X550847Y243106D01*
X550911Y243594D01*
X552192D01*
X552241Y243221D01*
X553461Y240278D01*
X555400Y237750D01*
X557928Y235811D01*
X560871Y234591D01*
X564030Y234176D01*
X567189Y234591D01*
X570132Y235811D01*
X572660Y237750D01*
X574599Y240278D01*
X575819Y243221D01*
X576090Y245279D01*
X577370D01*
X577641Y243221D01*
X578861Y240278D01*
X580800Y237750D01*
X583328Y235811D01*
X586271Y234591D01*
X589430Y234176D01*
X592589Y234591D01*
X595532Y235811D01*
X598060Y237750D01*
X599999Y240278D01*
X601219Y243221D01*
X601489Y245279D01*
X602771D01*
X603041Y243221D01*
X604261Y240278D01*
X606200Y237750D01*
X608728Y235811D01*
X611671Y234591D01*
X614830Y234176D01*
X617989Y234591D01*
X620932Y235811D01*
X623460Y237750D01*
X625399Y240278D01*
X626619Y243221D01*
X626889Y245279D01*
X628171D01*
X628441Y243221D01*
X629661Y240278D01*
X631600Y237750D01*
X634128Y235811D01*
X637071Y234591D01*
X640230Y234176D01*
X643389Y234591D01*
X646332Y235811D01*
X648860Y237750D01*
X650799Y240278D01*
X652019Y243221D01*
X652434Y246380D01*
X652019Y249539D01*
X650799Y252482D01*
X648860Y255010D01*
X646332Y256949D01*
X643389Y258169D01*
X640230Y258584D01*
X637071Y258169D01*
X634128Y256949D01*
X631600Y255010D01*
X629661Y252482D01*
X628441Y249539D01*
X628171Y247481D01*
X626889D01*
X626619Y249539D01*
X625399Y252482D01*
X623460Y255010D01*
X620932Y256949D01*
X617989Y258169D01*
X614830Y258584D01*
X611671Y258169D01*
X608728Y256949D01*
X606200Y255010D01*
X604261Y252482D01*
X603041Y249539D01*
X602771Y247481D01*
X601489D01*
X601219Y249539D01*
X599999Y252482D01*
X598060Y255010D01*
X595532Y256949D01*
X592589Y258169D01*
X589430Y258584D01*
X586271Y258169D01*
X583328Y256949D01*
X580800Y255010D01*
X578861Y252482D01*
X577641Y249539D01*
X577370Y247481D01*
X576090D01*
X575819Y249539D01*
X574599Y252482D01*
X572660Y255010D01*
X570132Y256949D01*
X567189Y258169D01*
X564030Y258584D01*
X560871Y258169D01*
X557928Y256949D01*
X555400Y255010D01*
X553461Y252482D01*
X552241Y249539D01*
X552192Y249166D01*
X550911D01*
X550847Y249654D01*
X549584Y252704D01*
X547574Y255324D01*
X544954Y257334D01*
X541904Y258597D01*
X539900Y258861D01*
D02*
G37*
G36*
X98730Y259224D02*
X95581Y258914D01*
X91333Y257625D01*
X87417Y255532D01*
X83985Y252715D01*
X81168Y249283D01*
X79075Y245367D01*
X77786Y241119D01*
X77476Y237970D01*
X98730D01*
Y259224D01*
D02*
G37*
G36*
X101270D02*
Y237970D01*
X122524D01*
X122214Y241119D01*
X120925Y245367D01*
X118832Y249283D01*
X116015Y252715D01*
X112583Y255532D01*
X108667Y257625D01*
X104419Y258914D01*
X101270Y259224D01*
D02*
G37*
G36*
X310700Y182906D02*
X310003Y182767D01*
X308336Y181653D01*
X307222Y179986D01*
X307084Y179290D01*
X310700D01*
Y182906D01*
D02*
G37*
G36*
X313240D02*
Y179290D01*
X316856D01*
X316717Y179986D01*
X315603Y181653D01*
X313936Y182767D01*
X313240Y182906D01*
D02*
G37*
G36*
X430700D02*
X430003Y182767D01*
X428336Y181653D01*
X427222Y179986D01*
X427084Y179290D01*
X430700D01*
Y182906D01*
D02*
G37*
G36*
X283240D02*
Y179290D01*
X286856D01*
X286717Y179986D01*
X285603Y181653D01*
X283936Y182767D01*
X283240Y182906D01*
D02*
G37*
G36*
X130700D02*
X130003Y182767D01*
X128336Y181653D01*
X127222Y179986D01*
X127084Y179290D01*
X130700D01*
Y182906D01*
D02*
G37*
G36*
X133240D02*
Y179290D01*
X136856D01*
X136717Y179986D01*
X135603Y181653D01*
X133936Y182767D01*
X133240Y182906D01*
D02*
G37*
G36*
X280700D02*
X280003Y182767D01*
X278336Y181653D01*
X277222Y179986D01*
X277084Y179290D01*
X280700D01*
Y182906D01*
D02*
G37*
G36*
X433240D02*
Y179290D01*
X436856D01*
X436717Y179986D01*
X435603Y181653D01*
X433936Y182767D01*
X433240Y182906D01*
D02*
G37*
G36*
X478940Y189230D02*
X475324D01*
X475462Y188533D01*
X476576Y186866D01*
X478243Y185752D01*
X478940Y185614D01*
Y189230D01*
D02*
G37*
G36*
X485096D02*
X481480D01*
Y185614D01*
X482177Y185752D01*
X483844Y186866D01*
X484958Y188533D01*
X485096Y189230D01*
D02*
G37*
G36*
X478940Y195386D02*
X478243Y195248D01*
X476576Y194134D01*
X475462Y192467D01*
X475324Y191770D01*
X478940D01*
Y195386D01*
D02*
G37*
G36*
X613240Y182906D02*
Y179290D01*
X616856D01*
X616717Y179986D01*
X615603Y181653D01*
X613936Y182767D01*
X613240Y182906D01*
D02*
G37*
G36*
X580700D02*
X580003Y182767D01*
X578336Y181653D01*
X577222Y179986D01*
X577084Y179290D01*
X580700D01*
Y182906D01*
D02*
G37*
G36*
X583240D02*
Y179290D01*
X586856D01*
X586717Y179986D01*
X585603Y181653D01*
X583936Y182767D01*
X583240Y182906D01*
D02*
G37*
G36*
X610700D02*
X610003Y182767D01*
X608336Y181653D01*
X607222Y179986D01*
X607084Y179290D01*
X610700D01*
Y182906D01*
D02*
G37*
G36*
X136856Y176750D02*
X133240D01*
Y173134D01*
X133936Y173272D01*
X135603Y174386D01*
X136717Y176053D01*
X136856Y176750D01*
D02*
G37*
G36*
X280700D02*
X277084D01*
X277222Y176053D01*
X278336Y174386D01*
X280003Y173272D01*
X280700Y173134D01*
Y176750D01*
D02*
G37*
G36*
X286856D02*
X283240D01*
Y173134D01*
X283936Y173272D01*
X285603Y174386D01*
X286717Y176053D01*
X286856Y176750D01*
D02*
G37*
G36*
X130700D02*
X127084D01*
X127222Y176053D01*
X128336Y174386D01*
X130003Y173272D01*
X130700Y173134D01*
Y176750D01*
D02*
G37*
G36*
X115400Y176245D02*
X114290D01*
Y167267D01*
X125480D01*
X125299Y168649D01*
X124275Y171121D01*
X122646Y173243D01*
X120524Y174872D01*
X118052Y175896D01*
X115400Y176245D01*
D02*
G37*
G36*
X651441Y191770D02*
X638960D01*
X626479D01*
X626743Y189766D01*
X628006Y186716D01*
X630016Y184096D01*
X632636Y182086D01*
X635193Y181027D01*
Y179653D01*
X632636Y178594D01*
X630016Y176584D01*
X628006Y173964D01*
X626743Y170914D01*
X626479Y168910D01*
X638960D01*
X651441D01*
X651177Y170914D01*
X649914Y173964D01*
X647904Y176584D01*
X645284Y178594D01*
X642727Y179653D01*
Y181027D01*
X645284Y182086D01*
X647904Y184096D01*
X649914Y186716D01*
X651177Y189766D01*
X651441Y191770D01*
D02*
G37*
G36*
X111750Y176245D02*
X110640D01*
X107988Y175896D01*
X105516Y174872D01*
X103394Y173243D01*
X101765Y171121D01*
X101222Y169810D01*
X99676Y169396D01*
X99344Y169651D01*
X96294Y170914D01*
X94290Y171178D01*
Y158697D01*
Y146216D01*
X96294Y146480D01*
X99344Y147743D01*
X100694Y148779D01*
X100904Y148710D01*
X101626Y147136D01*
X101170Y146034D01*
X100836Y143497D01*
X101170Y140960D01*
X102150Y138595D01*
X103708Y136565D01*
X105738Y135007D01*
X107806Y134150D01*
X107830Y134053D01*
Y132941D01*
X107806Y132844D01*
X105738Y131987D01*
X103708Y130429D01*
X102150Y128399D01*
X101170Y126034D01*
X100836Y123497D01*
X100996Y122284D01*
X99805Y121597D01*
X99344Y121951D01*
X96294Y123214D01*
X94290Y123478D01*
Y110997D01*
Y98516D01*
X96294Y98780D01*
X99344Y100043D01*
X99650Y100278D01*
X101005Y99717D01*
X101170Y98460D01*
X102150Y96095D01*
X103708Y94065D01*
X105738Y92507D01*
X108103Y91527D01*
X110640Y91193D01*
X115400D01*
X117937Y91527D01*
X120302Y92507D01*
X122332Y94065D01*
X123890Y96095D01*
X124870Y98460D01*
X125204Y100997D01*
X124870Y103534D01*
X123890Y105899D01*
X122332Y107929D01*
X120302Y109487D01*
X117937Y110467D01*
X115400Y110801D01*
X110640D01*
X108103Y110467D01*
X106809Y109931D01*
X105645Y110824D01*
X105668Y110997D01*
X105297Y113814D01*
X106147Y114625D01*
X106411Y114728D01*
X108103Y114027D01*
X110640Y113693D01*
X115400D01*
X117937Y114027D01*
X120302Y115007D01*
X122332Y116565D01*
X123890Y118595D01*
X124870Y120960D01*
X125204Y123497D01*
X124870Y126034D01*
X123890Y128399D01*
X122332Y130429D01*
X120302Y131987D01*
X118234Y132844D01*
X118210Y132941D01*
Y134053D01*
X118234Y134150D01*
X120302Y135007D01*
X122332Y136565D01*
X123890Y138595D01*
X124870Y140960D01*
X125204Y143497D01*
X124870Y146034D01*
X123890Y148399D01*
X122332Y150429D01*
X120302Y151987D01*
X117937Y152967D01*
X115400Y153301D01*
X110640D01*
X108103Y152967D01*
X105738Y151987D01*
X104621Y151130D01*
X103715Y152036D01*
X103974Y152373D01*
X105237Y155423D01*
X105292Y155840D01*
X106678Y156641D01*
X107988Y156098D01*
X110640Y155749D01*
X111750D01*
Y165997D01*
Y176245D01*
D02*
G37*
G36*
X310700Y176750D02*
X307084D01*
X307222Y176053D01*
X308336Y174386D01*
X310003Y173272D01*
X310700Y173134D01*
Y176750D01*
D02*
G37*
G36*
X586856D02*
X583240D01*
Y173134D01*
X583936Y173272D01*
X585603Y174386D01*
X586717Y176053D01*
X586856Y176750D01*
D02*
G37*
G36*
X610700D02*
X607084D01*
X607222Y176053D01*
X608336Y174386D01*
X610003Y173272D01*
X610700Y173134D01*
Y176750D01*
D02*
G37*
G36*
X616856D02*
X613240D01*
Y173134D01*
X613936Y173272D01*
X615603Y174386D01*
X616717Y176053D01*
X616856Y176750D01*
D02*
G37*
G36*
X580700D02*
X577084D01*
X577222Y176053D01*
X578336Y174386D01*
X580003Y173272D01*
X580700Y173134D01*
Y176750D01*
D02*
G37*
G36*
X316856D02*
X313240D01*
Y173134D01*
X313936Y173272D01*
X315603Y174386D01*
X316717Y176053D01*
X316856Y176750D01*
D02*
G37*
G36*
X430700D02*
X427084D01*
X427222Y176053D01*
X428336Y174386D01*
X430003Y173272D01*
X430700Y173134D01*
Y176750D01*
D02*
G37*
G36*
X436856D02*
X433240D01*
Y173134D01*
X433936Y173272D01*
X435603Y174386D01*
X436717Y176053D01*
X436856Y176750D01*
D02*
G37*
G36*
X481480Y195386D02*
Y191770D01*
X485096D01*
X484958Y192467D01*
X483844Y194134D01*
X482177Y195248D01*
X481480Y195386D01*
D02*
G37*
G36*
X310700Y206750D02*
X307084D01*
X307222Y206053D01*
X308336Y204386D01*
X310003Y203272D01*
X310700Y203134D01*
Y206750D01*
D02*
G37*
G36*
X316856D02*
X313240D01*
Y203134D01*
X313936Y203272D01*
X315603Y204386D01*
X316717Y206053D01*
X316856Y206750D01*
D02*
G37*
G36*
X340700D02*
X337084D01*
X337222Y206053D01*
X338336Y204386D01*
X340003Y203272D01*
X340700Y203134D01*
Y206750D01*
D02*
G37*
G36*
X286856D02*
X283240D01*
Y203134D01*
X283936Y203272D01*
X285603Y204386D01*
X286717Y206053D01*
X286856Y206750D01*
D02*
G37*
G36*
X250700D02*
X247084D01*
X247222Y206053D01*
X248336Y204386D01*
X250003Y203272D01*
X250700Y203134D01*
Y206750D01*
D02*
G37*
G36*
X256856D02*
X253240D01*
Y203134D01*
X253936Y203272D01*
X255603Y204386D01*
X256717Y206053D01*
X256856Y206750D01*
D02*
G37*
G36*
X280700D02*
X277084D01*
X277222Y206053D01*
X278336Y204386D01*
X280003Y203272D01*
X280700Y203134D01*
Y206750D01*
D02*
G37*
G36*
X346856D02*
X343240D01*
Y203134D01*
X343936Y203272D01*
X345603Y204386D01*
X346717Y206053D01*
X346856Y206750D01*
D02*
G37*
G36*
X133240Y212906D02*
Y209290D01*
X136856D01*
X136717Y209986D01*
X135603Y211653D01*
X133936Y212767D01*
X133240Y212906D01*
D02*
G37*
G36*
X160700D02*
X160003Y212767D01*
X158336Y211653D01*
X157222Y209986D01*
X157084Y209290D01*
X160700D01*
Y212906D01*
D02*
G37*
G36*
X163240D02*
Y209290D01*
X166856D01*
X166717Y209986D01*
X165603Y211653D01*
X163936Y212767D01*
X163240Y212906D01*
D02*
G37*
G36*
X130700D02*
X130003Y212767D01*
X128336Y211653D01*
X127222Y209986D01*
X127084Y209290D01*
X130700D01*
Y212906D01*
D02*
G37*
G36*
X610700Y206750D02*
X607084D01*
X607222Y206053D01*
X608336Y204386D01*
X610003Y203272D01*
X610700Y203134D01*
Y206750D01*
D02*
G37*
G36*
X616856D02*
X613240D01*
Y203134D01*
X613936Y203272D01*
X615603Y204386D01*
X616717Y206053D01*
X616856Y206750D01*
D02*
G37*
G36*
X122524Y235430D02*
X77476D01*
X77786Y232281D01*
X79075Y228033D01*
X81168Y224117D01*
X83985Y220685D01*
X87417Y217868D01*
X91333Y215775D01*
X95581Y214486D01*
X100000Y214051D01*
X100116Y212790D01*
X100003Y212767D01*
X98336Y211653D01*
X97222Y209986D01*
X97084Y209290D01*
X106856D01*
X106717Y209986D01*
X105603Y211653D01*
X103936Y212767D01*
X102607Y213032D01*
X102670Y214314D01*
X104419Y214486D01*
X108667Y215775D01*
X112583Y217868D01*
X116015Y220685D01*
X118832Y224117D01*
X120925Y228033D01*
X122214Y232281D01*
X122524Y235430D01*
D02*
G37*
G36*
X586890Y201736D02*
X586194Y201598D01*
X584526Y200484D01*
X583412Y198817D01*
X583274Y198120D01*
X586890D01*
Y201736D01*
D02*
G37*
G36*
X589430D02*
Y198120D01*
X593046D01*
X592908Y198817D01*
X591794Y200484D01*
X590126Y201598D01*
X589430Y201736D01*
D02*
G37*
G36*
X448460Y210430D02*
X446665Y210073D01*
X445674Y209410D01*
X391310D01*
X389905Y209131D01*
X388715Y208335D01*
X330295Y149915D01*
X329499Y148725D01*
X329220Y147320D01*
Y118356D01*
X328557Y117365D01*
X328200Y115570D01*
X328557Y113775D01*
X329574Y112254D01*
X331095Y111237D01*
X332890Y110880D01*
X334685Y111237D01*
X336206Y112254D01*
X337223Y113775D01*
X337248Y113902D01*
X338604Y114207D01*
X340003Y113272D01*
X340700Y113134D01*
Y118020D01*
Y122906D01*
X340003Y122767D01*
X338336Y121653D01*
X337831Y120897D01*
X336561Y121282D01*
Y145800D01*
X350854Y160093D01*
X350989Y160020D01*
X355750D01*
Y164781D01*
X355677Y164917D01*
X392830Y202069D01*
X445674D01*
X446665Y201407D01*
X448460Y201050D01*
X450255Y201407D01*
X451776Y202424D01*
X452793Y203945D01*
X453150Y205740D01*
X452793Y207535D01*
X451776Y209056D01*
X450255Y210073D01*
X448460Y210430D01*
D02*
G37*
G36*
X640230Y205521D02*
Y194310D01*
X651441D01*
X651177Y196314D01*
X649914Y199364D01*
X647904Y201984D01*
X645284Y203994D01*
X642234Y205257D01*
X640230Y205521D01*
D02*
G37*
G36*
X586890Y195580D02*
X583274D01*
X583412Y194883D01*
X584526Y193216D01*
X586194Y192102D01*
X586890Y191964D01*
Y195580D01*
D02*
G37*
G36*
X593046D02*
X589430D01*
Y191964D01*
X590126Y192102D01*
X591794Y193216D01*
X592908Y194883D01*
X593046Y195580D01*
D02*
G37*
G36*
X637690Y205521D02*
X635686Y205257D01*
X632636Y203994D01*
X630016Y201984D01*
X628006Y199364D01*
X626743Y196314D01*
X626479Y194310D01*
X637690D01*
Y205521D01*
D02*
G37*
G36*
X130700Y206750D02*
X127084D01*
X127222Y206053D01*
X128336Y204386D01*
X130003Y203272D01*
X130700Y203134D01*
Y206750D01*
D02*
G37*
G36*
X196856D02*
X193240D01*
Y203134D01*
X193936Y203272D01*
X195603Y204386D01*
X196717Y206053D01*
X196856Y206750D01*
D02*
G37*
G36*
X220700D02*
X217084D01*
X217222Y206053D01*
X218336Y204386D01*
X220003Y203272D01*
X220700Y203134D01*
Y206750D01*
D02*
G37*
G36*
X226856D02*
X223240D01*
Y203134D01*
X223936Y203272D01*
X225603Y204386D01*
X226717Y206053D01*
X226856Y206750D01*
D02*
G37*
G36*
X190700D02*
X187084D01*
X187222Y206053D01*
X188336Y204386D01*
X190003Y203272D01*
X190700Y203134D01*
Y206750D01*
D02*
G37*
G36*
X136856D02*
X133240D01*
Y203134D01*
X133936Y203272D01*
X135603Y204386D01*
X136717Y206053D01*
X136856Y206750D01*
D02*
G37*
G36*
X160700D02*
X157084D01*
X157222Y206053D01*
X158336Y204386D01*
X160003Y203272D01*
X160700Y203134D01*
Y206750D01*
D02*
G37*
G36*
X166856D02*
X163240D01*
Y203134D01*
X163936Y203272D01*
X165603Y204386D01*
X166717Y206053D01*
X166856Y206750D01*
D02*
G37*
%LPD*%
G36*
X656839Y298161D02*
X73161D01*
Y361347D01*
X73969Y361622D01*
X74431Y361689D01*
X76918Y359781D01*
X79861Y358561D01*
X83020Y358146D01*
X98283D01*
X98669Y356876D01*
X98336Y356653D01*
X97222Y354986D01*
X97084Y354290D01*
X106856D01*
X106717Y354986D01*
X105603Y356653D01*
X104914Y357114D01*
X105222Y358436D01*
X106179Y358561D01*
X109122Y359781D01*
X111650Y361720D01*
X113589Y364248D01*
X114809Y367191D01*
X115224Y370350D01*
X114809Y373509D01*
X113589Y376452D01*
X111650Y378980D01*
X109122Y380919D01*
X106179Y382139D01*
X103020Y382554D01*
X83020D01*
X79861Y382139D01*
X76918Y380919D01*
X74431Y379011D01*
X73969Y379078D01*
X73161Y379353D01*
Y477347D01*
X73969Y477621D01*
X74431Y477689D01*
X76918Y475781D01*
X79861Y474561D01*
X83020Y474146D01*
X103020D01*
X106179Y474561D01*
X109122Y475781D01*
X111650Y477720D01*
X113589Y480248D01*
X114809Y483191D01*
X115224Y486350D01*
X114809Y489509D01*
X113589Y492452D01*
X111650Y494980D01*
X109122Y496919D01*
X106179Y498139D01*
X105903Y498175D01*
X105670Y499487D01*
X106717Y501053D01*
X106856Y501750D01*
X97084D01*
X97222Y501053D01*
X98043Y499824D01*
X97469Y498554D01*
X83020D01*
X79861Y498139D01*
X76918Y496919D01*
X74431Y495011D01*
X73969Y495079D01*
X73161Y495353D01*
Y556839D01*
X656839D01*
Y298161D01*
D02*
G37*
%LPC*%
G36*
X610700Y411750D02*
X607084D01*
X607222Y411053D01*
X608336Y409386D01*
X610003Y408272D01*
X610700Y408134D01*
Y411750D01*
D02*
G37*
G36*
X616856D02*
X613240D01*
Y408134D01*
X613936Y408272D01*
X615603Y409386D01*
X616717Y411053D01*
X616856Y411750D01*
D02*
G37*
G36*
X130700Y417906D02*
X130003Y417767D01*
X128336Y416653D01*
X127222Y414986D01*
X127084Y414290D01*
X130700D01*
Y417906D01*
D02*
G37*
G36*
X586856Y411750D02*
X583240D01*
Y408134D01*
X583936Y408272D01*
X585603Y409386D01*
X586717Y411053D01*
X586856Y411750D01*
D02*
G37*
G36*
X346856D02*
X343240D01*
Y408134D01*
X343936Y408272D01*
X345603Y409386D01*
X346717Y411053D01*
X346856Y411750D01*
D02*
G37*
G36*
X526856D02*
X523240D01*
Y408134D01*
X523936Y408272D01*
X525603Y409386D01*
X526717Y411053D01*
X526856Y411750D01*
D02*
G37*
G36*
X580700D02*
X577084D01*
X577222Y411053D01*
X578336Y409386D01*
X580003Y408272D01*
X580700Y408134D01*
Y411750D01*
D02*
G37*
G36*
X133240Y417906D02*
Y414290D01*
X136856D01*
X136717Y414986D01*
X135603Y416653D01*
X133936Y417767D01*
X133240Y417906D01*
D02*
G37*
G36*
X433240D02*
Y414290D01*
X436856D01*
X436717Y414986D01*
X435603Y416653D01*
X433936Y417767D01*
X433240Y417906D01*
D02*
G37*
G36*
X520700D02*
X520003Y417767D01*
X518336Y416653D01*
X517222Y414986D01*
X517084Y414290D01*
X520700D01*
Y417906D01*
D02*
G37*
G36*
X523240D02*
Y414290D01*
X526856D01*
X526717Y414986D01*
X525603Y416653D01*
X523936Y417767D01*
X523240Y417906D01*
D02*
G37*
G36*
X430700D02*
X430003Y417767D01*
X428336Y416653D01*
X427222Y414986D01*
X427084Y414290D01*
X430700D01*
Y417906D01*
D02*
G37*
G36*
X310700D02*
X310003Y417767D01*
X308336Y416653D01*
X307222Y414986D01*
X307084Y414290D01*
X310700D01*
Y417906D01*
D02*
G37*
G36*
X313240D02*
Y414290D01*
X316856D01*
X316717Y414986D01*
X315603Y416653D01*
X313936Y417767D01*
X313240Y417906D01*
D02*
G37*
G36*
X343240D02*
Y414290D01*
X346856D01*
X346717Y414986D01*
X345603Y416653D01*
X343936Y417767D01*
X343240Y417906D01*
D02*
G37*
G36*
X290345Y392790D02*
X286729D01*
X286867Y392094D01*
X287981Y390426D01*
X289648Y389312D01*
X290345Y389174D01*
Y392790D01*
D02*
G37*
G36*
X296501D02*
X292885D01*
Y389174D01*
X293582Y389312D01*
X295249Y390426D01*
X296363Y392094D01*
X296501Y392790D01*
D02*
G37*
G36*
X91750Y404727D02*
X80539D01*
X80803Y402723D01*
X82066Y399673D01*
X84076Y397053D01*
X86696Y395043D01*
X89746Y393780D01*
X91750Y393516D01*
Y404727D01*
D02*
G37*
G36*
X343240Y387906D02*
Y384290D01*
X346856D01*
X346717Y384986D01*
X345603Y386653D01*
X343936Y387767D01*
X343240Y387906D01*
D02*
G37*
G36*
X310700D02*
X310003Y387767D01*
X308336Y386653D01*
X307222Y384986D01*
X307084Y384290D01*
X310700D01*
Y387906D01*
D02*
G37*
G36*
X313240D02*
Y384290D01*
X316856D01*
X316717Y384986D01*
X315603Y386653D01*
X313936Y387767D01*
X313240Y387906D01*
D02*
G37*
G36*
X340700D02*
X340003Y387767D01*
X338336Y386653D01*
X337222Y384986D01*
X337084Y384290D01*
X340700D01*
Y387906D01*
D02*
G37*
G36*
X290345Y398946D02*
X289648Y398808D01*
X287981Y397694D01*
X286867Y396026D01*
X286729Y395330D01*
X290345D01*
Y398946D01*
D02*
G37*
G36*
X310700Y411750D02*
X307084D01*
X307222Y411053D01*
X308336Y409386D01*
X310003Y408272D01*
X310700Y408134D01*
Y411750D01*
D02*
G37*
G36*
X316856D02*
X313240D01*
Y408134D01*
X313936Y408272D01*
X315603Y409386D01*
X316717Y411053D01*
X316856Y411750D01*
D02*
G37*
G36*
X253240Y387906D02*
Y384290D01*
X256856D01*
X256717Y384986D01*
X255603Y386653D01*
X253936Y387767D01*
X253240Y387906D01*
D02*
G37*
G36*
X136856Y411750D02*
X133240D01*
Y408134D01*
X133936Y408272D01*
X135603Y409386D01*
X136717Y411053D01*
X136856Y411750D01*
D02*
G37*
G36*
X292885Y398946D02*
Y395330D01*
X296501D01*
X296363Y396026D01*
X295249Y397694D01*
X293582Y398808D01*
X292885Y398946D01*
D02*
G37*
G36*
X91750Y418478D02*
X89746Y418214D01*
X86696Y416951D01*
X84076Y414941D01*
X82066Y412321D01*
X80803Y409271D01*
X80539Y407267D01*
X91750D01*
Y418478D01*
D02*
G37*
G36*
X130700Y411750D02*
X127084D01*
X127222Y411053D01*
X128336Y409386D01*
X130003Y408272D01*
X130700Y408134D01*
Y411750D01*
D02*
G37*
G36*
X493240Y447906D02*
Y444290D01*
X496856D01*
X496717Y444986D01*
X495603Y446653D01*
X493936Y447767D01*
X493240Y447906D01*
D02*
G37*
G36*
X520700D02*
X520003Y447767D01*
X518336Y446653D01*
X517222Y444986D01*
X517084Y444290D01*
X520700D01*
Y447906D01*
D02*
G37*
G36*
X523240D02*
Y444290D01*
X526856D01*
X526717Y444986D01*
X525603Y446653D01*
X523936Y447767D01*
X523240Y447906D01*
D02*
G37*
G36*
X490700D02*
X490003Y447767D01*
X488336Y446653D01*
X487222Y444986D01*
X487084Y444290D01*
X490700D01*
Y447906D01*
D02*
G37*
G36*
X91750Y452427D02*
X80539D01*
X80803Y450423D01*
X82066Y447373D01*
X84076Y444753D01*
X86696Y442743D01*
X89746Y441480D01*
X91750Y441216D01*
Y452427D01*
D02*
G37*
G36*
X250700Y447906D02*
X250003Y447767D01*
X248336Y446653D01*
X247222Y444986D01*
X247084Y444290D01*
X250700D01*
Y447906D01*
D02*
G37*
G36*
X253240D02*
Y444290D01*
X256856D01*
X256717Y444986D01*
X255603Y446653D01*
X253936Y447767D01*
X253240Y447906D01*
D02*
G37*
G36*
X580700D02*
X580003Y447767D01*
X578336Y446653D01*
X577222Y444986D01*
X577084Y444290D01*
X580700D01*
Y447906D01*
D02*
G37*
G36*
X361906Y452480D02*
X358290D01*
Y448864D01*
X358987Y449002D01*
X360654Y450116D01*
X361768Y451783D01*
X361906Y452480D01*
D02*
G37*
G36*
X125480Y459727D02*
X114290D01*
Y450749D01*
X115400D01*
X118052Y451099D01*
X120524Y452122D01*
X122646Y453751D01*
X124275Y455873D01*
X125299Y458345D01*
X125480Y459727D01*
D02*
G37*
G36*
X91750Y466178D02*
X89746Y465914D01*
X86696Y464651D01*
X84076Y462641D01*
X82066Y460021D01*
X80803Y456971D01*
X80539Y454967D01*
X91750D01*
Y466178D01*
D02*
G37*
G36*
X355750Y452480D02*
X352134D01*
X352272Y451783D01*
X353386Y450116D01*
X355053Y449002D01*
X355750Y448864D01*
Y452480D01*
D02*
G37*
G36*
X583240Y447906D02*
Y444290D01*
X586856D01*
X586717Y444986D01*
X585603Y446653D01*
X583936Y447767D01*
X583240Y447906D01*
D02*
G37*
G36*
X610700D02*
X610003Y447767D01*
X608336Y446653D01*
X607222Y444986D01*
X607084Y444290D01*
X610700D01*
Y447906D01*
D02*
G37*
G36*
X613240D02*
Y444290D01*
X616856D01*
X616717Y444986D01*
X615603Y446653D01*
X613936Y447767D01*
X613240Y447906D01*
D02*
G37*
G36*
X250700Y441750D02*
X247084D01*
X247222Y441053D01*
X248336Y439386D01*
X250003Y438272D01*
X250700Y438134D01*
Y441750D01*
D02*
G37*
G36*
X256856D02*
X253240D01*
Y438134D01*
X253936Y438272D01*
X255603Y439386D01*
X256717Y441053D01*
X256856Y441750D01*
D02*
G37*
G36*
X472590Y450751D02*
X430680D01*
X428827Y450507D01*
X427099Y449792D01*
X425616Y448654D01*
X335004Y358041D01*
X285900D01*
X284046Y357797D01*
X282319Y357082D01*
X280836Y355944D01*
X279698Y354461D01*
X278983Y352733D01*
X278739Y350880D01*
X278983Y349026D01*
X279698Y347299D01*
X280836Y345816D01*
X282319Y344678D01*
X284046Y343963D01*
X285900Y343719D01*
X335004D01*
X346876Y331846D01*
X348359Y330708D01*
X350087Y329993D01*
X351940Y329749D01*
X425600D01*
X427453Y329993D01*
X429181Y330708D01*
X430664Y331846D01*
X433646Y334829D01*
X456080D01*
X457934Y335073D01*
X459661Y335788D01*
X461144Y336926D01*
X462282Y338409D01*
X462997Y340136D01*
X463241Y341990D01*
X462997Y343843D01*
X462282Y345571D01*
X461144Y347054D01*
X459661Y348192D01*
X457934Y348907D01*
X456080Y349151D01*
X430680D01*
X428826Y348907D01*
X427099Y348192D01*
X425616Y347054D01*
X422634Y344071D01*
X406015D01*
X405762Y345341D01*
X408334Y346407D01*
X410862Y348346D01*
X412801Y350874D01*
X414021Y353817D01*
X414436Y356976D01*
X414021Y360135D01*
X412801Y363078D01*
X410862Y365606D01*
X408334Y367545D01*
X405391Y368765D01*
X405018Y368814D01*
Y370095D01*
X405506Y370159D01*
X408556Y371422D01*
X411176Y373432D01*
X413186Y376052D01*
X414449Y379102D01*
X414713Y381106D01*
X402232D01*
X389751D01*
X390015Y379102D01*
X391278Y376052D01*
X393288Y373432D01*
X395908Y371422D01*
X398958Y370159D01*
X399446Y370095D01*
Y368814D01*
X399073Y368765D01*
X396130Y367545D01*
X393602Y365606D01*
X391663Y363078D01*
X390443Y360135D01*
X390028Y356976D01*
X390443Y353817D01*
X391663Y350874D01*
X393602Y348346D01*
X396130Y346407D01*
X398702Y345341D01*
X398449Y344071D01*
X354906D01*
X348098Y350880D01*
X433646Y436429D01*
X469624D01*
X524676Y381376D01*
X526159Y380238D01*
X527887Y379523D01*
X529740Y379279D01*
X629203D01*
X630330Y377810D01*
X631799Y376683D01*
Y370797D01*
X630330Y369670D01*
X628391Y367142D01*
X627171Y364199D01*
X626756Y361040D01*
X627171Y357881D01*
X628391Y354938D01*
X630330Y352410D01*
X632858Y350471D01*
X635801Y349251D01*
X638960Y348836D01*
X642119Y349251D01*
X645062Y350471D01*
X647590Y352410D01*
X649529Y354938D01*
X650749Y357881D01*
X651164Y361040D01*
X650749Y364199D01*
X649529Y367142D01*
X647590Y369670D01*
X646121Y370797D01*
Y376683D01*
X647590Y377810D01*
X649529Y380338D01*
X650749Y383281D01*
X651164Y386440D01*
X650749Y389599D01*
X649529Y392542D01*
X647590Y395070D01*
X646121Y396197D01*
Y402083D01*
X647590Y403210D01*
X649529Y405738D01*
X650749Y408681D01*
X651164Y411840D01*
X650749Y414999D01*
X649529Y417942D01*
X647590Y420470D01*
X645062Y422409D01*
X642119Y423629D01*
X641746Y423678D01*
Y424959D01*
X642234Y425023D01*
X645284Y426286D01*
X647904Y428296D01*
X649914Y430916D01*
X651177Y433966D01*
X651441Y435970D01*
X638960D01*
X626479D01*
X626743Y433966D01*
X628006Y430916D01*
X630016Y428296D01*
X632636Y426286D01*
X635686Y425023D01*
X636174Y424959D01*
Y423678D01*
X635801Y423629D01*
X632858Y422409D01*
X630330Y420470D01*
X628391Y417942D01*
X627171Y414999D01*
X626756Y411840D01*
X627171Y408681D01*
X628391Y405738D01*
X630330Y403210D01*
X631799Y402083D01*
Y396197D01*
X630330Y395070D01*
X629203Y393601D01*
X532706D01*
X518676Y407632D01*
X519486Y408618D01*
X520003Y408272D01*
X520700Y408134D01*
Y411750D01*
X517084D01*
X517222Y411053D01*
X517568Y410536D01*
X516581Y409726D01*
X488676Y437632D01*
X489486Y438618D01*
X490003Y438272D01*
X490700Y438134D01*
Y441750D01*
X487084D01*
X487222Y441053D01*
X487568Y440536D01*
X486581Y439726D01*
X477654Y448654D01*
X476171Y449792D01*
X474444Y450507D01*
X472590Y450751D01*
D02*
G37*
G36*
X613240Y417906D02*
Y414290D01*
X616856D01*
X616717Y414986D01*
X615603Y416653D01*
X613936Y417767D01*
X613240Y417906D01*
D02*
G37*
G36*
X580700D02*
X580003Y417767D01*
X578336Y416653D01*
X577222Y414986D01*
X577084Y414290D01*
X580700D01*
Y417906D01*
D02*
G37*
G36*
X583240D02*
Y414290D01*
X586856D01*
X586717Y414986D01*
X585603Y416653D01*
X583936Y417767D01*
X583240Y417906D01*
D02*
G37*
G36*
X610700D02*
X610003Y417767D01*
X608336Y416653D01*
X607222Y414986D01*
X607084Y414290D01*
X610700D01*
Y417906D01*
D02*
G37*
G36*
X496856Y441750D02*
X493240D01*
Y438134D01*
X493936Y438272D01*
X495603Y439386D01*
X496717Y441053D01*
X496856Y441750D01*
D02*
G37*
G36*
X610700D02*
X607084D01*
X607222Y441053D01*
X608336Y439386D01*
X610003Y438272D01*
X610700Y438134D01*
Y441750D01*
D02*
G37*
G36*
X616856D02*
X613240D01*
Y438134D01*
X613936Y438272D01*
X615603Y439386D01*
X616717Y441053D01*
X616856Y441750D01*
D02*
G37*
G36*
X651441Y461370D02*
X638960D01*
X626479D01*
X626743Y459366D01*
X628006Y456316D01*
X630016Y453696D01*
X632636Y451686D01*
X635193Y450627D01*
Y449253D01*
X632636Y448194D01*
X630016Y446184D01*
X628006Y443564D01*
X626743Y440514D01*
X626479Y438510D01*
X638960D01*
X651441D01*
X651177Y440514D01*
X649914Y443564D01*
X647904Y446184D01*
X645284Y448194D01*
X642727Y449253D01*
Y450627D01*
X645284Y451686D01*
X647904Y453696D01*
X649914Y456316D01*
X651177Y459366D01*
X651441Y461370D01*
D02*
G37*
G36*
X586856Y441750D02*
X583240D01*
Y438134D01*
X583936Y438272D01*
X585603Y439386D01*
X586717Y441053D01*
X586856Y441750D01*
D02*
G37*
G36*
X520700D02*
X517084D01*
X517222Y441053D01*
X518336Y439386D01*
X520003Y438272D01*
X520700Y438134D01*
Y441750D01*
D02*
G37*
G36*
X526856D02*
X523240D01*
Y438134D01*
X523936Y438272D01*
X525603Y439386D01*
X526717Y441053D01*
X526856Y441750D01*
D02*
G37*
G36*
X580700D02*
X577084D01*
X577222Y441053D01*
X578336Y439386D01*
X580003Y438272D01*
X580700Y438134D01*
Y441750D01*
D02*
G37*
G36*
X250700Y387906D02*
X250003Y387767D01*
X248336Y386653D01*
X247222Y384986D01*
X247084Y384290D01*
X250700D01*
Y387906D01*
D02*
G37*
G36*
X160700Y327906D02*
X160003Y327767D01*
X158336Y326653D01*
X157222Y324986D01*
X157084Y324290D01*
X160700D01*
Y327906D01*
D02*
G37*
G36*
X163240D02*
Y324290D01*
X166856D01*
X166717Y324986D01*
X165603Y326653D01*
X163936Y327767D01*
X163240Y327906D01*
D02*
G37*
G36*
X190700D02*
X190003Y327767D01*
X188336Y326653D01*
X187222Y324986D01*
X187084Y324290D01*
X190700D01*
Y327906D01*
D02*
G37*
G36*
X133240D02*
Y324290D01*
X136856D01*
X136717Y324986D01*
X135603Y326653D01*
X133936Y327767D01*
X133240Y327906D01*
D02*
G37*
G36*
X250700Y321750D02*
X247084D01*
X247222Y321053D01*
X248336Y319386D01*
X250003Y318272D01*
X250700Y318134D01*
Y321750D01*
D02*
G37*
G36*
X256856D02*
X253240D01*
Y318134D01*
X253936Y318272D01*
X255603Y319386D01*
X256717Y321053D01*
X256856Y321750D01*
D02*
G37*
G36*
X130700Y327906D02*
X130003Y327767D01*
X128336Y326653D01*
X127222Y324986D01*
X127084Y324290D01*
X130700D01*
Y327906D01*
D02*
G37*
G36*
X193240D02*
Y324290D01*
X196856D01*
X196717Y324986D01*
X195603Y326653D01*
X193936Y327767D01*
X193240Y327906D01*
D02*
G37*
G36*
X106856Y351750D02*
X97084D01*
X97222Y351053D01*
X98336Y349386D01*
X99151Y348842D01*
X98823Y347533D01*
X95581Y347214D01*
X91333Y345925D01*
X87417Y343832D01*
X83985Y341015D01*
X81168Y337583D01*
X79075Y333667D01*
X77786Y329419D01*
X77476Y326270D01*
X100000D01*
Y325000D01*
D01*
Y326270D01*
X122524D01*
X122214Y329419D01*
X120925Y333667D01*
X118832Y337583D01*
X116015Y341015D01*
X112583Y343832D01*
X108667Y345925D01*
X104502Y347188D01*
X104389Y347490D01*
X104282Y348503D01*
X105603Y349386D01*
X106717Y351053D01*
X106856Y351750D01*
D02*
G37*
G36*
X499260Y329290D02*
X495644D01*
X495782Y328593D01*
X496896Y326926D01*
X498563Y325812D01*
X499260Y325674D01*
Y329290D01*
D02*
G37*
G36*
X505416D02*
X501800D01*
Y325674D01*
X502496Y325812D01*
X504164Y326926D01*
X505278Y328593D01*
X505416Y329290D01*
D02*
G37*
G36*
X253240Y327906D02*
Y324290D01*
X256856D01*
X256717Y324986D01*
X255603Y326653D01*
X253936Y327767D01*
X253240Y327906D01*
D02*
G37*
G36*
X220700D02*
X220003Y327767D01*
X218336Y326653D01*
X217222Y324986D01*
X217084Y324290D01*
X220700D01*
Y327906D01*
D02*
G37*
G36*
X223240D02*
Y324290D01*
X226856D01*
X226717Y324986D01*
X225603Y326653D01*
X223936Y327767D01*
X223240Y327906D01*
D02*
G37*
G36*
X250700D02*
X250003Y327767D01*
X248336Y326653D01*
X247222Y324986D01*
X247084Y324290D01*
X250700D01*
Y327906D01*
D02*
G37*
G36*
X277010Y313856D02*
X276313Y313718D01*
X274646Y312604D01*
X273532Y310937D01*
X273394Y310240D01*
X277010D01*
Y313856D01*
D02*
G37*
G36*
X279550D02*
Y310240D01*
X283166D01*
X283028Y310937D01*
X281914Y312604D01*
X280247Y313718D01*
X279550Y313856D01*
D02*
G37*
G36*
X640230Y324984D02*
X637071Y324569D01*
X634128Y323349D01*
X631600Y321410D01*
X629661Y318882D01*
X628441Y315939D01*
X628171Y313881D01*
X626889D01*
X626619Y315939D01*
X625399Y318882D01*
X623460Y321410D01*
X620932Y323349D01*
X617989Y324569D01*
X614830Y324984D01*
X611671Y324569D01*
X608728Y323349D01*
X606200Y321410D01*
X604261Y318882D01*
X603041Y315939D01*
X602771Y313881D01*
X601489D01*
X601219Y315939D01*
X599999Y318882D01*
X598060Y321410D01*
X595532Y323349D01*
X592589Y324569D01*
X589430Y324984D01*
X586271Y324569D01*
X583328Y323349D01*
X580800Y321410D01*
X578861Y318882D01*
X577641Y315939D01*
X577370Y313881D01*
X576090D01*
X575819Y315939D01*
X574599Y318882D01*
X572660Y321410D01*
X570132Y323349D01*
X567189Y324569D01*
X564030Y324984D01*
X560871Y324569D01*
X557928Y323349D01*
X555400Y321410D01*
X553461Y318882D01*
X552241Y315939D01*
X551970Y313881D01*
X550690D01*
X550419Y315939D01*
X549199Y318882D01*
X547260Y321410D01*
X544732Y323349D01*
X541789Y324569D01*
X538630Y324984D01*
X535471Y324569D01*
X532528Y323349D01*
X530000Y321410D01*
X528061Y318882D01*
X526841Y315939D01*
X526571Y313881D01*
X525289D01*
X525019Y315939D01*
X523799Y318882D01*
X521860Y321410D01*
X519332Y323349D01*
X516389Y324569D01*
X513230Y324984D01*
X510071Y324569D01*
X507128Y323349D01*
X504600Y321410D01*
X502661Y318882D01*
X501441Y315939D01*
X501171Y313881D01*
X499889D01*
X499619Y315939D01*
X498399Y318882D01*
X496460Y321410D01*
X493932Y323349D01*
X490989Y324569D01*
X487830Y324984D01*
X484671Y324569D01*
X481728Y323349D01*
X479200Y321410D01*
X477261Y318882D01*
X476041Y315939D01*
X475770Y313881D01*
X474490D01*
X474219Y315939D01*
X472999Y318882D01*
X471060Y321410D01*
X468532Y323349D01*
X465589Y324569D01*
X462430Y324984D01*
X459271Y324569D01*
X456328Y323349D01*
X453800Y321410D01*
X451861Y318882D01*
X450641Y315939D01*
X450370Y313881D01*
X449090D01*
X448819Y315939D01*
X447599Y318882D01*
X445660Y321410D01*
X443132Y323349D01*
X440189Y324569D01*
X437030Y324984D01*
X433871Y324569D01*
X430928Y323349D01*
X428400Y321410D01*
X426461Y318882D01*
X425241Y315939D01*
X425000Y314105D01*
X423730Y314188D01*
Y324880D01*
X399530D01*
Y300680D01*
X423730D01*
Y311372D01*
X425000Y311455D01*
X425241Y309621D01*
X426461Y306678D01*
X428400Y304150D01*
X430928Y302211D01*
X433871Y300991D01*
X437030Y300576D01*
X440189Y300991D01*
X443132Y302211D01*
X445660Y304150D01*
X447599Y306678D01*
X448819Y309621D01*
X449090Y311679D01*
X450370D01*
X450641Y309621D01*
X451861Y306678D01*
X453800Y304150D01*
X456328Y302211D01*
X459271Y300991D01*
X462430Y300576D01*
X465589Y300991D01*
X468532Y302211D01*
X471060Y304150D01*
X472999Y306678D01*
X474219Y309621D01*
X474490Y311679D01*
X475770D01*
X476041Y309621D01*
X477261Y306678D01*
X479200Y304150D01*
X481728Y302211D01*
X484671Y300991D01*
X487830Y300576D01*
X490989Y300991D01*
X493932Y302211D01*
X496460Y304150D01*
X498399Y306678D01*
X499619Y309621D01*
X499889Y311679D01*
X501171D01*
X501441Y309621D01*
X502661Y306678D01*
X504600Y304150D01*
X507128Y302211D01*
X510071Y300991D01*
X513230Y300576D01*
X516389Y300991D01*
X519332Y302211D01*
X521860Y304150D01*
X523799Y306678D01*
X525019Y309621D01*
X525289Y311679D01*
X526571D01*
X526841Y309621D01*
X528061Y306678D01*
X530000Y304150D01*
X532528Y302211D01*
X535471Y300991D01*
X538630Y300576D01*
X541789Y300991D01*
X544732Y302211D01*
X547260Y304150D01*
X549199Y306678D01*
X550419Y309621D01*
X550690Y311679D01*
X551970D01*
X552241Y309621D01*
X553461Y306678D01*
X555400Y304150D01*
X557928Y302211D01*
X560871Y300991D01*
X564030Y300576D01*
X567189Y300991D01*
X570132Y302211D01*
X572660Y304150D01*
X574599Y306678D01*
X575819Y309621D01*
X576090Y311679D01*
X577370D01*
X577641Y309621D01*
X578861Y306678D01*
X580800Y304150D01*
X583328Y302211D01*
X586271Y300991D01*
X589430Y300576D01*
X592589Y300991D01*
X595532Y302211D01*
X598060Y304150D01*
X599999Y306678D01*
X601219Y309621D01*
X601489Y311679D01*
X602771D01*
X603041Y309621D01*
X604261Y306678D01*
X606200Y304150D01*
X608728Y302211D01*
X611671Y300991D01*
X614830Y300576D01*
X617989Y300991D01*
X620932Y302211D01*
X623460Y304150D01*
X625399Y306678D01*
X626619Y309621D01*
X626889Y311679D01*
X628171D01*
X628441Y309621D01*
X629661Y306678D01*
X631600Y304150D01*
X634128Y302211D01*
X637071Y300991D01*
X640230Y300576D01*
X643389Y300991D01*
X646332Y302211D01*
X648860Y304150D01*
X650799Y306678D01*
X652019Y309621D01*
X652434Y312780D01*
X652019Y315939D01*
X650799Y318882D01*
X648860Y321410D01*
X646332Y323349D01*
X643389Y324569D01*
X640230Y324984D01*
D02*
G37*
G36*
X283166Y307700D02*
X279550D01*
Y304084D01*
X280247Y304222D01*
X281914Y305336D01*
X283028Y307003D01*
X283166Y307700D01*
D02*
G37*
G36*
X98730Y323730D02*
X77476D01*
X77786Y320581D01*
X79075Y316333D01*
X81168Y312417D01*
X83985Y308985D01*
X87417Y306168D01*
X91333Y304075D01*
X95581Y302786D01*
X98730Y302476D01*
Y323730D01*
D02*
G37*
G36*
X122524D02*
X101270D01*
Y302476D01*
X104419Y302786D01*
X108667Y304075D01*
X112583Y306168D01*
X116015Y308985D01*
X118832Y312417D01*
X120925Y316333D01*
X122214Y320581D01*
X122524Y323730D01*
D02*
G37*
G36*
X277010Y307700D02*
X273394D01*
X273532Y307003D01*
X274646Y305336D01*
X276313Y304222D01*
X277010Y304084D01*
Y307700D01*
D02*
G37*
G36*
X130700Y321750D02*
X127084D01*
X127222Y321053D01*
X128336Y319386D01*
X130003Y318272D01*
X130700Y318134D01*
Y321750D01*
D02*
G37*
G36*
X196856D02*
X193240D01*
Y318134D01*
X193936Y318272D01*
X195603Y319386D01*
X196717Y321053D01*
X196856Y321750D01*
D02*
G37*
G36*
X220700D02*
X217084D01*
X217222Y321053D01*
X218336Y319386D01*
X220003Y318272D01*
X220700Y318134D01*
Y321750D01*
D02*
G37*
G36*
X226856D02*
X223240D01*
Y318134D01*
X223936Y318272D01*
X225603Y319386D01*
X226717Y321053D01*
X226856Y321750D01*
D02*
G37*
G36*
X190700D02*
X187084D01*
X187222Y321053D01*
X188336Y319386D01*
X190003Y318272D01*
X190700Y318134D01*
Y321750D01*
D02*
G37*
G36*
X136856D02*
X133240D01*
Y318134D01*
X133936Y318272D01*
X135603Y319386D01*
X136717Y321053D01*
X136856Y321750D01*
D02*
G37*
G36*
X160700D02*
X157084D01*
X157222Y321053D01*
X158336Y319386D01*
X160003Y318272D01*
X160700Y318134D01*
Y321750D01*
D02*
G37*
G36*
X166856D02*
X163240D01*
Y318134D01*
X163936Y318272D01*
X165603Y319386D01*
X166717Y321053D01*
X166856Y321750D01*
D02*
G37*
G36*
X499260Y335446D02*
X498563Y335308D01*
X496896Y334194D01*
X495782Y332527D01*
X495644Y331830D01*
X499260D01*
Y335446D01*
D02*
G37*
G36*
X136856Y381750D02*
X133240D01*
Y378134D01*
X133936Y378272D01*
X135603Y379386D01*
X136717Y381053D01*
X136856Y381750D01*
D02*
G37*
G36*
X250700D02*
X247084D01*
X247222Y381053D01*
X248336Y379386D01*
X250003Y378272D01*
X250700Y378134D01*
Y381750D01*
D02*
G37*
G36*
X256856D02*
X253240D01*
Y378134D01*
X253936Y378272D01*
X255603Y379386D01*
X256717Y381053D01*
X256856Y381750D01*
D02*
G37*
G36*
X130700D02*
X127084D01*
X127222Y381053D01*
X128336Y379386D01*
X130003Y378272D01*
X130700Y378134D01*
Y381750D01*
D02*
G37*
G36*
X610700Y357906D02*
X610003Y357767D01*
X608336Y356653D01*
X607222Y354986D01*
X607084Y354290D01*
X610700D01*
Y357906D01*
D02*
G37*
G36*
X613240D02*
Y354290D01*
X616856D01*
X616717Y354986D01*
X615603Y356653D01*
X613936Y357767D01*
X613240Y357906D01*
D02*
G37*
G36*
X436856Y411750D02*
X427084D01*
X427222Y411053D01*
X427990Y409904D01*
X428634Y408806D01*
X427617Y407285D01*
X427260Y405490D01*
X427617Y403695D01*
X428634Y402174D01*
X430155Y401157D01*
X431325Y400924D01*
X455324Y376925D01*
X455557Y375755D01*
X456574Y374234D01*
X458095Y373217D01*
X459890Y372860D01*
X461685Y373217D01*
X463206Y374234D01*
X464223Y375755D01*
X464580Y377550D01*
X464223Y379345D01*
X463206Y380866D01*
X461685Y381883D01*
X460515Y382116D01*
X436516Y406115D01*
X436283Y407285D01*
X435266Y408806D01*
X435937Y409886D01*
X436717Y411053D01*
X436856Y411750D01*
D02*
G37*
G36*
X310700Y381750D02*
X307084D01*
X307222Y381053D01*
X308336Y379386D01*
X310003Y378272D01*
X310700Y378134D01*
Y381750D01*
D02*
G37*
G36*
X403502Y394857D02*
Y383646D01*
X414713D01*
X414449Y385650D01*
X413186Y388700D01*
X411176Y391320D01*
X408556Y393330D01*
X405506Y394593D01*
X403502Y394857D01*
D02*
G37*
G36*
X130700Y387906D02*
X130003Y387767D01*
X128336Y386653D01*
X127222Y384986D01*
X127084Y384290D01*
X130700D01*
Y387906D01*
D02*
G37*
G36*
X133240D02*
Y384290D01*
X136856D01*
X136717Y384986D01*
X135603Y386653D01*
X133936Y387767D01*
X133240Y387906D01*
D02*
G37*
G36*
X400962Y394857D02*
X398958Y394593D01*
X395908Y393330D01*
X393288Y391320D01*
X391278Y388700D01*
X390015Y385650D01*
X389751Y383646D01*
X400962D01*
Y394857D01*
D02*
G37*
G36*
X316856Y381750D02*
X313240D01*
Y378134D01*
X313936Y378272D01*
X315603Y379386D01*
X316717Y381053D01*
X316856Y381750D01*
D02*
G37*
G36*
X340700D02*
X337084D01*
X337222Y381053D01*
X338336Y379386D01*
X340003Y378272D01*
X340700Y378134D01*
Y381750D01*
D02*
G37*
G36*
X346856D02*
X343240D01*
Y378134D01*
X343936Y378272D01*
X345603Y379386D01*
X346717Y381053D01*
X346856Y381750D01*
D02*
G37*
G36*
X256856Y351750D02*
X253240D01*
Y348134D01*
X253936Y348272D01*
X255603Y349386D01*
X256717Y351053D01*
X256856Y351750D01*
D02*
G37*
G36*
X370700D02*
X367084D01*
X367222Y351053D01*
X368336Y349386D01*
X370003Y348272D01*
X370700Y348134D01*
Y351750D01*
D02*
G37*
G36*
X376856D02*
X373240D01*
Y348134D01*
X373936Y348272D01*
X375603Y349386D01*
X376717Y351053D01*
X376856Y351750D01*
D02*
G37*
G36*
X250700D02*
X247084D01*
X247222Y351053D01*
X248336Y349386D01*
X250003Y348272D01*
X250700Y348134D01*
Y351750D01*
D02*
G37*
G36*
X501800Y335446D02*
Y331830D01*
X505416D01*
X505278Y332527D01*
X504164Y334194D01*
X502496Y335308D01*
X501800Y335446D01*
D02*
G37*
G36*
X130700Y351750D02*
X127084D01*
X127222Y351053D01*
X128336Y349386D01*
X130003Y348272D01*
X130700Y348134D01*
Y351750D01*
D02*
G37*
G36*
X136856D02*
X133240D01*
Y348134D01*
X133936Y348272D01*
X135603Y349386D01*
X136717Y351053D01*
X136856Y351750D01*
D02*
G37*
G36*
X610700D02*
X607084D01*
X607222Y351053D01*
X608336Y349386D01*
X610003Y348272D01*
X610700Y348134D01*
Y351750D01*
D02*
G37*
G36*
X253240Y357906D02*
Y354290D01*
X256856D01*
X256717Y354986D01*
X255603Y356653D01*
X253936Y357767D01*
X253240Y357906D01*
D02*
G37*
G36*
X370700D02*
X370003Y357767D01*
X368336Y356653D01*
X367222Y354986D01*
X367084Y354290D01*
X370700D01*
Y357906D01*
D02*
G37*
G36*
X373240D02*
Y354290D01*
X376856D01*
X376717Y354986D01*
X375603Y356653D01*
X373936Y357767D01*
X373240Y357906D01*
D02*
G37*
G36*
X250700D02*
X250003Y357767D01*
X248336Y356653D01*
X247222Y354986D01*
X247084Y354290D01*
X250700D01*
Y357906D01*
D02*
G37*
G36*
X616856Y351750D02*
X613240D01*
Y348134D01*
X613936Y348272D01*
X615603Y349386D01*
X616717Y351053D01*
X616856Y351750D01*
D02*
G37*
G36*
X130700Y357906D02*
X130003Y357767D01*
X128336Y356653D01*
X127222Y354986D01*
X127084Y354290D01*
X130700D01*
Y357906D01*
D02*
G37*
G36*
X133240D02*
Y354290D01*
X136856D01*
X136717Y354986D01*
X135603Y356653D01*
X133936Y357767D01*
X133240Y357906D01*
D02*
G37*
G36*
X358290Y458636D02*
Y455020D01*
X361906D01*
X361768Y455717D01*
X360654Y457384D01*
X358987Y458498D01*
X358290Y458636D01*
D02*
G37*
G36*
X388770Y525946D02*
X388074Y525808D01*
X386406Y524694D01*
X385292Y523027D01*
X385154Y522330D01*
X388770D01*
Y525946D01*
D02*
G37*
G36*
X391310D02*
Y522330D01*
X394926D01*
X394788Y523027D01*
X393674Y524694D01*
X392006Y525808D01*
X391310Y525946D01*
D02*
G37*
G36*
X130700Y531750D02*
X127084D01*
X127222Y531053D01*
X128336Y529386D01*
X130003Y528272D01*
X130700Y528134D01*
Y531750D01*
D02*
G37*
G36*
X463700Y520670D02*
X461905Y520313D01*
X460384Y519296D01*
X459367Y517775D01*
X459134Y516605D01*
X458370Y515840D01*
X393586D01*
X393201Y517110D01*
X393674Y517426D01*
X394788Y519094D01*
X394926Y519790D01*
X385154D01*
X385292Y519094D01*
X386406Y517426D01*
X386993Y517034D01*
X386725Y515686D01*
X386095Y515561D01*
X384905Y514765D01*
X332265Y462126D01*
X331095Y461893D01*
X329574Y460876D01*
X328557Y459355D01*
X328200Y457560D01*
X328557Y455765D01*
X329574Y454244D01*
X331095Y453227D01*
X332890Y452870D01*
X334685Y453227D01*
X336206Y454244D01*
X337223Y455765D01*
X337456Y456935D01*
X389020Y508499D01*
X459890D01*
X461295Y508779D01*
X462486Y509575D01*
X464325Y511414D01*
X465495Y511647D01*
X467016Y512664D01*
X468033Y514185D01*
X468390Y515980D01*
X468033Y517775D01*
X467016Y519296D01*
X465495Y520313D01*
X463700Y520670D01*
D02*
G37*
G36*
X513036Y510900D02*
X509420D01*
Y507284D01*
X510117Y507422D01*
X511784Y508536D01*
X512898Y510204D01*
X513036Y510900D01*
D02*
G37*
G36*
X506880Y517056D02*
X506184Y516918D01*
X504516Y515804D01*
X503402Y514137D01*
X503264Y513440D01*
X506880D01*
Y517056D01*
D02*
G37*
G36*
X509420D02*
Y513440D01*
X513036D01*
X512898Y514137D01*
X511784Y515804D01*
X510117Y516918D01*
X509420Y517056D01*
D02*
G37*
G36*
X136856Y531750D02*
X133240D01*
Y528134D01*
X133936Y528272D01*
X135603Y529386D01*
X136717Y531053D01*
X136856Y531750D01*
D02*
G37*
G36*
X220700D02*
X217084D01*
X217222Y531053D01*
X218336Y529386D01*
X220003Y528272D01*
X220700Y528134D01*
Y531750D01*
D02*
G37*
G36*
X226856D02*
X223240D01*
Y528134D01*
X223936Y528272D01*
X225603Y529386D01*
X226717Y531053D01*
X226856Y531750D01*
D02*
G37*
G36*
X250700D02*
X247084D01*
X247222Y531053D01*
X248336Y529386D01*
X250003Y528272D01*
X250700Y528134D01*
Y531750D01*
D02*
G37*
G36*
X196856D02*
X193240D01*
Y528134D01*
X193936Y528272D01*
X195603Y529386D01*
X196717Y531053D01*
X196856Y531750D01*
D02*
G37*
G36*
X160700D02*
X157084D01*
X157222Y531053D01*
X158336Y529386D01*
X160003Y528272D01*
X160700Y528134D01*
Y531750D01*
D02*
G37*
G36*
X166856D02*
X163240D01*
Y528134D01*
X163936Y528272D01*
X165603Y529386D01*
X166717Y531053D01*
X166856Y531750D01*
D02*
G37*
G36*
X190700D02*
X187084D01*
X187222Y531053D01*
X188336Y529386D01*
X190003Y528272D01*
X190700Y528134D01*
Y531750D01*
D02*
G37*
G36*
X250700Y507906D02*
X250003Y507767D01*
X248336Y506653D01*
X247222Y504986D01*
X247084Y504290D01*
X250700D01*
Y507906D01*
D02*
G37*
G36*
X253240D02*
Y504290D01*
X256856D01*
X256717Y504986D01*
X255603Y506653D01*
X253936Y507767D01*
X253240Y507906D01*
D02*
G37*
G36*
X280700D02*
X280003Y507767D01*
X278336Y506653D01*
X277222Y504986D01*
X277084Y504290D01*
X280700D01*
Y507906D01*
D02*
G37*
G36*
X223240D02*
Y504290D01*
X226856D01*
X226717Y504986D01*
X225603Y506653D01*
X223936Y507767D01*
X223240Y507906D01*
D02*
G37*
G36*
X190700D02*
X190003Y507767D01*
X188336Y506653D01*
X187222Y504986D01*
X187084Y504290D01*
X190700D01*
Y507906D01*
D02*
G37*
G36*
X193240D02*
Y504290D01*
X196856D01*
X196717Y504986D01*
X195603Y506653D01*
X193936Y507767D01*
X193240Y507906D01*
D02*
G37*
G36*
X220700D02*
X220003Y507767D01*
X218336Y506653D01*
X217222Y504986D01*
X217084Y504290D01*
X220700D01*
Y507906D01*
D02*
G37*
G36*
X283240D02*
Y504290D01*
X286856D01*
X286717Y504986D01*
X285603Y506653D01*
X283936Y507767D01*
X283240Y507906D01*
D02*
G37*
G36*
X610700D02*
X610003Y507767D01*
X608336Y506653D01*
X607222Y504986D01*
X607084Y504290D01*
X610700D01*
Y507906D01*
D02*
G37*
G36*
X613240D02*
Y504290D01*
X616856D01*
X616717Y504986D01*
X615603Y506653D01*
X613936Y507767D01*
X613240Y507906D01*
D02*
G37*
G36*
X506880Y510900D02*
X503264D01*
X503402Y510204D01*
X504516Y508536D01*
X506184Y507422D01*
X506880Y507284D01*
Y510900D01*
D02*
G37*
G36*
X343240Y507906D02*
Y504290D01*
X346856D01*
X346717Y504986D01*
X345603Y506653D01*
X343936Y507767D01*
X343240Y507906D01*
D02*
G37*
G36*
X310700D02*
X310003Y507767D01*
X308336Y506653D01*
X307222Y504986D01*
X307084Y504290D01*
X310700D01*
Y507906D01*
D02*
G37*
G36*
X313240D02*
Y504290D01*
X316856D01*
X316717Y504986D01*
X315603Y506653D01*
X313936Y507767D01*
X313240Y507906D01*
D02*
G37*
G36*
X340700D02*
X340003Y507767D01*
X338336Y506653D01*
X337222Y504986D01*
X337084Y504290D01*
X340700D01*
Y507906D01*
D02*
G37*
G36*
X256856Y531750D02*
X253240D01*
Y528134D01*
X253936Y528272D01*
X255603Y529386D01*
X256717Y531053D01*
X256856Y531750D01*
D02*
G37*
G36*
X250700Y537906D02*
X250003Y537767D01*
X248336Y536653D01*
X247222Y534986D01*
X247084Y534290D01*
X250700D01*
Y537906D01*
D02*
G37*
G36*
X253240D02*
Y534290D01*
X256856D01*
X256717Y534986D01*
X255603Y536653D01*
X253936Y537767D01*
X253240Y537906D01*
D02*
G37*
G36*
X280700D02*
X280003Y537767D01*
X278336Y536653D01*
X277222Y534986D01*
X277084Y534290D01*
X280700D01*
Y537906D01*
D02*
G37*
G36*
X223240D02*
Y534290D01*
X226856D01*
X226717Y534986D01*
X225603Y536653D01*
X223936Y537767D01*
X223240Y537906D01*
D02*
G37*
G36*
X190700D02*
X190003Y537767D01*
X188336Y536653D01*
X187222Y534986D01*
X187084Y534290D01*
X190700D01*
Y537906D01*
D02*
G37*
G36*
X193240D02*
Y534290D01*
X196856D01*
X196717Y534986D01*
X195603Y536653D01*
X193936Y537767D01*
X193240Y537906D01*
D02*
G37*
G36*
X220700D02*
X220003Y537767D01*
X218336Y536653D01*
X217222Y534986D01*
X217084Y534290D01*
X220700D01*
Y537906D01*
D02*
G37*
G36*
X283240D02*
Y534290D01*
X286856D01*
X286717Y534986D01*
X285603Y536653D01*
X283936Y537767D01*
X283240Y537906D01*
D02*
G37*
G36*
X370700D02*
X370003Y537767D01*
X368336Y536653D01*
X367222Y534986D01*
X367084Y534290D01*
X370700D01*
Y537906D01*
D02*
G37*
G36*
X373240D02*
Y534290D01*
X376856D01*
X376717Y534986D01*
X375603Y536653D01*
X373936Y537767D01*
X373240Y537906D01*
D02*
G37*
G36*
X537360Y553861D02*
X535356Y553597D01*
X532306Y552334D01*
X529686Y550324D01*
X527676Y547704D01*
X526413Y544654D01*
X526349Y544166D01*
X525068D01*
X525019Y544539D01*
X523799Y547482D01*
X521860Y550010D01*
X519332Y551949D01*
X516389Y553169D01*
X513230Y553584D01*
X510071Y553169D01*
X507128Y551949D01*
X504600Y550010D01*
X502661Y547482D01*
X501441Y544539D01*
X501171Y542481D01*
X499889D01*
X499619Y544539D01*
X498399Y547482D01*
X496460Y550010D01*
X493932Y551949D01*
X490989Y553169D01*
X487830Y553584D01*
X484671Y553169D01*
X481728Y551949D01*
X479200Y550010D01*
X477261Y547482D01*
X476041Y544539D01*
X475770Y542481D01*
X474490D01*
X474219Y544539D01*
X472999Y547482D01*
X471060Y550010D01*
X468532Y551949D01*
X465589Y553169D01*
X462430Y553584D01*
X459271Y553169D01*
X456328Y551949D01*
X453800Y550010D01*
X451861Y547482D01*
X450641Y544539D01*
X450370Y542481D01*
X449090D01*
X448819Y544539D01*
X447599Y547482D01*
X445660Y550010D01*
X443132Y551949D01*
X440189Y553169D01*
X437030Y553584D01*
X433871Y553169D01*
X430928Y551949D01*
X428400Y550010D01*
X426461Y547482D01*
X425241Y544539D01*
X425000Y542705D01*
X423730Y542788D01*
Y553480D01*
X399530D01*
Y529280D01*
X423730D01*
Y539972D01*
X425000Y540055D01*
X425241Y538221D01*
X426461Y535278D01*
X428400Y532750D01*
X430928Y530811D01*
X433871Y529591D01*
X437030Y529176D01*
X440189Y529591D01*
X443132Y530811D01*
X445660Y532750D01*
X447599Y535278D01*
X448819Y538221D01*
X449090Y540279D01*
X450370D01*
X450641Y538221D01*
X451861Y535278D01*
X453800Y532750D01*
X456328Y530811D01*
X459271Y529591D01*
X462430Y529176D01*
X465589Y529591D01*
X468532Y530811D01*
X471060Y532750D01*
X472999Y535278D01*
X474219Y538221D01*
X474490Y540279D01*
X475770D01*
X476041Y538221D01*
X477261Y535278D01*
X479200Y532750D01*
X481728Y530811D01*
X484671Y529591D01*
X487830Y529176D01*
X490989Y529591D01*
X493932Y530811D01*
X496460Y532750D01*
X498399Y535278D01*
X499619Y538221D01*
X499889Y540279D01*
X501171D01*
X501441Y538221D01*
X502661Y535278D01*
X504600Y532750D01*
X507128Y530811D01*
X510071Y529591D01*
X513230Y529176D01*
X516389Y529591D01*
X519332Y530811D01*
X521860Y532750D01*
X523799Y535278D01*
X525019Y538221D01*
X525068Y538594D01*
X526349D01*
X526413Y538106D01*
X527676Y535056D01*
X529686Y532436D01*
X532306Y530426D01*
X535356Y529163D01*
X537360Y528899D01*
Y541380D01*
Y553861D01*
D02*
G37*
G36*
X343240Y537906D02*
Y534290D01*
X346856D01*
X346717Y534986D01*
X345603Y536653D01*
X343936Y537767D01*
X343240Y537906D01*
D02*
G37*
G36*
X310700D02*
X310003Y537767D01*
X308336Y536653D01*
X307222Y534986D01*
X307084Y534290D01*
X310700D01*
Y537906D01*
D02*
G37*
G36*
X313240D02*
Y534290D01*
X316856D01*
X316717Y534986D01*
X315603Y536653D01*
X313936Y537767D01*
X313240Y537906D01*
D02*
G37*
G36*
X340700D02*
X340003Y537767D01*
X338336Y536653D01*
X337222Y534986D01*
X337084Y534290D01*
X340700D01*
Y537906D01*
D02*
G37*
G36*
Y531750D02*
X337084D01*
X337222Y531053D01*
X338336Y529386D01*
X340003Y528272D01*
X340700Y528134D01*
Y531750D01*
D02*
G37*
G36*
X346856D02*
X343240D01*
Y528134D01*
X343936Y528272D01*
X345603Y529386D01*
X346717Y531053D01*
X346856Y531750D01*
D02*
G37*
G36*
X370700D02*
X367084D01*
X367222Y531053D01*
X368336Y529386D01*
X370003Y528272D01*
X370700Y528134D01*
Y531750D01*
D02*
G37*
G36*
X316856D02*
X313240D01*
Y528134D01*
X313936Y528272D01*
X315603Y529386D01*
X316717Y531053D01*
X316856Y531750D01*
D02*
G37*
G36*
X280700D02*
X277084D01*
X277222Y531053D01*
X278336Y529386D01*
X280003Y528272D01*
X280700Y528134D01*
Y531750D01*
D02*
G37*
G36*
X286856D02*
X283240D01*
Y528134D01*
X283936Y528272D01*
X285603Y529386D01*
X286717Y531053D01*
X286856Y531750D01*
D02*
G37*
G36*
X310700D02*
X307084D01*
X307222Y531053D01*
X308336Y529386D01*
X310003Y528272D01*
X310700Y528134D01*
Y531750D01*
D02*
G37*
G36*
X376856D02*
X373240D01*
Y528134D01*
X373936Y528272D01*
X375603Y529386D01*
X376717Y531053D01*
X376856Y531750D01*
D02*
G37*
G36*
X133240Y537906D02*
Y534290D01*
X136856D01*
X136717Y534986D01*
X135603Y536653D01*
X133936Y537767D01*
X133240Y537906D01*
D02*
G37*
G36*
X160700D02*
X160003Y537767D01*
X158336Y536653D01*
X157222Y534986D01*
X157084Y534290D01*
X160700D01*
Y537906D01*
D02*
G37*
G36*
X163240D02*
Y534290D01*
X166856D01*
X166717Y534986D01*
X165603Y536653D01*
X163936Y537767D01*
X163240Y537906D01*
D02*
G37*
G36*
X130700D02*
X130003Y537767D01*
X128336Y536653D01*
X127222Y534986D01*
X127084Y534290D01*
X130700D01*
Y537906D01*
D02*
G37*
G36*
X539900Y553861D02*
Y541380D01*
Y528899D01*
X541904Y529163D01*
X544954Y530426D01*
X547574Y532436D01*
X549584Y535056D01*
X550847Y538106D01*
X550911Y538594D01*
X552192D01*
X552241Y538221D01*
X553461Y535278D01*
X555400Y532750D01*
X557928Y530811D01*
X560871Y529591D01*
X564030Y529176D01*
X567189Y529591D01*
X570132Y530811D01*
X572660Y532750D01*
X574599Y535278D01*
X575819Y538221D01*
X576090Y540279D01*
X577370D01*
X577641Y538221D01*
X578861Y535278D01*
X580800Y532750D01*
X583328Y530811D01*
X586271Y529591D01*
X589430Y529176D01*
X592589Y529591D01*
X595532Y530811D01*
X598060Y532750D01*
X599999Y535278D01*
X601219Y538221D01*
X601489Y540279D01*
X602771D01*
X603041Y538221D01*
X604261Y535278D01*
X606200Y532750D01*
X608728Y530811D01*
X611671Y529591D01*
X614830Y529176D01*
X617989Y529591D01*
X620932Y530811D01*
X623460Y532750D01*
X625399Y535278D01*
X626619Y538221D01*
X626889Y540279D01*
X628171D01*
X628441Y538221D01*
X629661Y535278D01*
X631600Y532750D01*
X634128Y530811D01*
X637071Y529591D01*
X640230Y529176D01*
X643389Y529591D01*
X646332Y530811D01*
X648860Y532750D01*
X650799Y535278D01*
X652019Y538221D01*
X652434Y541380D01*
X652019Y544539D01*
X650799Y547482D01*
X648860Y550010D01*
X646332Y551949D01*
X643389Y553169D01*
X640230Y553584D01*
X637071Y553169D01*
X634128Y551949D01*
X631600Y550010D01*
X629661Y547482D01*
X628441Y544539D01*
X628171Y542481D01*
X626889D01*
X626619Y544539D01*
X625399Y547482D01*
X623460Y550010D01*
X620932Y551949D01*
X617989Y553169D01*
X614830Y553584D01*
X611671Y553169D01*
X608728Y551949D01*
X606200Y550010D01*
X604261Y547482D01*
X603041Y544539D01*
X602771Y542481D01*
X601489D01*
X601219Y544539D01*
X599999Y547482D01*
X598060Y550010D01*
X595532Y551949D01*
X592589Y553169D01*
X589430Y553584D01*
X586271Y553169D01*
X583328Y551949D01*
X580800Y550010D01*
X578861Y547482D01*
X577641Y544539D01*
X577370Y542481D01*
X576090D01*
X575819Y544539D01*
X574599Y547482D01*
X572660Y550010D01*
X570132Y551949D01*
X567189Y553169D01*
X564030Y553584D01*
X560871Y553169D01*
X557928Y551949D01*
X555400Y550010D01*
X553461Y547482D01*
X552241Y544539D01*
X552192Y544166D01*
X550911D01*
X550847Y544654D01*
X549584Y547704D01*
X547574Y550324D01*
X544954Y552334D01*
X541904Y553597D01*
X539900Y553861D01*
D02*
G37*
G36*
X98730Y554224D02*
X95581Y553914D01*
X91333Y552625D01*
X87417Y550532D01*
X83985Y547715D01*
X81168Y544283D01*
X79075Y540367D01*
X77786Y536119D01*
X77476Y532970D01*
X98730D01*
Y554224D01*
D02*
G37*
G36*
X101270D02*
Y532970D01*
X122524D01*
X122214Y536119D01*
X120925Y540367D01*
X118832Y544283D01*
X116015Y547715D01*
X112583Y550532D01*
X108667Y552625D01*
X104419Y553914D01*
X101270Y554224D01*
D02*
G37*
G36*
X310700Y477906D02*
X310003Y477767D01*
X308336Y476653D01*
X307222Y474986D01*
X307084Y474290D01*
X310700D01*
Y477906D01*
D02*
G37*
G36*
X313240D02*
Y474290D01*
X316856D01*
X316717Y474986D01*
X315603Y476653D01*
X313936Y477767D01*
X313240Y477906D01*
D02*
G37*
G36*
X430700D02*
X430003Y477767D01*
X428336Y476653D01*
X427222Y474986D01*
X427084Y474290D01*
X430700D01*
Y477906D01*
D02*
G37*
G36*
X283240D02*
Y474290D01*
X286856D01*
X286717Y474986D01*
X285603Y476653D01*
X283936Y477767D01*
X283240Y477906D01*
D02*
G37*
G36*
X130700D02*
X130003Y477767D01*
X128336Y476653D01*
X127222Y474986D01*
X127084Y474290D01*
X130700D01*
Y477906D01*
D02*
G37*
G36*
X133240D02*
Y474290D01*
X136856D01*
X136717Y474986D01*
X135603Y476653D01*
X133936Y477767D01*
X133240Y477906D01*
D02*
G37*
G36*
X280700D02*
X280003Y477767D01*
X278336Y476653D01*
X277222Y474986D01*
X277084Y474290D01*
X280700D01*
Y477906D01*
D02*
G37*
G36*
X433240D02*
Y474290D01*
X436856D01*
X436717Y474986D01*
X435603Y476653D01*
X433936Y477767D01*
X433240Y477906D01*
D02*
G37*
G36*
X478940Y484230D02*
X475324D01*
X475462Y483534D01*
X476576Y481866D01*
X478243Y480752D01*
X478940Y480614D01*
Y484230D01*
D02*
G37*
G36*
X485096D02*
X481480D01*
Y480614D01*
X482177Y480752D01*
X483844Y481866D01*
X484958Y483534D01*
X485096Y484230D01*
D02*
G37*
G36*
X478940Y490386D02*
X478243Y490248D01*
X476576Y489134D01*
X475462Y487467D01*
X475324Y486770D01*
X478940D01*
Y490386D01*
D02*
G37*
G36*
X613240Y477906D02*
Y474290D01*
X616856D01*
X616717Y474986D01*
X615603Y476653D01*
X613936Y477767D01*
X613240Y477906D01*
D02*
G37*
G36*
X580700D02*
X580003Y477767D01*
X578336Y476653D01*
X577222Y474986D01*
X577084Y474290D01*
X580700D01*
Y477906D01*
D02*
G37*
G36*
X583240D02*
Y474290D01*
X586856D01*
X586717Y474986D01*
X585603Y476653D01*
X583936Y477767D01*
X583240Y477906D01*
D02*
G37*
G36*
X610700D02*
X610003Y477767D01*
X608336Y476653D01*
X607222Y474986D01*
X607084Y474290D01*
X610700D01*
Y477906D01*
D02*
G37*
G36*
X136856Y471750D02*
X133240D01*
Y468134D01*
X133936Y468272D01*
X135603Y469386D01*
X136717Y471053D01*
X136856Y471750D01*
D02*
G37*
G36*
X280700D02*
X277084D01*
X277222Y471053D01*
X278336Y469386D01*
X280003Y468272D01*
X280700Y468134D01*
Y471750D01*
D02*
G37*
G36*
X286856D02*
X283240D01*
Y468134D01*
X283936Y468272D01*
X285603Y469386D01*
X286717Y471053D01*
X286856Y471750D01*
D02*
G37*
G36*
X130700D02*
X127084D01*
X127222Y471053D01*
X128336Y469386D01*
X130003Y468272D01*
X130700Y468134D01*
Y471750D01*
D02*
G37*
G36*
X115400Y471245D02*
X114290D01*
Y462267D01*
X125480D01*
X125299Y463649D01*
X124275Y466121D01*
X122646Y468243D01*
X120524Y469872D01*
X118052Y470896D01*
X115400Y471245D01*
D02*
G37*
G36*
X651441Y486770D02*
X638960D01*
X626479D01*
X626743Y484766D01*
X628006Y481716D01*
X630016Y479096D01*
X632636Y477086D01*
X635193Y476027D01*
Y474653D01*
X632636Y473594D01*
X630016Y471584D01*
X628006Y468964D01*
X626743Y465914D01*
X626479Y463910D01*
X638960D01*
X651441D01*
X651177Y465914D01*
X649914Y468964D01*
X647904Y471584D01*
X645284Y473594D01*
X642727Y474653D01*
Y476027D01*
X645284Y477086D01*
X647904Y479096D01*
X649914Y481716D01*
X651177Y484766D01*
X651441Y486770D01*
D02*
G37*
G36*
X111750Y471245D02*
X110640D01*
X107988Y470896D01*
X105516Y469872D01*
X103394Y468243D01*
X101765Y466121D01*
X101222Y464810D01*
X99676Y464396D01*
X99344Y464651D01*
X96294Y465914D01*
X94290Y466178D01*
Y453697D01*
Y441216D01*
X96294Y441480D01*
X99344Y442743D01*
X100694Y443779D01*
X100904Y443710D01*
X101626Y442136D01*
X101170Y441034D01*
X100836Y438497D01*
X101170Y435960D01*
X102150Y433595D01*
X103708Y431565D01*
X105738Y430007D01*
X107806Y429150D01*
X107830Y429053D01*
Y427941D01*
X107806Y427844D01*
X105738Y426987D01*
X103708Y425429D01*
X102150Y423399D01*
X101170Y421034D01*
X100836Y418497D01*
X100996Y417284D01*
X99805Y416597D01*
X99344Y416951D01*
X96294Y418214D01*
X94290Y418478D01*
Y405997D01*
Y393516D01*
X96294Y393780D01*
X99344Y395043D01*
X99650Y395278D01*
X101005Y394717D01*
X101170Y393460D01*
X102150Y391095D01*
X103708Y389065D01*
X105738Y387507D01*
X108103Y386527D01*
X110640Y386193D01*
X115400D01*
X117937Y386527D01*
X120302Y387507D01*
X122332Y389065D01*
X123890Y391095D01*
X124870Y393460D01*
X125204Y395997D01*
X124870Y398534D01*
X123890Y400899D01*
X122332Y402929D01*
X120302Y404487D01*
X117937Y405467D01*
X115400Y405801D01*
X110640D01*
X108103Y405467D01*
X106809Y404931D01*
X105645Y405824D01*
X105668Y405997D01*
X105297Y408815D01*
X106147Y409625D01*
X106411Y409728D01*
X108103Y409027D01*
X110640Y408693D01*
X115400D01*
X117937Y409027D01*
X120302Y410007D01*
X122332Y411565D01*
X123890Y413595D01*
X124870Y415960D01*
X125204Y418497D01*
X124870Y421034D01*
X123890Y423399D01*
X122332Y425429D01*
X120302Y426987D01*
X118234Y427844D01*
X118210Y427941D01*
Y429053D01*
X118234Y429150D01*
X120302Y430007D01*
X122332Y431565D01*
X123890Y433595D01*
X124870Y435960D01*
X125204Y438497D01*
X124870Y441034D01*
X123890Y443399D01*
X122332Y445429D01*
X120302Y446987D01*
X117937Y447967D01*
X115400Y448301D01*
X110640D01*
X108103Y447967D01*
X105738Y446987D01*
X104621Y446130D01*
X103715Y447036D01*
X103974Y447373D01*
X105237Y450423D01*
X105292Y450840D01*
X106678Y451641D01*
X107988Y451099D01*
X110640Y450749D01*
X111750D01*
Y460997D01*
Y471245D01*
D02*
G37*
G36*
X310700Y471750D02*
X307084D01*
X307222Y471053D01*
X308336Y469386D01*
X310003Y468272D01*
X310700Y468134D01*
Y471750D01*
D02*
G37*
G36*
X586856D02*
X583240D01*
Y468134D01*
X583936Y468272D01*
X585603Y469386D01*
X586717Y471053D01*
X586856Y471750D01*
D02*
G37*
G36*
X610700D02*
X607084D01*
X607222Y471053D01*
X608336Y469386D01*
X610003Y468272D01*
X610700Y468134D01*
Y471750D01*
D02*
G37*
G36*
X616856D02*
X613240D01*
Y468134D01*
X613936Y468272D01*
X615603Y469386D01*
X616717Y471053D01*
X616856Y471750D01*
D02*
G37*
G36*
X580700D02*
X577084D01*
X577222Y471053D01*
X578336Y469386D01*
X580003Y468272D01*
X580700Y468134D01*
Y471750D01*
D02*
G37*
G36*
X316856D02*
X313240D01*
Y468134D01*
X313936Y468272D01*
X315603Y469386D01*
X316717Y471053D01*
X316856Y471750D01*
D02*
G37*
G36*
X430700D02*
X427084D01*
X427222Y471053D01*
X428336Y469386D01*
X430003Y468272D01*
X430700Y468134D01*
Y471750D01*
D02*
G37*
G36*
X436856D02*
X433240D01*
Y468134D01*
X433936Y468272D01*
X435603Y469386D01*
X436717Y471053D01*
X436856Y471750D01*
D02*
G37*
G36*
X481480Y490386D02*
Y486770D01*
X485096D01*
X484958Y487467D01*
X483844Y489134D01*
X482177Y490248D01*
X481480Y490386D01*
D02*
G37*
G36*
X310700Y501750D02*
X307084D01*
X307222Y501053D01*
X308336Y499386D01*
X310003Y498272D01*
X310700Y498134D01*
Y501750D01*
D02*
G37*
G36*
X316856D02*
X313240D01*
Y498134D01*
X313936Y498272D01*
X315603Y499386D01*
X316717Y501053D01*
X316856Y501750D01*
D02*
G37*
G36*
X340700D02*
X337084D01*
X337222Y501053D01*
X338336Y499386D01*
X340003Y498272D01*
X340700Y498134D01*
Y501750D01*
D02*
G37*
G36*
X286856D02*
X283240D01*
Y498134D01*
X283936Y498272D01*
X285603Y499386D01*
X286717Y501053D01*
X286856Y501750D01*
D02*
G37*
G36*
X250700D02*
X247084D01*
X247222Y501053D01*
X248336Y499386D01*
X250003Y498272D01*
X250700Y498134D01*
Y501750D01*
D02*
G37*
G36*
X256856D02*
X253240D01*
Y498134D01*
X253936Y498272D01*
X255603Y499386D01*
X256717Y501053D01*
X256856Y501750D01*
D02*
G37*
G36*
X280700D02*
X277084D01*
X277222Y501053D01*
X278336Y499386D01*
X280003Y498272D01*
X280700Y498134D01*
Y501750D01*
D02*
G37*
G36*
X346856D02*
X343240D01*
Y498134D01*
X343936Y498272D01*
X345603Y499386D01*
X346717Y501053D01*
X346856Y501750D01*
D02*
G37*
G36*
X133240Y507906D02*
Y504290D01*
X136856D01*
X136717Y504986D01*
X135603Y506653D01*
X133936Y507767D01*
X133240Y507906D01*
D02*
G37*
G36*
X160700D02*
X160003Y507767D01*
X158336Y506653D01*
X157222Y504986D01*
X157084Y504290D01*
X160700D01*
Y507906D01*
D02*
G37*
G36*
X163240D02*
Y504290D01*
X166856D01*
X166717Y504986D01*
X165603Y506653D01*
X163936Y507767D01*
X163240Y507906D01*
D02*
G37*
G36*
X130700D02*
X130003Y507767D01*
X128336Y506653D01*
X127222Y504986D01*
X127084Y504290D01*
X130700D01*
Y507906D01*
D02*
G37*
G36*
X610700Y501750D02*
X607084D01*
X607222Y501053D01*
X608336Y499386D01*
X610003Y498272D01*
X610700Y498134D01*
Y501750D01*
D02*
G37*
G36*
X616856D02*
X613240D01*
Y498134D01*
X613936Y498272D01*
X615603Y499386D01*
X616717Y501053D01*
X616856Y501750D01*
D02*
G37*
G36*
X122524Y530430D02*
X77476D01*
X77786Y527281D01*
X79075Y523033D01*
X81168Y519117D01*
X83985Y515685D01*
X87417Y512868D01*
X91333Y510775D01*
X95581Y509486D01*
X100000Y509051D01*
X100116Y507790D01*
X100003Y507767D01*
X98336Y506653D01*
X97222Y504986D01*
X97084Y504290D01*
X106856D01*
X106717Y504986D01*
X105603Y506653D01*
X103936Y507767D01*
X102607Y508032D01*
X102670Y509314D01*
X104419Y509486D01*
X108667Y510775D01*
X112583Y512868D01*
X116015Y515685D01*
X118832Y519117D01*
X120925Y523033D01*
X122214Y527281D01*
X122524Y530430D01*
D02*
G37*
G36*
X586890Y496736D02*
X586194Y496598D01*
X584526Y495484D01*
X583412Y493816D01*
X583274Y493120D01*
X586890D01*
Y496736D01*
D02*
G37*
G36*
X589430D02*
Y493120D01*
X593046D01*
X592908Y493816D01*
X591794Y495484D01*
X590126Y496598D01*
X589430Y496736D01*
D02*
G37*
G36*
X448460Y505430D02*
X446665Y505073D01*
X445674Y504411D01*
X391310D01*
X389905Y504131D01*
X388715Y503335D01*
X330295Y444915D01*
X329499Y443725D01*
X329220Y442320D01*
Y413356D01*
X328557Y412365D01*
X328200Y410570D01*
X328557Y408775D01*
X329574Y407254D01*
X331095Y406237D01*
X332890Y405880D01*
X334685Y406237D01*
X336206Y407254D01*
X337223Y408775D01*
X337248Y408902D01*
X338604Y409207D01*
X340003Y408272D01*
X340700Y408134D01*
Y413020D01*
Y417906D01*
X340003Y417767D01*
X338336Y416653D01*
X337831Y415897D01*
X336561Y416282D01*
Y440800D01*
X350854Y455093D01*
X350989Y455020D01*
X355750D01*
Y459781D01*
X355677Y459917D01*
X392830Y497070D01*
X445674D01*
X446665Y496407D01*
X448460Y496050D01*
X450255Y496407D01*
X451776Y497424D01*
X452793Y498945D01*
X453150Y500740D01*
X452793Y502535D01*
X451776Y504056D01*
X450255Y505073D01*
X448460Y505430D01*
D02*
G37*
G36*
X640230Y500521D02*
Y489310D01*
X651441D01*
X651177Y491314D01*
X649914Y494364D01*
X647904Y496984D01*
X645284Y498994D01*
X642234Y500257D01*
X640230Y500521D01*
D02*
G37*
G36*
X586890Y490580D02*
X583274D01*
X583412Y489883D01*
X584526Y488216D01*
X586194Y487102D01*
X586890Y486964D01*
Y490580D01*
D02*
G37*
G36*
X593046D02*
X589430D01*
Y486964D01*
X590126Y487102D01*
X591794Y488216D01*
X592908Y489883D01*
X593046Y490580D01*
D02*
G37*
G36*
X637690Y500521D02*
X635686Y500257D01*
X632636Y498994D01*
X630016Y496984D01*
X628006Y494364D01*
X626743Y491314D01*
X626479Y489310D01*
X637690D01*
Y500521D01*
D02*
G37*
G36*
X130700Y501750D02*
X127084D01*
X127222Y501053D01*
X128336Y499386D01*
X130003Y498272D01*
X130700Y498134D01*
Y501750D01*
D02*
G37*
G36*
X196856D02*
X193240D01*
Y498134D01*
X193936Y498272D01*
X195603Y499386D01*
X196717Y501053D01*
X196856Y501750D01*
D02*
G37*
G36*
X220700D02*
X217084D01*
X217222Y501053D01*
X218336Y499386D01*
X220003Y498272D01*
X220700Y498134D01*
Y501750D01*
D02*
G37*
G36*
X226856D02*
X223240D01*
Y498134D01*
X223936Y498272D01*
X225603Y499386D01*
X226717Y501053D01*
X226856Y501750D01*
D02*
G37*
G36*
X190700D02*
X187084D01*
X187222Y501053D01*
X188336Y499386D01*
X190003Y498272D01*
X190700Y498134D01*
Y501750D01*
D02*
G37*
G36*
X136856D02*
X133240D01*
Y498134D01*
X133936Y498272D01*
X135603Y499386D01*
X136717Y501053D01*
X136856Y501750D01*
D02*
G37*
G36*
X160700D02*
X157084D01*
X157222Y501053D01*
X158336Y499386D01*
X160003Y498272D01*
X160700Y498134D01*
Y501750D01*
D02*
G37*
G36*
X166856D02*
X163240D01*
Y498134D01*
X163936Y498272D01*
X165603Y499386D01*
X166717Y501053D01*
X166856Y501750D01*
D02*
G37*
%LPD*%
G36*
X656839Y593161D02*
X73161D01*
Y656347D01*
X73969Y656621D01*
X74431Y656689D01*
X76918Y654781D01*
X79861Y653561D01*
X83020Y653146D01*
X98283D01*
X98669Y651876D01*
X98336Y651653D01*
X97222Y649986D01*
X97084Y649290D01*
X106856D01*
X106717Y649986D01*
X105603Y651653D01*
X104914Y652114D01*
X105222Y653436D01*
X106179Y653561D01*
X109122Y654781D01*
X111650Y656720D01*
X113589Y659248D01*
X114809Y662191D01*
X115224Y665350D01*
X114809Y668509D01*
X113589Y671452D01*
X111650Y673980D01*
X109122Y675919D01*
X106179Y677139D01*
X103020Y677554D01*
X83020D01*
X79861Y677139D01*
X76918Y675919D01*
X74431Y674011D01*
X73969Y674079D01*
X73161Y674353D01*
Y772347D01*
X73969Y772622D01*
X74431Y772689D01*
X76918Y770781D01*
X79861Y769561D01*
X83020Y769146D01*
X103020D01*
X106179Y769561D01*
X109122Y770781D01*
X111650Y772720D01*
X113589Y775248D01*
X114809Y778191D01*
X115224Y781350D01*
X114809Y784509D01*
X113589Y787452D01*
X111650Y789980D01*
X109122Y791919D01*
X106179Y793139D01*
X105903Y793175D01*
X105670Y794486D01*
X106717Y796053D01*
X106856Y796750D01*
X97084D01*
X97222Y796053D01*
X98043Y794824D01*
X97469Y793554D01*
X83020D01*
X79861Y793139D01*
X76918Y791919D01*
X74431Y790011D01*
X73969Y790079D01*
X73161Y790353D01*
Y851839D01*
X656839D01*
Y593161D01*
D02*
G37*
%LPC*%
G36*
X610700Y706750D02*
X607084D01*
X607222Y706053D01*
X608336Y704386D01*
X610003Y703272D01*
X610700Y703134D01*
Y706750D01*
D02*
G37*
G36*
X616856D02*
X613240D01*
Y703134D01*
X613936Y703272D01*
X615603Y704386D01*
X616717Y706053D01*
X616856Y706750D01*
D02*
G37*
G36*
X130700Y712906D02*
X130003Y712767D01*
X128336Y711653D01*
X127222Y709986D01*
X127084Y709290D01*
X130700D01*
Y712906D01*
D02*
G37*
G36*
X586856Y706750D02*
X583240D01*
Y703134D01*
X583936Y703272D01*
X585603Y704386D01*
X586717Y706053D01*
X586856Y706750D01*
D02*
G37*
G36*
X346856D02*
X343240D01*
Y703134D01*
X343936Y703272D01*
X345603Y704386D01*
X346717Y706053D01*
X346856Y706750D01*
D02*
G37*
G36*
X526856D02*
X523240D01*
Y703134D01*
X523936Y703272D01*
X525603Y704386D01*
X526717Y706053D01*
X526856Y706750D01*
D02*
G37*
G36*
X580700D02*
X577084D01*
X577222Y706053D01*
X578336Y704386D01*
X580003Y703272D01*
X580700Y703134D01*
Y706750D01*
D02*
G37*
G36*
X133240Y712906D02*
Y709290D01*
X136856D01*
X136717Y709986D01*
X135603Y711653D01*
X133936Y712767D01*
X133240Y712906D01*
D02*
G37*
G36*
X433240D02*
Y709290D01*
X436856D01*
X436717Y709986D01*
X435603Y711653D01*
X433936Y712767D01*
X433240Y712906D01*
D02*
G37*
G36*
X520700D02*
X520003Y712767D01*
X518336Y711653D01*
X517222Y709986D01*
X517084Y709290D01*
X520700D01*
Y712906D01*
D02*
G37*
G36*
X523240D02*
Y709290D01*
X526856D01*
X526717Y709986D01*
X525603Y711653D01*
X523936Y712767D01*
X523240Y712906D01*
D02*
G37*
G36*
X430700D02*
X430003Y712767D01*
X428336Y711653D01*
X427222Y709986D01*
X427084Y709290D01*
X430700D01*
Y712906D01*
D02*
G37*
G36*
X310700D02*
X310003Y712767D01*
X308336Y711653D01*
X307222Y709986D01*
X307084Y709290D01*
X310700D01*
Y712906D01*
D02*
G37*
G36*
X313240D02*
Y709290D01*
X316856D01*
X316717Y709986D01*
X315603Y711653D01*
X313936Y712767D01*
X313240Y712906D01*
D02*
G37*
G36*
X343240D02*
Y709290D01*
X346856D01*
X346717Y709986D01*
X345603Y711653D01*
X343936Y712767D01*
X343240Y712906D01*
D02*
G37*
G36*
X290345Y687790D02*
X286729D01*
X286867Y687094D01*
X287981Y685426D01*
X289648Y684312D01*
X290345Y684174D01*
Y687790D01*
D02*
G37*
G36*
X296501D02*
X292885D01*
Y684174D01*
X293582Y684312D01*
X295249Y685426D01*
X296363Y687094D01*
X296501Y687790D01*
D02*
G37*
G36*
X91750Y699727D02*
X80539D01*
X80803Y697723D01*
X82066Y694673D01*
X84076Y692053D01*
X86696Y690043D01*
X89746Y688780D01*
X91750Y688516D01*
Y699727D01*
D02*
G37*
G36*
X343240Y682906D02*
Y679290D01*
X346856D01*
X346717Y679986D01*
X345603Y681653D01*
X343936Y682767D01*
X343240Y682906D01*
D02*
G37*
G36*
X310700D02*
X310003Y682767D01*
X308336Y681653D01*
X307222Y679986D01*
X307084Y679290D01*
X310700D01*
Y682906D01*
D02*
G37*
G36*
X313240D02*
Y679290D01*
X316856D01*
X316717Y679986D01*
X315603Y681653D01*
X313936Y682767D01*
X313240Y682906D01*
D02*
G37*
G36*
X340700D02*
X340003Y682767D01*
X338336Y681653D01*
X337222Y679986D01*
X337084Y679290D01*
X340700D01*
Y682906D01*
D02*
G37*
G36*
X290345Y693946D02*
X289648Y693808D01*
X287981Y692694D01*
X286867Y691027D01*
X286729Y690330D01*
X290345D01*
Y693946D01*
D02*
G37*
G36*
X310700Y706750D02*
X307084D01*
X307222Y706053D01*
X308336Y704386D01*
X310003Y703272D01*
X310700Y703134D01*
Y706750D01*
D02*
G37*
G36*
X316856D02*
X313240D01*
Y703134D01*
X313936Y703272D01*
X315603Y704386D01*
X316717Y706053D01*
X316856Y706750D01*
D02*
G37*
G36*
X253240Y682906D02*
Y679290D01*
X256856D01*
X256717Y679986D01*
X255603Y681653D01*
X253936Y682767D01*
X253240Y682906D01*
D02*
G37*
G36*
X136856Y706750D02*
X133240D01*
Y703134D01*
X133936Y703272D01*
X135603Y704386D01*
X136717Y706053D01*
X136856Y706750D01*
D02*
G37*
G36*
X292885Y693946D02*
Y690330D01*
X296501D01*
X296363Y691027D01*
X295249Y692694D01*
X293582Y693808D01*
X292885Y693946D01*
D02*
G37*
G36*
X91750Y713478D02*
X89746Y713214D01*
X86696Y711951D01*
X84076Y709941D01*
X82066Y707321D01*
X80803Y704271D01*
X80539Y702267D01*
X91750D01*
Y713478D01*
D02*
G37*
G36*
X130700Y706750D02*
X127084D01*
X127222Y706053D01*
X128336Y704386D01*
X130003Y703272D01*
X130700Y703134D01*
Y706750D01*
D02*
G37*
G36*
X493240Y742906D02*
Y739290D01*
X496856D01*
X496717Y739986D01*
X495603Y741653D01*
X493936Y742767D01*
X493240Y742906D01*
D02*
G37*
G36*
X520700D02*
X520003Y742767D01*
X518336Y741653D01*
X517222Y739986D01*
X517084Y739290D01*
X520700D01*
Y742906D01*
D02*
G37*
G36*
X523240D02*
Y739290D01*
X526856D01*
X526717Y739986D01*
X525603Y741653D01*
X523936Y742767D01*
X523240Y742906D01*
D02*
G37*
G36*
X490700D02*
X490003Y742767D01*
X488336Y741653D01*
X487222Y739986D01*
X487084Y739290D01*
X490700D01*
Y742906D01*
D02*
G37*
G36*
X91750Y747427D02*
X80539D01*
X80803Y745423D01*
X82066Y742373D01*
X84076Y739753D01*
X86696Y737743D01*
X89746Y736480D01*
X91750Y736216D01*
Y747427D01*
D02*
G37*
G36*
X250700Y742906D02*
X250003Y742767D01*
X248336Y741653D01*
X247222Y739986D01*
X247084Y739290D01*
X250700D01*
Y742906D01*
D02*
G37*
G36*
X253240D02*
Y739290D01*
X256856D01*
X256717Y739986D01*
X255603Y741653D01*
X253936Y742767D01*
X253240Y742906D01*
D02*
G37*
G36*
X580700D02*
X580003Y742767D01*
X578336Y741653D01*
X577222Y739986D01*
X577084Y739290D01*
X580700D01*
Y742906D01*
D02*
G37*
G36*
X361906Y747480D02*
X358290D01*
Y743864D01*
X358987Y744002D01*
X360654Y745116D01*
X361768Y746784D01*
X361906Y747480D01*
D02*
G37*
G36*
X125480Y754727D02*
X114290D01*
Y745749D01*
X115400D01*
X118052Y746098D01*
X120524Y747122D01*
X122646Y748751D01*
X124275Y750873D01*
X125299Y753345D01*
X125480Y754727D01*
D02*
G37*
G36*
X91750Y761178D02*
X89746Y760914D01*
X86696Y759651D01*
X84076Y757641D01*
X82066Y755021D01*
X80803Y751971D01*
X80539Y749967D01*
X91750D01*
Y761178D01*
D02*
G37*
G36*
X355750Y747480D02*
X352134D01*
X352272Y746784D01*
X353386Y745116D01*
X355053Y744002D01*
X355750Y743864D01*
Y747480D01*
D02*
G37*
G36*
X583240Y742906D02*
Y739290D01*
X586856D01*
X586717Y739986D01*
X585603Y741653D01*
X583936Y742767D01*
X583240Y742906D01*
D02*
G37*
G36*
X610700D02*
X610003Y742767D01*
X608336Y741653D01*
X607222Y739986D01*
X607084Y739290D01*
X610700D01*
Y742906D01*
D02*
G37*
G36*
X613240D02*
Y739290D01*
X616856D01*
X616717Y739986D01*
X615603Y741653D01*
X613936Y742767D01*
X613240Y742906D01*
D02*
G37*
G36*
X250700Y736750D02*
X247084D01*
X247222Y736053D01*
X248336Y734386D01*
X250003Y733272D01*
X250700Y733134D01*
Y736750D01*
D02*
G37*
G36*
X256856D02*
X253240D01*
Y733134D01*
X253936Y733272D01*
X255603Y734386D01*
X256717Y736053D01*
X256856Y736750D01*
D02*
G37*
G36*
X472590Y745751D02*
X430680D01*
X428827Y745507D01*
X427099Y744792D01*
X425616Y743654D01*
X335004Y653041D01*
X285900D01*
X284046Y652797D01*
X282319Y652082D01*
X280836Y650944D01*
X279698Y649461D01*
X278983Y647734D01*
X278739Y645880D01*
X278983Y644026D01*
X279698Y642299D01*
X280836Y640816D01*
X282319Y639678D01*
X284046Y638963D01*
X285900Y638719D01*
X335004D01*
X346876Y626846D01*
X348359Y625708D01*
X350087Y624993D01*
X351940Y624749D01*
X425600D01*
X427453Y624993D01*
X429181Y625708D01*
X430664Y626846D01*
X433646Y629829D01*
X456080D01*
X457934Y630073D01*
X459661Y630788D01*
X461144Y631926D01*
X462282Y633409D01*
X462997Y635136D01*
X463241Y636990D01*
X462997Y638843D01*
X462282Y640571D01*
X461144Y642054D01*
X459661Y643192D01*
X457934Y643907D01*
X456080Y644151D01*
X430680D01*
X428826Y643907D01*
X427099Y643192D01*
X425616Y642054D01*
X422634Y639071D01*
X406015D01*
X405762Y640341D01*
X408334Y641407D01*
X410862Y643346D01*
X412801Y645874D01*
X414021Y648817D01*
X414436Y651976D01*
X414021Y655135D01*
X412801Y658078D01*
X410862Y660606D01*
X408334Y662545D01*
X405391Y663765D01*
X405018Y663814D01*
Y665095D01*
X405506Y665159D01*
X408556Y666422D01*
X411176Y668432D01*
X413186Y671052D01*
X414449Y674102D01*
X414713Y676106D01*
X402232D01*
X389751D01*
X390015Y674102D01*
X391278Y671052D01*
X393288Y668432D01*
X395908Y666422D01*
X398958Y665159D01*
X399446Y665095D01*
Y663814D01*
X399073Y663765D01*
X396130Y662545D01*
X393602Y660606D01*
X391663Y658078D01*
X390443Y655135D01*
X390028Y651976D01*
X390443Y648817D01*
X391663Y645874D01*
X393602Y643346D01*
X396130Y641407D01*
X398702Y640341D01*
X398449Y639071D01*
X354906D01*
X348098Y645880D01*
X433646Y731429D01*
X469624D01*
X524676Y676376D01*
X526159Y675238D01*
X527887Y674523D01*
X529740Y674279D01*
X629203D01*
X630330Y672810D01*
X631799Y671683D01*
Y665797D01*
X630330Y664670D01*
X628391Y662142D01*
X627171Y659199D01*
X626756Y656040D01*
X627171Y652881D01*
X628391Y649938D01*
X630330Y647410D01*
X632858Y645471D01*
X635801Y644251D01*
X638960Y643836D01*
X642119Y644251D01*
X645062Y645471D01*
X647590Y647410D01*
X649529Y649938D01*
X650749Y652881D01*
X651164Y656040D01*
X650749Y659199D01*
X649529Y662142D01*
X647590Y664670D01*
X646121Y665797D01*
Y671683D01*
X647590Y672810D01*
X649529Y675338D01*
X650749Y678281D01*
X651164Y681440D01*
X650749Y684599D01*
X649529Y687542D01*
X647590Y690070D01*
X646121Y691197D01*
Y697083D01*
X647590Y698210D01*
X649529Y700738D01*
X650749Y703681D01*
X651164Y706840D01*
X650749Y709999D01*
X649529Y712942D01*
X647590Y715470D01*
X645062Y717409D01*
X642119Y718629D01*
X641746Y718678D01*
Y719959D01*
X642234Y720023D01*
X645284Y721286D01*
X647904Y723296D01*
X649914Y725916D01*
X651177Y728966D01*
X651441Y730970D01*
X638960D01*
X626479D01*
X626743Y728966D01*
X628006Y725916D01*
X630016Y723296D01*
X632636Y721286D01*
X635686Y720023D01*
X636174Y719959D01*
Y718678D01*
X635801Y718629D01*
X632858Y717409D01*
X630330Y715470D01*
X628391Y712942D01*
X627171Y709999D01*
X626756Y706840D01*
X627171Y703681D01*
X628391Y700738D01*
X630330Y698210D01*
X631799Y697083D01*
Y691197D01*
X630330Y690070D01*
X629203Y688601D01*
X532706D01*
X518676Y702632D01*
X519486Y703618D01*
X520003Y703272D01*
X520700Y703134D01*
Y706750D01*
X517084D01*
X517222Y706053D01*
X517568Y705536D01*
X516581Y704726D01*
X488676Y732632D01*
X489486Y733618D01*
X490003Y733272D01*
X490700Y733134D01*
Y736750D01*
X487084D01*
X487222Y736053D01*
X487568Y735536D01*
X486581Y734726D01*
X477654Y743654D01*
X476171Y744792D01*
X474444Y745507D01*
X472590Y745751D01*
D02*
G37*
G36*
X613240Y712906D02*
Y709290D01*
X616856D01*
X616717Y709986D01*
X615603Y711653D01*
X613936Y712767D01*
X613240Y712906D01*
D02*
G37*
G36*
X580700D02*
X580003Y712767D01*
X578336Y711653D01*
X577222Y709986D01*
X577084Y709290D01*
X580700D01*
Y712906D01*
D02*
G37*
G36*
X583240D02*
Y709290D01*
X586856D01*
X586717Y709986D01*
X585603Y711653D01*
X583936Y712767D01*
X583240Y712906D01*
D02*
G37*
G36*
X610700D02*
X610003Y712767D01*
X608336Y711653D01*
X607222Y709986D01*
X607084Y709290D01*
X610700D01*
Y712906D01*
D02*
G37*
G36*
X496856Y736750D02*
X493240D01*
Y733134D01*
X493936Y733272D01*
X495603Y734386D01*
X496717Y736053D01*
X496856Y736750D01*
D02*
G37*
G36*
X610700D02*
X607084D01*
X607222Y736053D01*
X608336Y734386D01*
X610003Y733272D01*
X610700Y733134D01*
Y736750D01*
D02*
G37*
G36*
X616856D02*
X613240D01*
Y733134D01*
X613936Y733272D01*
X615603Y734386D01*
X616717Y736053D01*
X616856Y736750D01*
D02*
G37*
G36*
X651441Y756370D02*
X638960D01*
X626479D01*
X626743Y754366D01*
X628006Y751316D01*
X630016Y748696D01*
X632636Y746686D01*
X635193Y745627D01*
Y744253D01*
X632636Y743194D01*
X630016Y741184D01*
X628006Y738564D01*
X626743Y735514D01*
X626479Y733510D01*
X638960D01*
X651441D01*
X651177Y735514D01*
X649914Y738564D01*
X647904Y741184D01*
X645284Y743194D01*
X642727Y744253D01*
Y745627D01*
X645284Y746686D01*
X647904Y748696D01*
X649914Y751316D01*
X651177Y754366D01*
X651441Y756370D01*
D02*
G37*
G36*
X586856Y736750D02*
X583240D01*
Y733134D01*
X583936Y733272D01*
X585603Y734386D01*
X586717Y736053D01*
X586856Y736750D01*
D02*
G37*
G36*
X520700D02*
X517084D01*
X517222Y736053D01*
X518336Y734386D01*
X520003Y733272D01*
X520700Y733134D01*
Y736750D01*
D02*
G37*
G36*
X526856D02*
X523240D01*
Y733134D01*
X523936Y733272D01*
X525603Y734386D01*
X526717Y736053D01*
X526856Y736750D01*
D02*
G37*
G36*
X580700D02*
X577084D01*
X577222Y736053D01*
X578336Y734386D01*
X580003Y733272D01*
X580700Y733134D01*
Y736750D01*
D02*
G37*
G36*
X250700Y682906D02*
X250003Y682767D01*
X248336Y681653D01*
X247222Y679986D01*
X247084Y679290D01*
X250700D01*
Y682906D01*
D02*
G37*
G36*
X160700Y622906D02*
X160003Y622767D01*
X158336Y621653D01*
X157222Y619986D01*
X157084Y619290D01*
X160700D01*
Y622906D01*
D02*
G37*
G36*
X163240D02*
Y619290D01*
X166856D01*
X166717Y619986D01*
X165603Y621653D01*
X163936Y622767D01*
X163240Y622906D01*
D02*
G37*
G36*
X190700D02*
X190003Y622767D01*
X188336Y621653D01*
X187222Y619986D01*
X187084Y619290D01*
X190700D01*
Y622906D01*
D02*
G37*
G36*
X133240D02*
Y619290D01*
X136856D01*
X136717Y619986D01*
X135603Y621653D01*
X133936Y622767D01*
X133240Y622906D01*
D02*
G37*
G36*
X250700Y616750D02*
X247084D01*
X247222Y616053D01*
X248336Y614386D01*
X250003Y613272D01*
X250700Y613134D01*
Y616750D01*
D02*
G37*
G36*
X256856D02*
X253240D01*
Y613134D01*
X253936Y613272D01*
X255603Y614386D01*
X256717Y616053D01*
X256856Y616750D01*
D02*
G37*
G36*
X130700Y622906D02*
X130003Y622767D01*
X128336Y621653D01*
X127222Y619986D01*
X127084Y619290D01*
X130700D01*
Y622906D01*
D02*
G37*
G36*
X193240D02*
Y619290D01*
X196856D01*
X196717Y619986D01*
X195603Y621653D01*
X193936Y622767D01*
X193240Y622906D01*
D02*
G37*
G36*
X106856Y646750D02*
X97084D01*
X97222Y646053D01*
X98336Y644386D01*
X99151Y643842D01*
X98823Y642533D01*
X95581Y642214D01*
X91333Y640925D01*
X87417Y638832D01*
X83985Y636015D01*
X81168Y632583D01*
X79075Y628667D01*
X77786Y624419D01*
X77476Y621270D01*
X100000D01*
Y620000D01*
D01*
Y621270D01*
X122524D01*
X122214Y624419D01*
X120925Y628667D01*
X118832Y632583D01*
X116015Y636015D01*
X112583Y638832D01*
X108667Y640925D01*
X104502Y642188D01*
X104389Y642490D01*
X104282Y643503D01*
X105603Y644386D01*
X106717Y646053D01*
X106856Y646750D01*
D02*
G37*
G36*
X499260Y624290D02*
X495644D01*
X495782Y623593D01*
X496896Y621926D01*
X498563Y620812D01*
X499260Y620674D01*
Y624290D01*
D02*
G37*
G36*
X505416D02*
X501800D01*
Y620674D01*
X502496Y620812D01*
X504164Y621926D01*
X505278Y623593D01*
X505416Y624290D01*
D02*
G37*
G36*
X253240Y622906D02*
Y619290D01*
X256856D01*
X256717Y619986D01*
X255603Y621653D01*
X253936Y622767D01*
X253240Y622906D01*
D02*
G37*
G36*
X220700D02*
X220003Y622767D01*
X218336Y621653D01*
X217222Y619986D01*
X217084Y619290D01*
X220700D01*
Y622906D01*
D02*
G37*
G36*
X223240D02*
Y619290D01*
X226856D01*
X226717Y619986D01*
X225603Y621653D01*
X223936Y622767D01*
X223240Y622906D01*
D02*
G37*
G36*
X250700D02*
X250003Y622767D01*
X248336Y621653D01*
X247222Y619986D01*
X247084Y619290D01*
X250700D01*
Y622906D01*
D02*
G37*
G36*
X277010Y608856D02*
X276313Y608718D01*
X274646Y607604D01*
X273532Y605937D01*
X273394Y605240D01*
X277010D01*
Y608856D01*
D02*
G37*
G36*
X279550D02*
Y605240D01*
X283166D01*
X283028Y605937D01*
X281914Y607604D01*
X280247Y608718D01*
X279550Y608856D01*
D02*
G37*
G36*
X640230Y619984D02*
X637071Y619569D01*
X634128Y618349D01*
X631600Y616410D01*
X629661Y613882D01*
X628441Y610939D01*
X628171Y608881D01*
X626889D01*
X626619Y610939D01*
X625399Y613882D01*
X623460Y616410D01*
X620932Y618349D01*
X617989Y619569D01*
X614830Y619984D01*
X611671Y619569D01*
X608728Y618349D01*
X606200Y616410D01*
X604261Y613882D01*
X603041Y610939D01*
X602771Y608881D01*
X601489D01*
X601219Y610939D01*
X599999Y613882D01*
X598060Y616410D01*
X595532Y618349D01*
X592589Y619569D01*
X589430Y619984D01*
X586271Y619569D01*
X583328Y618349D01*
X580800Y616410D01*
X578861Y613882D01*
X577641Y610939D01*
X577370Y608881D01*
X576090D01*
X575819Y610939D01*
X574599Y613882D01*
X572660Y616410D01*
X570132Y618349D01*
X567189Y619569D01*
X564030Y619984D01*
X560871Y619569D01*
X557928Y618349D01*
X555400Y616410D01*
X553461Y613882D01*
X552241Y610939D01*
X551970Y608881D01*
X550690D01*
X550419Y610939D01*
X549199Y613882D01*
X547260Y616410D01*
X544732Y618349D01*
X541789Y619569D01*
X538630Y619984D01*
X535471Y619569D01*
X532528Y618349D01*
X530000Y616410D01*
X528061Y613882D01*
X526841Y610939D01*
X526571Y608881D01*
X525289D01*
X525019Y610939D01*
X523799Y613882D01*
X521860Y616410D01*
X519332Y618349D01*
X516389Y619569D01*
X513230Y619984D01*
X510071Y619569D01*
X507128Y618349D01*
X504600Y616410D01*
X502661Y613882D01*
X501441Y610939D01*
X501171Y608881D01*
X499889D01*
X499619Y610939D01*
X498399Y613882D01*
X496460Y616410D01*
X493932Y618349D01*
X490989Y619569D01*
X487830Y619984D01*
X484671Y619569D01*
X481728Y618349D01*
X479200Y616410D01*
X477261Y613882D01*
X476041Y610939D01*
X475770Y608881D01*
X474490D01*
X474219Y610939D01*
X472999Y613882D01*
X471060Y616410D01*
X468532Y618349D01*
X465589Y619569D01*
X462430Y619984D01*
X459271Y619569D01*
X456328Y618349D01*
X453800Y616410D01*
X451861Y613882D01*
X450641Y610939D01*
X450370Y608881D01*
X449090D01*
X448819Y610939D01*
X447599Y613882D01*
X445660Y616410D01*
X443132Y618349D01*
X440189Y619569D01*
X437030Y619984D01*
X433871Y619569D01*
X430928Y618349D01*
X428400Y616410D01*
X426461Y613882D01*
X425241Y610939D01*
X425000Y609105D01*
X423730Y609188D01*
Y619880D01*
X399530D01*
Y595680D01*
X423730D01*
Y606372D01*
X425000Y606455D01*
X425241Y604621D01*
X426461Y601678D01*
X428400Y599150D01*
X430928Y597211D01*
X433871Y595991D01*
X437030Y595576D01*
X440189Y595991D01*
X443132Y597211D01*
X445660Y599150D01*
X447599Y601678D01*
X448819Y604621D01*
X449090Y606679D01*
X450370D01*
X450641Y604621D01*
X451861Y601678D01*
X453800Y599150D01*
X456328Y597211D01*
X459271Y595991D01*
X462430Y595576D01*
X465589Y595991D01*
X468532Y597211D01*
X471060Y599150D01*
X472999Y601678D01*
X474219Y604621D01*
X474490Y606679D01*
X475770D01*
X476041Y604621D01*
X477261Y601678D01*
X479200Y599150D01*
X481728Y597211D01*
X484671Y595991D01*
X487830Y595576D01*
X490989Y595991D01*
X493932Y597211D01*
X496460Y599150D01*
X498399Y601678D01*
X499619Y604621D01*
X499889Y606679D01*
X501171D01*
X501441Y604621D01*
X502661Y601678D01*
X504600Y599150D01*
X507128Y597211D01*
X510071Y595991D01*
X513230Y595576D01*
X516389Y595991D01*
X519332Y597211D01*
X521860Y599150D01*
X523799Y601678D01*
X525019Y604621D01*
X525289Y606679D01*
X526571D01*
X526841Y604621D01*
X528061Y601678D01*
X530000Y599150D01*
X532528Y597211D01*
X535471Y595991D01*
X538630Y595576D01*
X541789Y595991D01*
X544732Y597211D01*
X547260Y599150D01*
X549199Y601678D01*
X550419Y604621D01*
X550690Y606679D01*
X551970D01*
X552241Y604621D01*
X553461Y601678D01*
X555400Y599150D01*
X557928Y597211D01*
X560871Y595991D01*
X564030Y595576D01*
X567189Y595991D01*
X570132Y597211D01*
X572660Y599150D01*
X574599Y601678D01*
X575819Y604621D01*
X576090Y606679D01*
X577370D01*
X577641Y604621D01*
X578861Y601678D01*
X580800Y599150D01*
X583328Y597211D01*
X586271Y595991D01*
X589430Y595576D01*
X592589Y595991D01*
X595532Y597211D01*
X598060Y599150D01*
X599999Y601678D01*
X601219Y604621D01*
X601489Y606679D01*
X602771D01*
X603041Y604621D01*
X604261Y601678D01*
X606200Y599150D01*
X608728Y597211D01*
X611671Y595991D01*
X614830Y595576D01*
X617989Y595991D01*
X620932Y597211D01*
X623460Y599150D01*
X625399Y601678D01*
X626619Y604621D01*
X626889Y606679D01*
X628171D01*
X628441Y604621D01*
X629661Y601678D01*
X631600Y599150D01*
X634128Y597211D01*
X637071Y595991D01*
X640230Y595576D01*
X643389Y595991D01*
X646332Y597211D01*
X648860Y599150D01*
X650799Y601678D01*
X652019Y604621D01*
X652434Y607780D01*
X652019Y610939D01*
X650799Y613882D01*
X648860Y616410D01*
X646332Y618349D01*
X643389Y619569D01*
X640230Y619984D01*
D02*
G37*
G36*
X283166Y602700D02*
X279550D01*
Y599084D01*
X280247Y599222D01*
X281914Y600336D01*
X283028Y602004D01*
X283166Y602700D01*
D02*
G37*
G36*
X98730Y618730D02*
X77476D01*
X77786Y615581D01*
X79075Y611333D01*
X81168Y607417D01*
X83985Y603985D01*
X87417Y601168D01*
X91333Y599075D01*
X95581Y597786D01*
X98730Y597476D01*
Y618730D01*
D02*
G37*
G36*
X122524D02*
X101270D01*
Y597476D01*
X104419Y597786D01*
X108667Y599075D01*
X112583Y601168D01*
X116015Y603985D01*
X118832Y607417D01*
X120925Y611333D01*
X122214Y615581D01*
X122524Y618730D01*
D02*
G37*
G36*
X277010Y602700D02*
X273394D01*
X273532Y602004D01*
X274646Y600336D01*
X276313Y599222D01*
X277010Y599084D01*
Y602700D01*
D02*
G37*
G36*
X130700Y616750D02*
X127084D01*
X127222Y616053D01*
X128336Y614386D01*
X130003Y613272D01*
X130700Y613134D01*
Y616750D01*
D02*
G37*
G36*
X196856D02*
X193240D01*
Y613134D01*
X193936Y613272D01*
X195603Y614386D01*
X196717Y616053D01*
X196856Y616750D01*
D02*
G37*
G36*
X220700D02*
X217084D01*
X217222Y616053D01*
X218336Y614386D01*
X220003Y613272D01*
X220700Y613134D01*
Y616750D01*
D02*
G37*
G36*
X226856D02*
X223240D01*
Y613134D01*
X223936Y613272D01*
X225603Y614386D01*
X226717Y616053D01*
X226856Y616750D01*
D02*
G37*
G36*
X190700D02*
X187084D01*
X187222Y616053D01*
X188336Y614386D01*
X190003Y613272D01*
X190700Y613134D01*
Y616750D01*
D02*
G37*
G36*
X136856D02*
X133240D01*
Y613134D01*
X133936Y613272D01*
X135603Y614386D01*
X136717Y616053D01*
X136856Y616750D01*
D02*
G37*
G36*
X160700D02*
X157084D01*
X157222Y616053D01*
X158336Y614386D01*
X160003Y613272D01*
X160700Y613134D01*
Y616750D01*
D02*
G37*
G36*
X166856D02*
X163240D01*
Y613134D01*
X163936Y613272D01*
X165603Y614386D01*
X166717Y616053D01*
X166856Y616750D01*
D02*
G37*
G36*
X499260Y630446D02*
X498563Y630308D01*
X496896Y629194D01*
X495782Y627527D01*
X495644Y626830D01*
X499260D01*
Y630446D01*
D02*
G37*
G36*
X136856Y676750D02*
X133240D01*
Y673134D01*
X133936Y673272D01*
X135603Y674386D01*
X136717Y676053D01*
X136856Y676750D01*
D02*
G37*
G36*
X250700D02*
X247084D01*
X247222Y676053D01*
X248336Y674386D01*
X250003Y673272D01*
X250700Y673134D01*
Y676750D01*
D02*
G37*
G36*
X256856D02*
X253240D01*
Y673134D01*
X253936Y673272D01*
X255603Y674386D01*
X256717Y676053D01*
X256856Y676750D01*
D02*
G37*
G36*
X130700D02*
X127084D01*
X127222Y676053D01*
X128336Y674386D01*
X130003Y673272D01*
X130700Y673134D01*
Y676750D01*
D02*
G37*
G36*
X610700Y652906D02*
X610003Y652767D01*
X608336Y651653D01*
X607222Y649986D01*
X607084Y649290D01*
X610700D01*
Y652906D01*
D02*
G37*
G36*
X613240D02*
Y649290D01*
X616856D01*
X616717Y649986D01*
X615603Y651653D01*
X613936Y652767D01*
X613240Y652906D01*
D02*
G37*
G36*
X436856Y706750D02*
X427084D01*
X427222Y706053D01*
X427990Y704904D01*
X428634Y703806D01*
X427617Y702285D01*
X427260Y700490D01*
X427617Y698695D01*
X428634Y697174D01*
X430155Y696157D01*
X431325Y695924D01*
X455324Y671925D01*
X455557Y670755D01*
X456574Y669234D01*
X458095Y668217D01*
X459890Y667860D01*
X461685Y668217D01*
X463206Y669234D01*
X464223Y670755D01*
X464580Y672550D01*
X464223Y674345D01*
X463206Y675866D01*
X461685Y676883D01*
X460515Y677116D01*
X436516Y701115D01*
X436283Y702285D01*
X435266Y703806D01*
X435937Y704886D01*
X436717Y706053D01*
X436856Y706750D01*
D02*
G37*
G36*
X310700Y676750D02*
X307084D01*
X307222Y676053D01*
X308336Y674386D01*
X310003Y673272D01*
X310700Y673134D01*
Y676750D01*
D02*
G37*
G36*
X403502Y689857D02*
Y678646D01*
X414713D01*
X414449Y680650D01*
X413186Y683700D01*
X411176Y686320D01*
X408556Y688330D01*
X405506Y689593D01*
X403502Y689857D01*
D02*
G37*
G36*
X130700Y682906D02*
X130003Y682767D01*
X128336Y681653D01*
X127222Y679986D01*
X127084Y679290D01*
X130700D01*
Y682906D01*
D02*
G37*
G36*
X133240D02*
Y679290D01*
X136856D01*
X136717Y679986D01*
X135603Y681653D01*
X133936Y682767D01*
X133240Y682906D01*
D02*
G37*
G36*
X400962Y689857D02*
X398958Y689593D01*
X395908Y688330D01*
X393288Y686320D01*
X391278Y683700D01*
X390015Y680650D01*
X389751Y678646D01*
X400962D01*
Y689857D01*
D02*
G37*
G36*
X316856Y676750D02*
X313240D01*
Y673134D01*
X313936Y673272D01*
X315603Y674386D01*
X316717Y676053D01*
X316856Y676750D01*
D02*
G37*
G36*
X340700D02*
X337084D01*
X337222Y676053D01*
X338336Y674386D01*
X340003Y673272D01*
X340700Y673134D01*
Y676750D01*
D02*
G37*
G36*
X346856D02*
X343240D01*
Y673134D01*
X343936Y673272D01*
X345603Y674386D01*
X346717Y676053D01*
X346856Y676750D01*
D02*
G37*
G36*
X256856Y646750D02*
X253240D01*
Y643134D01*
X253936Y643272D01*
X255603Y644386D01*
X256717Y646053D01*
X256856Y646750D01*
D02*
G37*
G36*
X370700D02*
X367084D01*
X367222Y646053D01*
X368336Y644386D01*
X370003Y643272D01*
X370700Y643134D01*
Y646750D01*
D02*
G37*
G36*
X376856D02*
X373240D01*
Y643134D01*
X373936Y643272D01*
X375603Y644386D01*
X376717Y646053D01*
X376856Y646750D01*
D02*
G37*
G36*
X250700D02*
X247084D01*
X247222Y646053D01*
X248336Y644386D01*
X250003Y643272D01*
X250700Y643134D01*
Y646750D01*
D02*
G37*
G36*
X501800Y630446D02*
Y626830D01*
X505416D01*
X505278Y627527D01*
X504164Y629194D01*
X502496Y630308D01*
X501800Y630446D01*
D02*
G37*
G36*
X130700Y646750D02*
X127084D01*
X127222Y646053D01*
X128336Y644386D01*
X130003Y643272D01*
X130700Y643134D01*
Y646750D01*
D02*
G37*
G36*
X136856D02*
X133240D01*
Y643134D01*
X133936Y643272D01*
X135603Y644386D01*
X136717Y646053D01*
X136856Y646750D01*
D02*
G37*
G36*
X610700D02*
X607084D01*
X607222Y646053D01*
X608336Y644386D01*
X610003Y643272D01*
X610700Y643134D01*
Y646750D01*
D02*
G37*
G36*
X253240Y652906D02*
Y649290D01*
X256856D01*
X256717Y649986D01*
X255603Y651653D01*
X253936Y652767D01*
X253240Y652906D01*
D02*
G37*
G36*
X370700D02*
X370003Y652767D01*
X368336Y651653D01*
X367222Y649986D01*
X367084Y649290D01*
X370700D01*
Y652906D01*
D02*
G37*
G36*
X373240D02*
Y649290D01*
X376856D01*
X376717Y649986D01*
X375603Y651653D01*
X373936Y652767D01*
X373240Y652906D01*
D02*
G37*
G36*
X250700D02*
X250003Y652767D01*
X248336Y651653D01*
X247222Y649986D01*
X247084Y649290D01*
X250700D01*
Y652906D01*
D02*
G37*
G36*
X616856Y646750D02*
X613240D01*
Y643134D01*
X613936Y643272D01*
X615603Y644386D01*
X616717Y646053D01*
X616856Y646750D01*
D02*
G37*
G36*
X130700Y652906D02*
X130003Y652767D01*
X128336Y651653D01*
X127222Y649986D01*
X127084Y649290D01*
X130700D01*
Y652906D01*
D02*
G37*
G36*
X133240D02*
Y649290D01*
X136856D01*
X136717Y649986D01*
X135603Y651653D01*
X133936Y652767D01*
X133240Y652906D01*
D02*
G37*
G36*
X358290Y753636D02*
Y750020D01*
X361906D01*
X361768Y750716D01*
X360654Y752384D01*
X358987Y753498D01*
X358290Y753636D01*
D02*
G37*
G36*
X388770Y820946D02*
X388074Y820808D01*
X386406Y819694D01*
X385292Y818027D01*
X385154Y817330D01*
X388770D01*
Y820946D01*
D02*
G37*
G36*
X391310D02*
Y817330D01*
X394926D01*
X394788Y818027D01*
X393674Y819694D01*
X392006Y820808D01*
X391310Y820946D01*
D02*
G37*
G36*
X130700Y826750D02*
X127084D01*
X127222Y826053D01*
X128336Y824386D01*
X130003Y823272D01*
X130700Y823134D01*
Y826750D01*
D02*
G37*
G36*
X463700Y815670D02*
X461905Y815313D01*
X460384Y814296D01*
X459367Y812775D01*
X459134Y811605D01*
X458370Y810841D01*
X393586D01*
X393201Y812111D01*
X393674Y812426D01*
X394788Y814093D01*
X394926Y814790D01*
X385154D01*
X385292Y814093D01*
X386406Y812426D01*
X386993Y812035D01*
X386725Y810686D01*
X386095Y810561D01*
X384905Y809765D01*
X332265Y757126D01*
X331095Y756893D01*
X329574Y755876D01*
X328557Y754355D01*
X328200Y752560D01*
X328557Y750765D01*
X329574Y749244D01*
X331095Y748227D01*
X332890Y747870D01*
X334685Y748227D01*
X336206Y749244D01*
X337223Y750765D01*
X337456Y751935D01*
X389020Y803500D01*
X459890D01*
X461295Y803779D01*
X462486Y804575D01*
X464325Y806414D01*
X465495Y806647D01*
X467016Y807664D01*
X468033Y809185D01*
X468390Y810980D01*
X468033Y812775D01*
X467016Y814296D01*
X465495Y815313D01*
X463700Y815670D01*
D02*
G37*
G36*
X513036Y805900D02*
X509420D01*
Y802284D01*
X510117Y802422D01*
X511784Y803536D01*
X512898Y805203D01*
X513036Y805900D01*
D02*
G37*
G36*
X506880Y812056D02*
X506184Y811918D01*
X504516Y810804D01*
X503402Y809137D01*
X503264Y808440D01*
X506880D01*
Y812056D01*
D02*
G37*
G36*
X509420D02*
Y808440D01*
X513036D01*
X512898Y809137D01*
X511784Y810804D01*
X510117Y811918D01*
X509420Y812056D01*
D02*
G37*
G36*
X136856Y826750D02*
X133240D01*
Y823134D01*
X133936Y823272D01*
X135603Y824386D01*
X136717Y826053D01*
X136856Y826750D01*
D02*
G37*
G36*
X220700D02*
X217084D01*
X217222Y826053D01*
X218336Y824386D01*
X220003Y823272D01*
X220700Y823134D01*
Y826750D01*
D02*
G37*
G36*
X226856D02*
X223240D01*
Y823134D01*
X223936Y823272D01*
X225603Y824386D01*
X226717Y826053D01*
X226856Y826750D01*
D02*
G37*
G36*
X250700D02*
X247084D01*
X247222Y826053D01*
X248336Y824386D01*
X250003Y823272D01*
X250700Y823134D01*
Y826750D01*
D02*
G37*
G36*
X196856D02*
X193240D01*
Y823134D01*
X193936Y823272D01*
X195603Y824386D01*
X196717Y826053D01*
X196856Y826750D01*
D02*
G37*
G36*
X160700D02*
X157084D01*
X157222Y826053D01*
X158336Y824386D01*
X160003Y823272D01*
X160700Y823134D01*
Y826750D01*
D02*
G37*
G36*
X166856D02*
X163240D01*
Y823134D01*
X163936Y823272D01*
X165603Y824386D01*
X166717Y826053D01*
X166856Y826750D01*
D02*
G37*
G36*
X190700D02*
X187084D01*
X187222Y826053D01*
X188336Y824386D01*
X190003Y823272D01*
X190700Y823134D01*
Y826750D01*
D02*
G37*
G36*
X250700Y802906D02*
X250003Y802767D01*
X248336Y801653D01*
X247222Y799986D01*
X247084Y799290D01*
X250700D01*
Y802906D01*
D02*
G37*
G36*
X253240D02*
Y799290D01*
X256856D01*
X256717Y799986D01*
X255603Y801653D01*
X253936Y802767D01*
X253240Y802906D01*
D02*
G37*
G36*
X280700D02*
X280003Y802767D01*
X278336Y801653D01*
X277222Y799986D01*
X277084Y799290D01*
X280700D01*
Y802906D01*
D02*
G37*
G36*
X223240D02*
Y799290D01*
X226856D01*
X226717Y799986D01*
X225603Y801653D01*
X223936Y802767D01*
X223240Y802906D01*
D02*
G37*
G36*
X190700D02*
X190003Y802767D01*
X188336Y801653D01*
X187222Y799986D01*
X187084Y799290D01*
X190700D01*
Y802906D01*
D02*
G37*
G36*
X193240D02*
Y799290D01*
X196856D01*
X196717Y799986D01*
X195603Y801653D01*
X193936Y802767D01*
X193240Y802906D01*
D02*
G37*
G36*
X220700D02*
X220003Y802767D01*
X218336Y801653D01*
X217222Y799986D01*
X217084Y799290D01*
X220700D01*
Y802906D01*
D02*
G37*
G36*
X283240D02*
Y799290D01*
X286856D01*
X286717Y799986D01*
X285603Y801653D01*
X283936Y802767D01*
X283240Y802906D01*
D02*
G37*
G36*
X610700D02*
X610003Y802767D01*
X608336Y801653D01*
X607222Y799986D01*
X607084Y799290D01*
X610700D01*
Y802906D01*
D02*
G37*
G36*
X613240D02*
Y799290D01*
X616856D01*
X616717Y799986D01*
X615603Y801653D01*
X613936Y802767D01*
X613240Y802906D01*
D02*
G37*
G36*
X506880Y805900D02*
X503264D01*
X503402Y805203D01*
X504516Y803536D01*
X506184Y802422D01*
X506880Y802284D01*
Y805900D01*
D02*
G37*
G36*
X343240Y802906D02*
Y799290D01*
X346856D01*
X346717Y799986D01*
X345603Y801653D01*
X343936Y802767D01*
X343240Y802906D01*
D02*
G37*
G36*
X310700D02*
X310003Y802767D01*
X308336Y801653D01*
X307222Y799986D01*
X307084Y799290D01*
X310700D01*
Y802906D01*
D02*
G37*
G36*
X313240D02*
Y799290D01*
X316856D01*
X316717Y799986D01*
X315603Y801653D01*
X313936Y802767D01*
X313240Y802906D01*
D02*
G37*
G36*
X340700D02*
X340003Y802767D01*
X338336Y801653D01*
X337222Y799986D01*
X337084Y799290D01*
X340700D01*
Y802906D01*
D02*
G37*
G36*
X256856Y826750D02*
X253240D01*
Y823134D01*
X253936Y823272D01*
X255603Y824386D01*
X256717Y826053D01*
X256856Y826750D01*
D02*
G37*
G36*
X250700Y832906D02*
X250003Y832767D01*
X248336Y831653D01*
X247222Y829986D01*
X247084Y829290D01*
X250700D01*
Y832906D01*
D02*
G37*
G36*
X253240D02*
Y829290D01*
X256856D01*
X256717Y829986D01*
X255603Y831653D01*
X253936Y832767D01*
X253240Y832906D01*
D02*
G37*
G36*
X280700D02*
X280003Y832767D01*
X278336Y831653D01*
X277222Y829986D01*
X277084Y829290D01*
X280700D01*
Y832906D01*
D02*
G37*
G36*
X223240D02*
Y829290D01*
X226856D01*
X226717Y829986D01*
X225603Y831653D01*
X223936Y832767D01*
X223240Y832906D01*
D02*
G37*
G36*
X190700D02*
X190003Y832767D01*
X188336Y831653D01*
X187222Y829986D01*
X187084Y829290D01*
X190700D01*
Y832906D01*
D02*
G37*
G36*
X193240D02*
Y829290D01*
X196856D01*
X196717Y829986D01*
X195603Y831653D01*
X193936Y832767D01*
X193240Y832906D01*
D02*
G37*
G36*
X220700D02*
X220003Y832767D01*
X218336Y831653D01*
X217222Y829986D01*
X217084Y829290D01*
X220700D01*
Y832906D01*
D02*
G37*
G36*
X283240D02*
Y829290D01*
X286856D01*
X286717Y829986D01*
X285603Y831653D01*
X283936Y832767D01*
X283240Y832906D01*
D02*
G37*
G36*
X370700D02*
X370003Y832767D01*
X368336Y831653D01*
X367222Y829986D01*
X367084Y829290D01*
X370700D01*
Y832906D01*
D02*
G37*
G36*
X373240D02*
Y829290D01*
X376856D01*
X376717Y829986D01*
X375603Y831653D01*
X373936Y832767D01*
X373240Y832906D01*
D02*
G37*
G36*
X537360Y848861D02*
X535356Y848597D01*
X532306Y847334D01*
X529686Y845324D01*
X527676Y842704D01*
X526413Y839654D01*
X526349Y839166D01*
X525068D01*
X525019Y839539D01*
X523799Y842482D01*
X521860Y845010D01*
X519332Y846949D01*
X516389Y848169D01*
X513230Y848584D01*
X510071Y848169D01*
X507128Y846949D01*
X504600Y845010D01*
X502661Y842482D01*
X501441Y839539D01*
X501171Y837481D01*
X499889D01*
X499619Y839539D01*
X498399Y842482D01*
X496460Y845010D01*
X493932Y846949D01*
X490989Y848169D01*
X487830Y848584D01*
X484671Y848169D01*
X481728Y846949D01*
X479200Y845010D01*
X477261Y842482D01*
X476041Y839539D01*
X475770Y837481D01*
X474490D01*
X474219Y839539D01*
X472999Y842482D01*
X471060Y845010D01*
X468532Y846949D01*
X465589Y848169D01*
X462430Y848584D01*
X459271Y848169D01*
X456328Y846949D01*
X453800Y845010D01*
X451861Y842482D01*
X450641Y839539D01*
X450370Y837481D01*
X449090D01*
X448819Y839539D01*
X447599Y842482D01*
X445660Y845010D01*
X443132Y846949D01*
X440189Y848169D01*
X437030Y848584D01*
X433871Y848169D01*
X430928Y846949D01*
X428400Y845010D01*
X426461Y842482D01*
X425241Y839539D01*
X425000Y837705D01*
X423730Y837788D01*
Y848480D01*
X399530D01*
Y824280D01*
X423730D01*
Y834972D01*
X425000Y835055D01*
X425241Y833221D01*
X426461Y830278D01*
X428400Y827750D01*
X430928Y825811D01*
X433871Y824591D01*
X437030Y824176D01*
X440189Y824591D01*
X443132Y825811D01*
X445660Y827750D01*
X447599Y830278D01*
X448819Y833221D01*
X449090Y835279D01*
X450370D01*
X450641Y833221D01*
X451861Y830278D01*
X453800Y827750D01*
X456328Y825811D01*
X459271Y824591D01*
X462430Y824176D01*
X465589Y824591D01*
X468532Y825811D01*
X471060Y827750D01*
X472999Y830278D01*
X474219Y833221D01*
X474490Y835279D01*
X475770D01*
X476041Y833221D01*
X477261Y830278D01*
X479200Y827750D01*
X481728Y825811D01*
X484671Y824591D01*
X487830Y824176D01*
X490989Y824591D01*
X493932Y825811D01*
X496460Y827750D01*
X498399Y830278D01*
X499619Y833221D01*
X499889Y835279D01*
X501171D01*
X501441Y833221D01*
X502661Y830278D01*
X504600Y827750D01*
X507128Y825811D01*
X510071Y824591D01*
X513230Y824176D01*
X516389Y824591D01*
X519332Y825811D01*
X521860Y827750D01*
X523799Y830278D01*
X525019Y833221D01*
X525068Y833594D01*
X526349D01*
X526413Y833106D01*
X527676Y830056D01*
X529686Y827436D01*
X532306Y825426D01*
X535356Y824163D01*
X537360Y823899D01*
Y836380D01*
Y848861D01*
D02*
G37*
G36*
X343240Y832906D02*
Y829290D01*
X346856D01*
X346717Y829986D01*
X345603Y831653D01*
X343936Y832767D01*
X343240Y832906D01*
D02*
G37*
G36*
X310700D02*
X310003Y832767D01*
X308336Y831653D01*
X307222Y829986D01*
X307084Y829290D01*
X310700D01*
Y832906D01*
D02*
G37*
G36*
X313240D02*
Y829290D01*
X316856D01*
X316717Y829986D01*
X315603Y831653D01*
X313936Y832767D01*
X313240Y832906D01*
D02*
G37*
G36*
X340700D02*
X340003Y832767D01*
X338336Y831653D01*
X337222Y829986D01*
X337084Y829290D01*
X340700D01*
Y832906D01*
D02*
G37*
G36*
Y826750D02*
X337084D01*
X337222Y826053D01*
X338336Y824386D01*
X340003Y823272D01*
X340700Y823134D01*
Y826750D01*
D02*
G37*
G36*
X346856D02*
X343240D01*
Y823134D01*
X343936Y823272D01*
X345603Y824386D01*
X346717Y826053D01*
X346856Y826750D01*
D02*
G37*
G36*
X370700D02*
X367084D01*
X367222Y826053D01*
X368336Y824386D01*
X370003Y823272D01*
X370700Y823134D01*
Y826750D01*
D02*
G37*
G36*
X316856D02*
X313240D01*
Y823134D01*
X313936Y823272D01*
X315603Y824386D01*
X316717Y826053D01*
X316856Y826750D01*
D02*
G37*
G36*
X280700D02*
X277084D01*
X277222Y826053D01*
X278336Y824386D01*
X280003Y823272D01*
X280700Y823134D01*
Y826750D01*
D02*
G37*
G36*
X286856D02*
X283240D01*
Y823134D01*
X283936Y823272D01*
X285603Y824386D01*
X286717Y826053D01*
X286856Y826750D01*
D02*
G37*
G36*
X310700D02*
X307084D01*
X307222Y826053D01*
X308336Y824386D01*
X310003Y823272D01*
X310700Y823134D01*
Y826750D01*
D02*
G37*
G36*
X376856D02*
X373240D01*
Y823134D01*
X373936Y823272D01*
X375603Y824386D01*
X376717Y826053D01*
X376856Y826750D01*
D02*
G37*
G36*
X133240Y832906D02*
Y829290D01*
X136856D01*
X136717Y829986D01*
X135603Y831653D01*
X133936Y832767D01*
X133240Y832906D01*
D02*
G37*
G36*
X160700D02*
X160003Y832767D01*
X158336Y831653D01*
X157222Y829986D01*
X157084Y829290D01*
X160700D01*
Y832906D01*
D02*
G37*
G36*
X163240D02*
Y829290D01*
X166856D01*
X166717Y829986D01*
X165603Y831653D01*
X163936Y832767D01*
X163240Y832906D01*
D02*
G37*
G36*
X130700D02*
X130003Y832767D01*
X128336Y831653D01*
X127222Y829986D01*
X127084Y829290D01*
X130700D01*
Y832906D01*
D02*
G37*
G36*
X539900Y848861D02*
Y836380D01*
Y823899D01*
X541904Y824163D01*
X544954Y825426D01*
X547574Y827436D01*
X549584Y830056D01*
X550847Y833106D01*
X550911Y833594D01*
X552192D01*
X552241Y833221D01*
X553461Y830278D01*
X555400Y827750D01*
X557928Y825811D01*
X560871Y824591D01*
X564030Y824176D01*
X567189Y824591D01*
X570132Y825811D01*
X572660Y827750D01*
X574599Y830278D01*
X575819Y833221D01*
X576090Y835279D01*
X577370D01*
X577641Y833221D01*
X578861Y830278D01*
X580800Y827750D01*
X583328Y825811D01*
X586271Y824591D01*
X589430Y824176D01*
X592589Y824591D01*
X595532Y825811D01*
X598060Y827750D01*
X599999Y830278D01*
X601219Y833221D01*
X601489Y835279D01*
X602771D01*
X603041Y833221D01*
X604261Y830278D01*
X606200Y827750D01*
X608728Y825811D01*
X611671Y824591D01*
X614830Y824176D01*
X617989Y824591D01*
X620932Y825811D01*
X623460Y827750D01*
X625399Y830278D01*
X626619Y833221D01*
X626889Y835279D01*
X628171D01*
X628441Y833221D01*
X629661Y830278D01*
X631600Y827750D01*
X634128Y825811D01*
X637071Y824591D01*
X640230Y824176D01*
X643389Y824591D01*
X646332Y825811D01*
X648860Y827750D01*
X650799Y830278D01*
X652019Y833221D01*
X652434Y836380D01*
X652019Y839539D01*
X650799Y842482D01*
X648860Y845010D01*
X646332Y846949D01*
X643389Y848169D01*
X640230Y848584D01*
X637071Y848169D01*
X634128Y846949D01*
X631600Y845010D01*
X629661Y842482D01*
X628441Y839539D01*
X628171Y837481D01*
X626889D01*
X626619Y839539D01*
X625399Y842482D01*
X623460Y845010D01*
X620932Y846949D01*
X617989Y848169D01*
X614830Y848584D01*
X611671Y848169D01*
X608728Y846949D01*
X606200Y845010D01*
X604261Y842482D01*
X603041Y839539D01*
X602771Y837481D01*
X601489D01*
X601219Y839539D01*
X599999Y842482D01*
X598060Y845010D01*
X595532Y846949D01*
X592589Y848169D01*
X589430Y848584D01*
X586271Y848169D01*
X583328Y846949D01*
X580800Y845010D01*
X578861Y842482D01*
X577641Y839539D01*
X577370Y837481D01*
X576090D01*
X575819Y839539D01*
X574599Y842482D01*
X572660Y845010D01*
X570132Y846949D01*
X567189Y848169D01*
X564030Y848584D01*
X560871Y848169D01*
X557928Y846949D01*
X555400Y845010D01*
X553461Y842482D01*
X552241Y839539D01*
X552192Y839166D01*
X550911D01*
X550847Y839654D01*
X549584Y842704D01*
X547574Y845324D01*
X544954Y847334D01*
X541904Y848597D01*
X539900Y848861D01*
D02*
G37*
G36*
X98730Y849224D02*
X95581Y848914D01*
X91333Y847625D01*
X87417Y845532D01*
X83985Y842715D01*
X81168Y839283D01*
X79075Y835367D01*
X77786Y831119D01*
X77476Y827970D01*
X98730D01*
Y849224D01*
D02*
G37*
G36*
X101270D02*
Y827970D01*
X122524D01*
X122214Y831119D01*
X120925Y835367D01*
X118832Y839283D01*
X116015Y842715D01*
X112583Y845532D01*
X108667Y847625D01*
X104419Y848914D01*
X101270Y849224D01*
D02*
G37*
G36*
X310700Y772906D02*
X310003Y772767D01*
X308336Y771653D01*
X307222Y769986D01*
X307084Y769290D01*
X310700D01*
Y772906D01*
D02*
G37*
G36*
X313240D02*
Y769290D01*
X316856D01*
X316717Y769986D01*
X315603Y771653D01*
X313936Y772767D01*
X313240Y772906D01*
D02*
G37*
G36*
X430700D02*
X430003Y772767D01*
X428336Y771653D01*
X427222Y769986D01*
X427084Y769290D01*
X430700D01*
Y772906D01*
D02*
G37*
G36*
X283240D02*
Y769290D01*
X286856D01*
X286717Y769986D01*
X285603Y771653D01*
X283936Y772767D01*
X283240Y772906D01*
D02*
G37*
G36*
X130700D02*
X130003Y772767D01*
X128336Y771653D01*
X127222Y769986D01*
X127084Y769290D01*
X130700D01*
Y772906D01*
D02*
G37*
G36*
X133240D02*
Y769290D01*
X136856D01*
X136717Y769986D01*
X135603Y771653D01*
X133936Y772767D01*
X133240Y772906D01*
D02*
G37*
G36*
X280700D02*
X280003Y772767D01*
X278336Y771653D01*
X277222Y769986D01*
X277084Y769290D01*
X280700D01*
Y772906D01*
D02*
G37*
G36*
X433240D02*
Y769290D01*
X436856D01*
X436717Y769986D01*
X435603Y771653D01*
X433936Y772767D01*
X433240Y772906D01*
D02*
G37*
G36*
X478940Y779230D02*
X475324D01*
X475462Y778533D01*
X476576Y776866D01*
X478243Y775752D01*
X478940Y775614D01*
Y779230D01*
D02*
G37*
G36*
X485096D02*
X481480D01*
Y775614D01*
X482177Y775752D01*
X483844Y776866D01*
X484958Y778533D01*
X485096Y779230D01*
D02*
G37*
G36*
X478940Y785386D02*
X478243Y785248D01*
X476576Y784134D01*
X475462Y782467D01*
X475324Y781770D01*
X478940D01*
Y785386D01*
D02*
G37*
G36*
X613240Y772906D02*
Y769290D01*
X616856D01*
X616717Y769986D01*
X615603Y771653D01*
X613936Y772767D01*
X613240Y772906D01*
D02*
G37*
G36*
X580700D02*
X580003Y772767D01*
X578336Y771653D01*
X577222Y769986D01*
X577084Y769290D01*
X580700D01*
Y772906D01*
D02*
G37*
G36*
X583240D02*
Y769290D01*
X586856D01*
X586717Y769986D01*
X585603Y771653D01*
X583936Y772767D01*
X583240Y772906D01*
D02*
G37*
G36*
X610700D02*
X610003Y772767D01*
X608336Y771653D01*
X607222Y769986D01*
X607084Y769290D01*
X610700D01*
Y772906D01*
D02*
G37*
G36*
X136856Y766750D02*
X133240D01*
Y763134D01*
X133936Y763272D01*
X135603Y764386D01*
X136717Y766053D01*
X136856Y766750D01*
D02*
G37*
G36*
X280700D02*
X277084D01*
X277222Y766053D01*
X278336Y764386D01*
X280003Y763272D01*
X280700Y763134D01*
Y766750D01*
D02*
G37*
G36*
X286856D02*
X283240D01*
Y763134D01*
X283936Y763272D01*
X285603Y764386D01*
X286717Y766053D01*
X286856Y766750D01*
D02*
G37*
G36*
X130700D02*
X127084D01*
X127222Y766053D01*
X128336Y764386D01*
X130003Y763272D01*
X130700Y763134D01*
Y766750D01*
D02*
G37*
G36*
X115400Y766245D02*
X114290D01*
Y757267D01*
X125480D01*
X125299Y758649D01*
X124275Y761121D01*
X122646Y763243D01*
X120524Y764872D01*
X118052Y765895D01*
X115400Y766245D01*
D02*
G37*
G36*
X651441Y781770D02*
X638960D01*
X626479D01*
X626743Y779766D01*
X628006Y776716D01*
X630016Y774096D01*
X632636Y772086D01*
X635193Y771027D01*
Y769653D01*
X632636Y768594D01*
X630016Y766584D01*
X628006Y763964D01*
X626743Y760914D01*
X626479Y758910D01*
X638960D01*
X651441D01*
X651177Y760914D01*
X649914Y763964D01*
X647904Y766584D01*
X645284Y768594D01*
X642727Y769653D01*
Y771027D01*
X645284Y772086D01*
X647904Y774096D01*
X649914Y776716D01*
X651177Y779766D01*
X651441Y781770D01*
D02*
G37*
G36*
X111750Y766245D02*
X110640D01*
X107988Y765895D01*
X105516Y764872D01*
X103394Y763243D01*
X101765Y761121D01*
X101222Y759810D01*
X99676Y759396D01*
X99344Y759651D01*
X96294Y760914D01*
X94290Y761178D01*
Y748697D01*
Y736216D01*
X96294Y736480D01*
X99344Y737743D01*
X100694Y738779D01*
X100904Y738710D01*
X101626Y737136D01*
X101170Y736034D01*
X100836Y733497D01*
X101170Y730959D01*
X102150Y728595D01*
X103708Y726565D01*
X105738Y725007D01*
X107806Y724150D01*
X107830Y724053D01*
Y722941D01*
X107806Y722844D01*
X105738Y721987D01*
X103708Y720429D01*
X102150Y718399D01*
X101170Y716034D01*
X100836Y713497D01*
X100996Y712284D01*
X99805Y711597D01*
X99344Y711951D01*
X96294Y713214D01*
X94290Y713478D01*
Y700997D01*
Y688516D01*
X96294Y688780D01*
X99344Y690043D01*
X99650Y690278D01*
X101005Y689717D01*
X101170Y688459D01*
X102150Y686095D01*
X103708Y684065D01*
X105738Y682507D01*
X108103Y681527D01*
X110640Y681193D01*
X115400D01*
X117937Y681527D01*
X120302Y682507D01*
X122332Y684065D01*
X123890Y686095D01*
X124870Y688459D01*
X125204Y690997D01*
X124870Y693534D01*
X123890Y695899D01*
X122332Y697929D01*
X120302Y699487D01*
X117937Y700467D01*
X115400Y700801D01*
X110640D01*
X108103Y700467D01*
X106809Y699931D01*
X105645Y700824D01*
X105668Y700997D01*
X105297Y703814D01*
X106147Y704625D01*
X106411Y704728D01*
X108103Y704027D01*
X110640Y703693D01*
X115400D01*
X117937Y704027D01*
X120302Y705007D01*
X122332Y706565D01*
X123890Y708595D01*
X124870Y710959D01*
X125204Y713497D01*
X124870Y716034D01*
X123890Y718399D01*
X122332Y720429D01*
X120302Y721987D01*
X118234Y722844D01*
X118210Y722941D01*
Y724053D01*
X118234Y724150D01*
X120302Y725007D01*
X122332Y726565D01*
X123890Y728595D01*
X124870Y730959D01*
X125204Y733497D01*
X124870Y736034D01*
X123890Y738399D01*
X122332Y740429D01*
X120302Y741987D01*
X117937Y742967D01*
X115400Y743301D01*
X110640D01*
X108103Y742967D01*
X105738Y741987D01*
X104621Y741130D01*
X103715Y742036D01*
X103974Y742373D01*
X105237Y745423D01*
X105292Y745840D01*
X106678Y746641D01*
X107988Y746098D01*
X110640Y745749D01*
X111750D01*
Y755997D01*
Y766245D01*
D02*
G37*
G36*
X310700Y766750D02*
X307084D01*
X307222Y766053D01*
X308336Y764386D01*
X310003Y763272D01*
X310700Y763134D01*
Y766750D01*
D02*
G37*
G36*
X586856D02*
X583240D01*
Y763134D01*
X583936Y763272D01*
X585603Y764386D01*
X586717Y766053D01*
X586856Y766750D01*
D02*
G37*
G36*
X610700D02*
X607084D01*
X607222Y766053D01*
X608336Y764386D01*
X610003Y763272D01*
X610700Y763134D01*
Y766750D01*
D02*
G37*
G36*
X616856D02*
X613240D01*
Y763134D01*
X613936Y763272D01*
X615603Y764386D01*
X616717Y766053D01*
X616856Y766750D01*
D02*
G37*
G36*
X580700D02*
X577084D01*
X577222Y766053D01*
X578336Y764386D01*
X580003Y763272D01*
X580700Y763134D01*
Y766750D01*
D02*
G37*
G36*
X316856D02*
X313240D01*
Y763134D01*
X313936Y763272D01*
X315603Y764386D01*
X316717Y766053D01*
X316856Y766750D01*
D02*
G37*
G36*
X430700D02*
X427084D01*
X427222Y766053D01*
X428336Y764386D01*
X430003Y763272D01*
X430700Y763134D01*
Y766750D01*
D02*
G37*
G36*
X436856D02*
X433240D01*
Y763134D01*
X433936Y763272D01*
X435603Y764386D01*
X436717Y766053D01*
X436856Y766750D01*
D02*
G37*
G36*
X481480Y785386D02*
Y781770D01*
X485096D01*
X484958Y782467D01*
X483844Y784134D01*
X482177Y785248D01*
X481480Y785386D01*
D02*
G37*
G36*
X310700Y796750D02*
X307084D01*
X307222Y796053D01*
X308336Y794386D01*
X310003Y793272D01*
X310700Y793134D01*
Y796750D01*
D02*
G37*
G36*
X316856D02*
X313240D01*
Y793134D01*
X313936Y793272D01*
X315603Y794386D01*
X316717Y796053D01*
X316856Y796750D01*
D02*
G37*
G36*
X340700D02*
X337084D01*
X337222Y796053D01*
X338336Y794386D01*
X340003Y793272D01*
X340700Y793134D01*
Y796750D01*
D02*
G37*
G36*
X286856D02*
X283240D01*
Y793134D01*
X283936Y793272D01*
X285603Y794386D01*
X286717Y796053D01*
X286856Y796750D01*
D02*
G37*
G36*
X250700D02*
X247084D01*
X247222Y796053D01*
X248336Y794386D01*
X250003Y793272D01*
X250700Y793134D01*
Y796750D01*
D02*
G37*
G36*
X256856D02*
X253240D01*
Y793134D01*
X253936Y793272D01*
X255603Y794386D01*
X256717Y796053D01*
X256856Y796750D01*
D02*
G37*
G36*
X280700D02*
X277084D01*
X277222Y796053D01*
X278336Y794386D01*
X280003Y793272D01*
X280700Y793134D01*
Y796750D01*
D02*
G37*
G36*
X346856D02*
X343240D01*
Y793134D01*
X343936Y793272D01*
X345603Y794386D01*
X346717Y796053D01*
X346856Y796750D01*
D02*
G37*
G36*
X133240Y802906D02*
Y799290D01*
X136856D01*
X136717Y799986D01*
X135603Y801653D01*
X133936Y802767D01*
X133240Y802906D01*
D02*
G37*
G36*
X160700D02*
X160003Y802767D01*
X158336Y801653D01*
X157222Y799986D01*
X157084Y799290D01*
X160700D01*
Y802906D01*
D02*
G37*
G36*
X163240D02*
Y799290D01*
X166856D01*
X166717Y799986D01*
X165603Y801653D01*
X163936Y802767D01*
X163240Y802906D01*
D02*
G37*
G36*
X130700D02*
X130003Y802767D01*
X128336Y801653D01*
X127222Y799986D01*
X127084Y799290D01*
X130700D01*
Y802906D01*
D02*
G37*
G36*
X610700Y796750D02*
X607084D01*
X607222Y796053D01*
X608336Y794386D01*
X610003Y793272D01*
X610700Y793134D01*
Y796750D01*
D02*
G37*
G36*
X616856D02*
X613240D01*
Y793134D01*
X613936Y793272D01*
X615603Y794386D01*
X616717Y796053D01*
X616856Y796750D01*
D02*
G37*
G36*
X122524Y825430D02*
X77476D01*
X77786Y822281D01*
X79075Y818033D01*
X81168Y814117D01*
X83985Y810685D01*
X87417Y807868D01*
X91333Y805775D01*
X95581Y804486D01*
X100000Y804051D01*
X100116Y802790D01*
X100003Y802767D01*
X98336Y801653D01*
X97222Y799986D01*
X97084Y799290D01*
X106856D01*
X106717Y799986D01*
X105603Y801653D01*
X103936Y802767D01*
X102607Y803032D01*
X102670Y804314D01*
X104419Y804486D01*
X108667Y805775D01*
X112583Y807868D01*
X116015Y810685D01*
X118832Y814117D01*
X120925Y818033D01*
X122214Y822281D01*
X122524Y825430D01*
D02*
G37*
G36*
X586890Y791736D02*
X586194Y791598D01*
X584526Y790484D01*
X583412Y788817D01*
X583274Y788120D01*
X586890D01*
Y791736D01*
D02*
G37*
G36*
X589430D02*
Y788120D01*
X593046D01*
X592908Y788817D01*
X591794Y790484D01*
X590126Y791598D01*
X589430Y791736D01*
D02*
G37*
G36*
X448460Y800430D02*
X446665Y800073D01*
X445674Y799410D01*
X391310D01*
X389905Y799131D01*
X388715Y798335D01*
X330295Y739915D01*
X329499Y738725D01*
X329220Y737320D01*
Y708356D01*
X328557Y707365D01*
X328200Y705570D01*
X328557Y703775D01*
X329574Y702254D01*
X331095Y701237D01*
X332890Y700880D01*
X334685Y701237D01*
X336206Y702254D01*
X337223Y703775D01*
X337248Y703902D01*
X338604Y704207D01*
X340003Y703272D01*
X340700Y703134D01*
Y708020D01*
Y712906D01*
X340003Y712767D01*
X338336Y711653D01*
X337831Y710897D01*
X336561Y711282D01*
Y735800D01*
X350854Y750092D01*
X350989Y750020D01*
X355750D01*
Y754781D01*
X355677Y754917D01*
X392830Y792069D01*
X445674D01*
X446665Y791407D01*
X448460Y791050D01*
X450255Y791407D01*
X451776Y792424D01*
X452793Y793945D01*
X453150Y795740D01*
X452793Y797535D01*
X451776Y799056D01*
X450255Y800073D01*
X448460Y800430D01*
D02*
G37*
G36*
X640230Y795521D02*
Y784310D01*
X651441D01*
X651177Y786314D01*
X649914Y789364D01*
X647904Y791984D01*
X645284Y793994D01*
X642234Y795257D01*
X640230Y795521D01*
D02*
G37*
G36*
X586890Y785580D02*
X583274D01*
X583412Y784883D01*
X584526Y783216D01*
X586194Y782102D01*
X586890Y781964D01*
Y785580D01*
D02*
G37*
G36*
X593046D02*
X589430D01*
Y781964D01*
X590126Y782102D01*
X591794Y783216D01*
X592908Y784883D01*
X593046Y785580D01*
D02*
G37*
G36*
X637690Y795521D02*
X635686Y795257D01*
X632636Y793994D01*
X630016Y791984D01*
X628006Y789364D01*
X626743Y786314D01*
X626479Y784310D01*
X637690D01*
Y795521D01*
D02*
G37*
G36*
X130700Y796750D02*
X127084D01*
X127222Y796053D01*
X128336Y794386D01*
X130003Y793272D01*
X130700Y793134D01*
Y796750D01*
D02*
G37*
G36*
X196856D02*
X193240D01*
Y793134D01*
X193936Y793272D01*
X195603Y794386D01*
X196717Y796053D01*
X196856Y796750D01*
D02*
G37*
G36*
X220700D02*
X217084D01*
X217222Y796053D01*
X218336Y794386D01*
X220003Y793272D01*
X220700Y793134D01*
Y796750D01*
D02*
G37*
G36*
X226856D02*
X223240D01*
Y793134D01*
X223936Y793272D01*
X225603Y794386D01*
X226717Y796053D01*
X226856Y796750D01*
D02*
G37*
G36*
X190700D02*
X187084D01*
X187222Y796053D01*
X188336Y794386D01*
X190003Y793272D01*
X190700Y793134D01*
Y796750D01*
D02*
G37*
G36*
X136856D02*
X133240D01*
Y793134D01*
X133936Y793272D01*
X135603Y794386D01*
X136717Y796053D01*
X136856Y796750D01*
D02*
G37*
G36*
X160700D02*
X157084D01*
X157222Y796053D01*
X158336Y794386D01*
X160003Y793272D01*
X160700Y793134D01*
Y796750D01*
D02*
G37*
G36*
X166856D02*
X163240D01*
Y793134D01*
X163936Y793272D01*
X165603Y794386D01*
X166717Y796053D01*
X166856Y796750D01*
D02*
G37*
%LPD*%
D10*
X93020Y110997D02*
D03*
Y158697D02*
D03*
Y405997D02*
D03*
Y453697D02*
D03*
Y700997D02*
D03*
Y748697D02*
D03*
D23*
X332890Y162560D02*
X387500Y217170D01*
X459890D01*
X463700Y220980D01*
X332890Y115570D02*
Y147320D01*
X391310Y205740D01*
X448460D01*
X431950Y110490D02*
X459890Y82550D01*
X332890Y457560D02*
X387500Y512170D01*
X459890D01*
X463700Y515980D01*
X332890Y410570D02*
Y442320D01*
X391310Y500740D01*
X448460D01*
X431950Y405490D02*
X459890Y377550D01*
X332890Y752560D02*
X387500Y807170D01*
X459890D01*
X463700Y810980D01*
X332890Y705570D02*
Y737320D01*
X391310Y795740D01*
X448460D01*
X431950Y700490D02*
X459890Y672550D01*
D29*
X34000Y30500D02*
D03*
X696000Y824500D02*
D03*
X34000D02*
D03*
X696000Y30500D02*
D03*
X100000Y236700D02*
D03*
Y30000D02*
D03*
Y531700D02*
D03*
Y325000D02*
D03*
Y826700D02*
D03*
Y620000D02*
D03*
D30*
X402232Y61976D02*
D03*
Y87376D02*
D03*
X437030Y246380D02*
D03*
X462430D02*
D03*
X487830D02*
D03*
X513230D02*
D03*
X538630D02*
D03*
X564030D02*
D03*
X589430D02*
D03*
X614830D02*
D03*
X640230D02*
D03*
X437030Y17780D02*
D03*
X462430D02*
D03*
X487830D02*
D03*
X513230D02*
D03*
X538630D02*
D03*
X564030D02*
D03*
X589430D02*
D03*
X614830D02*
D03*
X640230D02*
D03*
X638960Y193040D02*
D03*
Y167640D02*
D03*
Y66040D02*
D03*
Y91440D02*
D03*
Y116840D02*
D03*
Y142240D02*
D03*
X402232Y356976D02*
D03*
Y382376D02*
D03*
X437030Y541380D02*
D03*
X462430D02*
D03*
X487830D02*
D03*
X513230D02*
D03*
X538630D02*
D03*
X564030D02*
D03*
X589430D02*
D03*
X614830D02*
D03*
X640230D02*
D03*
X437030Y312780D02*
D03*
X462430D02*
D03*
X487830D02*
D03*
X513230D02*
D03*
X538630D02*
D03*
X564030D02*
D03*
X589430D02*
D03*
X614830D02*
D03*
X640230D02*
D03*
X638960Y488040D02*
D03*
Y462640D02*
D03*
Y361040D02*
D03*
Y386440D02*
D03*
Y411840D02*
D03*
Y437240D02*
D03*
X402232Y651976D02*
D03*
Y677376D02*
D03*
X437030Y836380D02*
D03*
X462430D02*
D03*
X487830D02*
D03*
X513230D02*
D03*
X538630D02*
D03*
X564030D02*
D03*
X589430D02*
D03*
X614830D02*
D03*
X640230D02*
D03*
X437030Y607780D02*
D03*
X462430D02*
D03*
X487830D02*
D03*
X513230D02*
D03*
X538630D02*
D03*
X564030D02*
D03*
X589430D02*
D03*
X614830D02*
D03*
X640230D02*
D03*
X638960Y783040D02*
D03*
Y757640D02*
D03*
Y656040D02*
D03*
Y681440D02*
D03*
Y706840D02*
D03*
Y732240D02*
D03*
D31*
X411630Y246380D02*
D03*
Y17780D02*
D03*
Y541380D02*
D03*
Y312780D02*
D03*
Y836380D02*
D03*
Y607780D02*
D03*
D32*
X113020Y165997D02*
D03*
Y100997D02*
D03*
Y143497D02*
D03*
Y123497D02*
D03*
Y460997D02*
D03*
Y395997D02*
D03*
Y438497D02*
D03*
Y418497D02*
D03*
Y755997D02*
D03*
Y690997D02*
D03*
Y733497D02*
D03*
Y713497D02*
D03*
D33*
X93020Y75350D02*
D03*
Y191350D02*
D03*
Y370350D02*
D03*
Y486350D02*
D03*
Y665350D02*
D03*
Y781350D02*
D03*
D34*
X456080Y46990D02*
D03*
X500530Y35560D02*
D03*
X292250Y55880D02*
D03*
X431950Y110490D02*
D03*
X430680Y148590D02*
D03*
X332890Y162560D02*
D03*
Y115570D02*
D03*
X291615Y99060D02*
D03*
X588160Y196850D02*
D03*
X463700Y220980D02*
D03*
X448460Y205740D02*
D03*
X285900Y55880D02*
D03*
X357020Y158750D02*
D03*
X508150Y217170D02*
D03*
X390040Y226060D02*
D03*
X480210Y190500D02*
D03*
X437030Y148590D02*
D03*
X459890Y82550D02*
D03*
X278280Y13970D02*
D03*
X101970Y58020D02*
D03*
Y208020D02*
D03*
X131970Y28020D02*
D03*
Y58020D02*
D03*
Y88020D02*
D03*
Y118020D02*
D03*
Y178020D02*
D03*
Y208020D02*
D03*
Y238020D02*
D03*
X161970Y28020D02*
D03*
Y208020D02*
D03*
Y238020D02*
D03*
X191970Y28020D02*
D03*
Y208020D02*
D03*
Y238020D02*
D03*
X221970Y28020D02*
D03*
Y208020D02*
D03*
Y238020D02*
D03*
X251970Y28020D02*
D03*
Y58020D02*
D03*
Y88020D02*
D03*
Y148020D02*
D03*
Y208020D02*
D03*
Y238020D02*
D03*
X281970Y178020D02*
D03*
Y208020D02*
D03*
Y238020D02*
D03*
X311970Y88020D02*
D03*
Y118020D02*
D03*
Y178020D02*
D03*
Y208020D02*
D03*
Y238020D02*
D03*
X341970Y88020D02*
D03*
Y118020D02*
D03*
Y208020D02*
D03*
Y238020D02*
D03*
X371970Y58020D02*
D03*
Y238020D02*
D03*
X431970Y118020D02*
D03*
Y178020D02*
D03*
X491970Y148020D02*
D03*
X521970Y118020D02*
D03*
Y148020D02*
D03*
X581970Y118020D02*
D03*
Y148020D02*
D03*
Y178020D02*
D03*
X611970Y58020D02*
D03*
Y118020D02*
D03*
Y148020D02*
D03*
Y178020D02*
D03*
Y208020D02*
D03*
X456080Y341990D02*
D03*
X500530Y330560D02*
D03*
X292250Y350880D02*
D03*
X431950Y405490D02*
D03*
X430680Y443590D02*
D03*
X332890Y457560D02*
D03*
Y410570D02*
D03*
X291615Y394060D02*
D03*
X588160Y491850D02*
D03*
X463700Y515980D02*
D03*
X448460Y500740D02*
D03*
X285900Y350880D02*
D03*
X357020Y453750D02*
D03*
X508150Y512170D02*
D03*
X390040Y521060D02*
D03*
X480210Y485500D02*
D03*
X437030Y443590D02*
D03*
X459890Y377550D02*
D03*
X278280Y308970D02*
D03*
X101970Y353020D02*
D03*
Y503020D02*
D03*
X131970Y323020D02*
D03*
Y353020D02*
D03*
Y383020D02*
D03*
Y413020D02*
D03*
Y473020D02*
D03*
Y503020D02*
D03*
Y533020D02*
D03*
X161970Y323020D02*
D03*
Y503020D02*
D03*
Y533020D02*
D03*
X191970Y323020D02*
D03*
Y503020D02*
D03*
Y533020D02*
D03*
X221970Y323020D02*
D03*
Y503020D02*
D03*
Y533020D02*
D03*
X251970Y323020D02*
D03*
Y353020D02*
D03*
Y383020D02*
D03*
Y443020D02*
D03*
Y503020D02*
D03*
Y533020D02*
D03*
X281970Y473020D02*
D03*
Y503020D02*
D03*
Y533020D02*
D03*
X311970Y383020D02*
D03*
Y413020D02*
D03*
Y473020D02*
D03*
Y503020D02*
D03*
Y533020D02*
D03*
X341970Y383020D02*
D03*
Y413020D02*
D03*
Y503020D02*
D03*
Y533020D02*
D03*
X371970Y353020D02*
D03*
Y533020D02*
D03*
X431970Y413020D02*
D03*
Y473020D02*
D03*
X491970Y443020D02*
D03*
X521970Y413020D02*
D03*
Y443020D02*
D03*
X581970Y413020D02*
D03*
Y443020D02*
D03*
Y473020D02*
D03*
X611970Y353020D02*
D03*
Y413020D02*
D03*
Y443020D02*
D03*
Y473020D02*
D03*
Y503020D02*
D03*
X456080Y636990D02*
D03*
X500530Y625560D02*
D03*
X292250Y645880D02*
D03*
X431950Y700490D02*
D03*
X430680Y738590D02*
D03*
X332890Y752560D02*
D03*
Y705570D02*
D03*
X291615Y689060D02*
D03*
X588160Y786850D02*
D03*
X463700Y810980D02*
D03*
X448460Y795740D02*
D03*
X285900Y645880D02*
D03*
X357020Y748750D02*
D03*
X508150Y807170D02*
D03*
X390040Y816060D02*
D03*
X480210Y780500D02*
D03*
X437030Y738590D02*
D03*
X459890Y672550D02*
D03*
X278280Y603970D02*
D03*
X101970Y648020D02*
D03*
Y798020D02*
D03*
X131970Y618020D02*
D03*
Y648020D02*
D03*
Y678020D02*
D03*
Y708020D02*
D03*
Y768020D02*
D03*
Y798020D02*
D03*
Y828020D02*
D03*
X161970Y618020D02*
D03*
Y798020D02*
D03*
Y828020D02*
D03*
X191970Y618020D02*
D03*
Y798020D02*
D03*
Y828020D02*
D03*
X221970Y618020D02*
D03*
Y798020D02*
D03*
Y828020D02*
D03*
X251970Y618020D02*
D03*
Y648020D02*
D03*
Y678020D02*
D03*
Y738020D02*
D03*
Y798020D02*
D03*
Y828020D02*
D03*
X281970Y768020D02*
D03*
Y798020D02*
D03*
Y828020D02*
D03*
X311970Y678020D02*
D03*
Y708020D02*
D03*
Y768020D02*
D03*
Y798020D02*
D03*
Y828020D02*
D03*
X341970Y678020D02*
D03*
Y708020D02*
D03*
Y798020D02*
D03*
Y828020D02*
D03*
X371970Y648020D02*
D03*
Y828020D02*
D03*
X431970Y708020D02*
D03*
Y768020D02*
D03*
X491970Y738020D02*
D03*
X521970Y708020D02*
D03*
Y738020D02*
D03*
X581970Y708020D02*
D03*
Y738020D02*
D03*
Y768020D02*
D03*
X611970Y648020D02*
D03*
Y708020D02*
D03*
Y738020D02*
D03*
Y768020D02*
D03*
Y798020D02*
D03*
D35*
X430680Y46990D02*
X456080D01*
X425600Y41910D02*
X430680Y46990D01*
X351940Y41910D02*
X425600D01*
X337970Y55880D02*
X430680Y148590D01*
X285900Y55880D02*
X337970D01*
X430680Y148590D02*
X472590D01*
X529740Y91440D01*
X638960D01*
Y116840D01*
Y66040D02*
Y91440D01*
X337970Y55880D02*
X351940Y41910D01*
X430680Y341990D02*
X456080D01*
X425600Y336910D02*
X430680Y341990D01*
X351940Y336910D02*
X425600D01*
X337970Y350880D02*
X430680Y443590D01*
X285900Y350880D02*
X337970D01*
X430680Y443590D02*
X472590D01*
X529740Y386440D01*
X638960D01*
Y411840D01*
Y361040D02*
Y386440D01*
X337970Y350880D02*
X351940Y336910D01*
X430680Y636990D02*
X456080D01*
X425600Y631910D02*
X430680Y636990D01*
X351940Y631910D02*
X425600D01*
X337970Y645880D02*
X430680Y738590D01*
X285900Y645880D02*
X337970D01*
X430680Y738590D02*
X472590D01*
X529740Y681440D01*
X638960D01*
Y706840D01*
Y656040D02*
Y681440D01*
X337970Y645880D02*
X351940Y631910D01*
M02*
